<svg xmlns="http://www.w3.org/2000/svg" width="152" height="25" viewBox="0 0 152 25" fill="none"><path d="M12.0006 18.76L4.94715 22.7082L6.52248 14.7799L0.587891 9.2918L8.61493 8.34006L12.0006 1L15.3862 8.34006L23.4132 9.2918L17.4787 14.7799L19.054 22.7082L12.0006 18.76Z" fill="#FCC000"></path><path d="M44.0006 18.76L36.9471 22.7082L38.5225 14.7799L32.5879 9.2918L40.6149 8.34006L44.0006 1L47.3862 8.34006L55.4132 9.2918L49.4787 14.7799L51.054 22.7082L44.0006 18.76Z" fill="#FCC000"></path><path d="M76.0006 18.76L68.9471 22.7082L70.5225 14.7799L64.5879 9.2918L72.6149 8.34006L76.0006 1L79.3862 8.34006L87.4132 9.2918L81.4787 14.7799L83.054 22.7082L76.0006 18.76Z" fill="#FCC000"></path><path d="M108.001 18.76L100.947 22.7082L102.522 14.7799L96.5879 9.2918L104.615 8.34006L108.001 1L111.386 8.34006L119.413 9.2918L113.479 14.7799L115.054 22.7082L108.001 18.76Z" fill="#FCC000"></path><path d="M140.001 18.76L132.947 22.7082L134.522 14.7799L128.588 9.2918L136.615 8.34006L140.001 1L143.386 8.34006L151.413 9.2918L145.479 14.7799L147.054 22.7082L140.001 18.76Z" fill="#FCC000"></path></svg>