<svg xmlns="http://www.w3.org/2000/svg" width="253" height="60" viewBox="0 0 253 60" fill="none"><g clip-path="url(#clip0_2085_8044)"><path d="M7.7519 45.3401C5.20864 44.0049 3.28483 42.0441 1.9674 39.4579C0.654324 36.8761 -0.00439453 33.8063 -0.00439453 30.2574C-0.00439453 26.7085 0.706672 23.6787 2.1288 21.0259C3.55094 18.3776 5.53145 16.3059 8.07471 14.8154C10.6136 13.3249 13.4579 12.5796 16.6031 12.5796C20.6078 12.5796 23.849 13.4979 26.3269 15.3388C28.8047 17.1798 30.4711 19.9391 31.3349 23.6166L22.9984 25.3245C22.6974 23.2661 22.0517 21.7357 21.0615 20.7243C20.0712 19.7173 18.78 19.2115 17.1833 19.2115C15.8485 19.2115 14.6968 19.6064 13.7283 20.396C12.7599 21.1856 12.027 22.3789 11.5297 23.9759C11.0324 25.5773 10.7881 27.5558 10.7881 29.9203C10.7881 32.4178 11.0237 34.4539 11.4992 36.0288C11.9747 37.6036 12.725 38.7658 13.7589 39.5111C14.7928 40.2564 16.0186 40.629 17.4407 40.629C19.033 40.629 20.3155 40.2031 21.284 39.347C22.2524 38.4908 22.9722 37.0358 23.4477 34.9774L31.1996 36.7518C30.3359 40.3007 28.6695 42.9491 26.1916 44.7013C23.7138 46.4536 20.5598 47.3275 16.7253 47.3275C13.279 47.3275 10.2864 46.6576 7.74317 45.3224L7.7519 45.3401Z" fill="#F9F9F9"></path><path d="M32.4341 0.5H42.5766V46.4934H32.4341V0.5Z" fill="#F9F9F9"></path><path d="M52.2046 45.3757C49.6614 44.0626 47.6591 42.1151 46.1977 39.5289C44.7319 36.9471 43.999 33.8108 43.999 30.1333C43.999 26.4557 44.7406 23.2884 46.2282 20.64C47.7158 17.9917 49.7704 15.9733 52.3966 14.5936C55.0227 13.214 57.9324 12.522 61.117 12.522C64.3015 12.522 67.3857 13.1696 69.9682 14.4605C72.5507 15.7514 74.5661 17.7122 76.0101 20.3428C77.454 22.969 78.1738 26.123 78.1738 29.805C78.1738 33.4869 77.4104 36.5833 75.8792 39.2317C74.348 41.8845 72.2934 43.8984 69.7108 45.2781C67.1283 46.6577 64.2186 47.3497 60.9905 47.3497C57.7623 47.3497 54.7435 46.6932 52.2046 45.3801V45.3757ZM64.3844 39.5599C65.2656 38.7925 65.9897 37.5992 66.5481 35.98C67.1065 34.3608 67.39 32.3646 67.39 30.0002C67.39 27.6357 67.1109 25.5242 66.5481 23.9227C65.9897 22.3257 65.2656 21.1191 64.3844 20.3073C63.5032 19.4955 62.3908 19.0918 61.0559 19.0918C59.721 19.0918 58.5344 19.4955 57.6314 20.3073C56.7284 21.1191 56.0261 22.3213 55.5331 23.9227C55.0358 25.5242 54.7915 27.5248 54.7915 29.9336C54.7915 32.3424 55.0402 34.2943 55.5331 35.9135C56.0261 37.5326 56.7284 38.7393 57.6314 39.5289C58.5344 40.3185 59.6774 40.7133 61.0559 40.7133C62.4344 40.7133 63.4988 40.3318 64.3844 39.5644V39.5599Z" fill="#F9F9F9"></path><path d="M84.2809 46.063C82.7497 45.2069 81.5893 43.9515 80.791 42.2835C79.9927 40.6199 79.5957 38.6503 79.5957 36.3702V13.6396H89.8036V34.334C89.8036 36.0419 90.1483 37.3018 90.8375 38.1136C91.5268 38.9254 92.6043 39.329 94.07 39.329C95.2348 39.329 96.3298 38.9342 97.3636 38.1446C98.3975 37.355 99.366 36.175 100.269 34.5957L101.56 39.5242C100.182 42.1504 98.4804 44.1112 96.4563 45.4065C94.4321 46.6974 92.2335 47.3451 89.8647 47.3451C87.6661 47.3451 85.8034 46.9192 84.2765 46.063H84.2809ZM100.465 39.919L100.012 38.8011V13.6396H110.416V46.4933H100.465V39.9235V39.919Z" fill="#F9F9F9"></path><path d="M117.649 45.3089C115.712 43.9515 114.224 41.9819 113.19 39.3956C112.156 36.8138 111.642 33.8106 111.642 30.3948C111.642 26.979 112.191 23.7939 113.291 21.0968C114.39 18.4041 115.939 16.3014 117.941 14.7886C119.943 13.2759 122.303 12.5218 125.017 12.5218C127.255 12.5218 129.257 13.0364 131.024 14.0656C132.79 15.0947 134.295 16.6607 135.547 18.7634L134.448 24.2819C133.802 23.2305 133.166 22.3655 132.542 21.6868C131.918 21.008 131.272 20.5023 130.605 20.1741C129.937 19.8458 129.191 19.6817 128.376 19.6817C127.041 19.6817 125.955 20.0765 125.113 20.8661C124.271 21.6557 123.616 22.8268 123.141 24.3795C122.665 25.9365 122.43 27.8308 122.43 30.0621C122.43 32.2935 122.644 34.1699 123.075 35.6782C123.507 37.1909 124.175 38.331 125.078 39.094C125.981 39.8614 127.08 40.2429 128.371 40.2429C129.575 40.2429 130.666 39.8836 131.634 39.1605C132.603 38.4374 133.541 37.2885 134.444 35.7093L135.992 40.2429C134.4 42.8292 132.707 44.6568 130.919 45.7304C129.13 46.8039 127.054 47.3407 124.685 47.3407C121.928 47.3407 119.581 46.662 117.644 45.3045L117.649 45.3089ZM134.963 39.5908L134.121 38.5395V0.5H144.394V46.4934H134.963V39.5953V39.5908Z" fill="#F9F9F9"></path><path d="M151.501 58.7461C149.219 58.2404 147.535 57.4862 146.462 56.4792C145.385 55.4723 144.848 54.1148 144.848 52.4069C144.848 51.0051 145.245 49.7808 146.043 48.7294C146.842 47.678 148.046 46.8795 149.66 46.3295C151.274 45.7838 153.246 45.531 155.571 45.5753L157.25 47.8111C156.387 47.7224 155.645 47.7978 155.021 48.0418C154.397 48.2813 153.922 48.6451 153.599 49.1242C153.276 49.6077 153.115 50.1534 153.115 50.7656C153.115 51.5108 153.372 52.1452 153.891 52.6731C154.41 53.201 155.235 53.5692 156.378 53.791C157.521 54.0083 159.017 54.1192 160.867 54.1192C163.279 54.1192 165.172 53.9862 166.551 53.7244C167.929 53.4627 168.928 53.0679 169.557 52.54C170.18 52.0165 170.495 51.3556 170.495 50.5704C170.495 49.6521 170.159 48.9601 169.491 48.4987C168.824 48.0374 167.755 47.8067 166.294 47.8067H157.246C153.63 47.8067 150.772 47.1723 148.687 45.8992C146.597 44.6304 145.555 42.856 145.555 40.5759C145.555 39.1297 145.899 37.8698 146.589 36.7963C147.278 35.7228 148.29 34.8489 149.625 34.1701C150.96 33.4914 152.574 32.999 154.472 32.6929L160.932 35.4522C159.384 35.4522 158.123 35.5187 157.154 35.6474C156.186 35.7804 155.484 36.0333 155.056 36.4015C154.624 36.7741 154.41 37.2444 154.41 37.8122C154.41 38.38 154.637 38.8325 155.091 39.1607C155.545 39.489 156.221 39.6532 157.128 39.6532H166.368C170.673 39.6532 173.893 40.3984 176.026 41.8889C178.159 43.3795 179.245 45.6774 179.289 48.7871C179.289 51.1959 178.6 53.201 177.221 54.798C175.843 56.395 173.775 57.5794 171.018 58.3468C168.261 59.1143 164.771 59.4958 160.553 59.4958C156.805 59.4958 153.791 59.2429 151.505 58.7416L151.501 58.7461ZM158.803 35.1904C158.158 35.0174 157.556 34.7291 156.993 34.3343C153.416 34.1169 150.663 33.1099 148.722 31.3133C146.785 29.5167 145.817 27.1301 145.817 24.1535C145.817 21.8334 146.419 19.7972 147.627 18.045C148.831 16.2927 150.62 14.9486 152.988 14.0037C155.357 13.0632 158.049 12.593 161.063 12.593C165.888 12.593 169.644 13.5778 172.335 15.5519C175.027 17.5215 176.375 20.2808 176.375 23.8296C176.375 26.1941 175.751 28.2435 174.499 29.9736C173.252 31.7037 171.472 33.0523 169.168 34.0149C166.865 34.9775 164.117 35.461 160.932 35.461C160.156 35.461 159.445 35.3723 158.799 35.1993L158.803 35.1904ZM163.907 28.421C164.684 27.9818 165.286 27.414 165.718 26.7131C166.15 26.0122 166.363 25.1161 166.363 24.0204C166.363 22.3125 165.901 21.0083 164.976 20.1122C164.051 19.2161 162.747 18.7636 161.067 18.7636C159.99 18.7636 159.043 18.9721 158.223 19.3891C157.403 19.8061 156.792 20.3961 156.382 21.1635C155.972 21.931 155.767 22.8847 155.767 24.0204C155.767 25.5952 156.23 26.8373 157.154 27.7334C158.079 28.6339 159.384 29.082 161.063 29.082C162.184 29.082 163.131 28.8646 163.907 28.4254V28.421ZM170.726 12.0962C171.35 11.0226 172.235 10.1886 173.374 9.59864C174.517 9.00864 175.86 8.71143 177.413 8.71143C178.704 8.71143 179.891 8.95097 180.969 9.43451L179.224 16.794C178.491 16.3992 177.692 16.204 176.833 16.204C175.843 16.204 175.066 16.3814 174.508 16.7274C173.95 17.0779 173.583 17.5836 173.409 18.2401L169.853 15.3478C169.81 14.2521 170.102 13.1697 170.726 12.0962Z" fill="#F9F9F9"></path><path d="M180.384 44.9139C178.486 43.2504 177.54 40.9525 177.54 38.0158C177.54 35.434 178.303 33.2736 179.834 31.5435C181.361 29.8134 183.677 28.5004 186.779 27.5998C189.881 26.7037 193.907 26.2734 198.863 26.3178L199.055 31.6411C196.472 31.5968 194.361 31.7964 192.725 32.2311C191.089 32.6703 189.85 33.2603 189.008 34.0056C188.166 34.7508 187.747 35.7356 187.747 36.96C187.747 38.1001 188.092 38.9962 188.781 39.6527C189.471 40.3092 190.461 40.6375 191.752 40.6375C193.432 40.6375 194.928 40.0786 196.241 38.9607C197.554 37.8428 198.662 36.2103 199.57 34.0677L201.703 38.3396C200.11 41.405 198.191 43.6851 195.953 45.1712C193.711 46.6617 191.085 47.407 188.07 47.407C184.838 47.407 182.277 46.573 180.384 44.9095V44.9139ZM198.409 40.5133L198.086 39.3954V25.0047C198.086 23.0795 197.654 21.6333 196.795 20.6662C195.931 19.7036 194.596 19.2201 192.79 19.2201C190.984 19.2201 189.754 19.6592 188.851 20.5331C187.948 21.4115 187.342 22.7689 187.041 24.6055L178.255 23.0928C178.857 19.8056 180.471 17.2238 183.102 15.3385C185.728 13.4576 189.218 12.5127 193.567 12.5127C196.712 12.5127 199.404 12.9962 201.642 13.9589C203.88 14.9215 205.559 16.3677 206.68 18.2974C207.801 20.2271 208.36 22.525 208.36 25.1955V40.1096C208.403 41.3783 208.469 42.5184 208.552 43.5254C208.639 44.5324 208.809 45.4285 209.066 46.2181V46.4798H199.116C198.64 44.9893 198.405 42.9975 198.405 40.5L198.409 40.5133Z" fill="#F9F9F9"></path><path d="M224.309 44.9139C222.411 43.2504 221.464 40.9525 221.464 38.0158C221.464 35.434 222.228 33.2736 223.759 31.5435C225.286 29.8134 227.602 28.5004 230.704 27.5998C233.805 26.7037 237.832 26.2734 242.788 26.3178L242.98 31.6411C240.397 31.5968 238.286 31.7964 236.65 32.2311C235.014 32.6703 233.775 33.2603 232.933 34.0056C232.091 34.7508 231.672 35.7356 231.672 36.96C231.672 38.1001 232.017 38.9962 232.706 39.6527C233.395 40.3092 234.386 40.6375 235.677 40.6375C237.356 40.6375 238.853 40.0786 240.166 38.9607C241.479 37.8428 242.587 36.2103 243.494 34.0677L245.628 38.3396C244.035 41.405 242.116 43.6851 239.878 45.1712C237.636 46.6617 235.01 47.407 231.995 47.407C228.763 47.407 226.202 46.573 224.309 44.9095V44.9139ZM242.334 40.5133L242.011 39.3954V25.0047C242.011 23.0795 241.579 21.6333 240.72 20.6662C239.856 19.7036 238.521 19.2201 236.715 19.2201C234.909 19.2201 233.679 19.6592 232.776 20.5331C231.873 21.4115 231.267 22.7689 230.966 24.6055L222.18 23.0928C222.782 19.8056 224.396 17.2238 227.026 15.3385C229.653 13.4576 233.142 12.5127 237.492 12.5127C240.637 12.5127 243.329 12.9962 245.566 13.9589C247.804 14.9215 249.484 16.3677 250.605 18.2974C251.726 20.2271 252.284 22.525 252.284 25.1955V40.1096C252.328 41.3783 252.394 42.5184 252.476 43.5254C252.564 44.5324 252.734 45.4285 252.991 46.2181V46.4798H243.041C242.565 44.9893 242.33 42.9975 242.33 40.5L242.334 40.5133Z" fill="#F9F9F9"></path><path d="M220.243 19.4863V46.4932H210.101V9.17236L220.243 19.4863Z" fill="#F9F9F9"></path><path d="M220.243 0.5H210.101V9.17256H220.243V0.5Z" fill="#FCC000"></path></g><defs><clipPath id="clip0_2085_8044"><rect width="253" height="59" fill="white" transform="translate(0 0.5)"></rect></clipPath></defs></svg>