<svg xmlns="http://www.w3.org/2000/svg" width="71" height="76" viewBox="0 0 71 76" fill="none"><g clip-path="url(#clip0_932_3367)"><path d="M66.5646 76H4.43844C1.9883 76 0 73.9969 0 71.5285V4.47148C0 2.0031 1.9883 0 4.43844 0H66.5646C69.0147 0 71.003 2.0031 71.003 4.47148V71.5285C71.003 73.9969 69.0147 76 66.5646 76Z" fill="#1D3160"></path><path d="M32.1576 14.9372C33.7531 13.2634 35.9693 12.2272 38.4254 12.2272C41.6883 12.2272 44.5343 14.058 46.0488 16.7802C47.3683 16.185 48.8258 15.8587 50.3582 15.8587C56.2422 15.8587 61.0135 20.7048 61.0135 26.6869C61.0135 32.6691 56.2422 37.5152 50.3582 37.5152C49.6415 37.5152 48.9367 37.4427 48.259 37.3067C46.9244 39.7056 44.3813 41.325 41.4604 41.325C40.2368 41.325 39.0822 41.041 38.0536 40.5334C36.701 43.739 33.5462 45.9898 29.8725 45.9898C26.1987 45.9898 22.7829 43.5486 21.5324 40.1286C20.9836 40.2464 20.4168 40.3068 19.838 40.3068C15.2826 40.3068 11.5879 36.5484 11.5879 31.9107C11.5879 28.8018 13.2463 26.0887 15.7144 24.6355C15.2046 23.4572 14.9227 22.1611 14.9227 20.7955C14.9227 15.4599 19.2202 11.1365 24.5223 11.1365C27.6352 11.1365 30.4033 12.629 32.1546 14.9372" fill="#0F9BD7"></path><path d="M18.7464 29.2097C18.7164 29.2913 18.7584 29.3094 18.7674 29.3215C18.8603 29.391 18.9533 29.4393 19.0493 29.4937C19.5531 29.7626 20.0299 29.8411 20.5277 29.8411C21.5414 29.8411 22.1712 29.2973 22.1712 28.4242V28.406C22.1712 27.5963 21.4604 27.3033 20.7946 27.0918L20.7077 27.0616C20.2068 26.8984 19.772 26.7534 19.772 26.4211V26.4029C19.772 26.1189 20.0269 25.9074 20.4198 25.9074C20.8546 25.9074 21.3734 26.0525 21.7093 26.2398C21.7093 26.2398 21.8083 26.3032 21.8413 26.2096C21.8623 26.1582 22.0302 25.702 22.0482 25.6506C22.0662 25.5963 22.0332 25.557 21.9972 25.5358C21.6163 25.3032 21.0885 25.1431 20.5457 25.1431H20.4468C19.5171 25.1431 18.8693 25.708 18.8693 26.5177V26.5359C18.8693 27.3879 19.5831 27.6658 20.2518 27.8592L20.3598 27.8924C20.8456 28.0435 21.2685 28.1734 21.2685 28.5208V28.539C21.2685 28.8532 20.9956 29.0888 20.5547 29.0888C20.3838 29.0888 19.838 29.0888 19.2472 28.7112C19.1752 28.6689 19.1362 28.6387 19.0792 28.6054C19.0493 28.5873 18.9773 28.5541 18.9473 28.6508L18.7464 29.2097Z" fill="white"></path><path d="M33.5911 29.2097C33.5611 29.2913 33.6031 29.3094 33.6121 29.3215C33.705 29.391 33.798 29.4393 33.894 29.4937C34.3978 29.7626 34.8746 29.8411 35.3695 29.8411C36.3861 29.8411 37.0129 29.2973 37.0129 28.4242V28.406C37.0129 27.5963 36.3021 27.3033 35.6364 27.0918L35.5494 27.0616C35.0456 26.8984 34.6137 26.7534 34.6137 26.4211V26.4029C34.6137 26.1189 34.8656 25.9074 35.2615 25.9074C35.6963 25.9074 36.2152 26.0525 36.548 26.2398C36.548 26.2398 36.647 26.3032 36.683 26.2096C36.704 26.1582 36.8719 25.702 36.8899 25.6506C36.9079 25.5963 36.8749 25.557 36.8419 25.5358C36.4581 25.3032 35.9333 25.1431 35.3875 25.1431H35.2885C34.3588 25.1431 33.711 25.708 33.711 26.5177V26.5359C33.711 27.3879 34.4248 27.6658 35.0936 27.8592L35.2015 27.8924C35.6873 28.0435 36.1102 28.1734 36.1102 28.5208V28.539C36.1102 28.8532 35.8373 29.0888 35.3964 29.0888C35.2255 29.0888 34.6797 29.0888 34.0889 28.7112C34.0169 28.6689 33.9779 28.6387 33.921 28.6054C33.903 28.5934 33.816 28.5601 33.789 28.6508L33.5881 29.2097H33.5911Z" fill="white"></path><path d="M44.5703 26.5814C44.4864 26.2974 44.3574 26.0466 44.1835 25.8412C44.0095 25.6327 43.7906 25.4635 43.5327 25.3457C43.2748 25.2248 42.9689 25.1614 42.627 25.1614C42.2851 25.1614 41.9792 25.2248 41.7183 25.3457C41.4604 25.4665 41.2415 25.6357 41.0706 25.8412C40.8966 26.0496 40.7677 26.3004 40.6837 26.5814C40.6027 26.8624 40.5577 27.1705 40.5577 27.4968C40.5577 27.8231 40.5997 28.1313 40.6837 28.4123C40.7677 28.6963 40.8966 28.947 41.0706 29.1525C41.2445 29.3609 41.4634 29.5271 41.7213 29.6449C41.9792 29.7628 42.2851 29.8232 42.63 29.8232C42.9749 29.8232 43.2778 29.7628 43.5357 29.6449C43.7936 29.5271 44.0125 29.3609 44.1865 29.1525C44.3574 28.944 44.4864 28.6932 44.5733 28.4123C44.6543 28.1313 44.6993 27.8231 44.6993 27.4968C44.6993 27.1705 44.6573 26.8624 44.5733 26.5814M43.7276 27.4968C43.7276 27.9923 43.6347 28.382 43.4577 28.657C43.2778 28.9289 43.0079 29.0618 42.633 29.0618C42.2581 29.0618 41.9882 28.9289 41.8113 28.657C41.6344 28.382 41.5444 27.9923 41.5444 27.4968C41.5444 27.0013 41.6344 26.6146 41.8113 26.3427C41.9882 26.0738 42.2551 25.9409 42.633 25.9409C43.0109 25.9409 43.2778 26.0738 43.4577 26.3427C43.6377 26.6146 43.7276 27.0044 43.7276 27.4968Z" fill="white"></path><path fill-rule="evenodd" clip-rule="evenodd" d="M51.5188 28.9289C51.4918 28.8474 51.4109 28.8776 51.4109 28.8776C51.2879 28.9259 51.1559 28.9682 51.018 28.9894C50.877 29.0105 50.7211 29.0226 50.5532 29.0226C50.1453 29.0226 49.8184 28.8987 49.5875 28.657C49.3536 28.4153 49.2216 28.0225 49.2246 27.4908C49.2246 27.0074 49.3416 26.6448 49.5485 26.3669C49.7554 26.092 50.0703 25.953 50.4872 25.953C50.8381 25.953 51.105 25.9923 51.3839 26.0829C51.3839 26.0829 51.4498 26.1131 51.4798 26.0225C51.5548 25.814 51.6118 25.669 51.6898 25.4394C51.7137 25.3729 51.6568 25.3457 51.6358 25.3397C51.5278 25.2943 51.2669 25.2249 51.072 25.1946C50.889 25.1674 50.6761 25.1523 50.4362 25.1523C50.0823 25.1523 49.7644 25.2158 49.4915 25.3336C49.2216 25.4545 48.9937 25.6237 48.8108 25.8291C48.6278 26.0376 48.4899 26.2883 48.3999 26.5693C48.3069 26.8503 48.262 27.1585 48.262 27.4878C48.262 28.1948 48.4509 28.7658 48.8228 29.1857C49.1976 29.6057 49.7614 29.8202 50.4932 29.8202C50.925 29.8202 51.3719 29.7326 51.6928 29.6057C51.6928 29.6057 51.7557 29.5755 51.7257 29.506L51.5188 28.9289Z" fill="white"></path><path fill-rule="evenodd" clip-rule="evenodd" d="M55.8493 26.4181C55.7773 26.1462 55.6004 25.8682 55.4804 25.7443C55.2975 25.5449 55.1176 25.4029 54.9376 25.3244C54.7037 25.2247 54.4248 25.1582 54.1189 25.1582C53.762 25.1582 53.4352 25.2186 53.1712 25.3425C52.9073 25.4664 52.6854 25.6386 52.5115 25.8501C52.3375 26.0616 52.2056 26.3123 52.1246 26.5993C52.0406 26.8833 51.9987 27.1945 51.9987 27.5208C51.9987 27.8471 52.0436 28.1644 52.1276 28.4423C52.2146 28.7233 52.3555 28.968 52.5445 29.1765C52.7334 29.3819 52.9763 29.5451 53.2642 29.6569C53.5521 29.7687 53.903 29.8261 54.3048 29.8261C55.1326 29.8261 55.5674 29.6387 55.7473 29.536C55.7773 29.5179 55.8103 29.4877 55.7713 29.397L55.5854 28.8683C55.5584 28.7898 55.4774 28.817 55.4774 28.817C55.2705 28.8955 54.9796 29.0315 54.3018 29.0315C53.858 29.0315 53.5281 28.8985 53.3212 28.6931C53.1083 28.4816 53.0063 28.1734 52.9883 27.7323H55.8523C55.8523 27.7323 55.9273 27.7323 55.9363 27.6598C55.9393 27.6296 56.0352 27.0676 55.8523 26.4181M53.0033 27.0223C53.0453 26.7474 53.1203 26.5208 53.2342 26.3425C53.4082 26.0736 53.6751 25.9226 54.0529 25.9226C54.4308 25.9226 54.6767 26.0706 54.8567 26.3425C54.9736 26.5208 55.0246 26.7565 55.0456 27.0223H53.0033Z" fill="white"></path><path fill-rule="evenodd" clip-rule="evenodd" d="M32.9044 26.4181C32.8324 26.1462 32.6554 25.8682 32.5385 25.7443C32.3555 25.5449 32.1756 25.4029 31.9957 25.3244C31.7618 25.2247 31.4829 25.1582 31.174 25.1582C30.8171 25.1582 30.4932 25.2186 30.2263 25.3425C29.9624 25.4664 29.7405 25.6386 29.5665 25.8501C29.3926 26.0616 29.2606 26.3123 29.1797 26.5993C29.0957 26.8833 29.0537 27.1945 29.0537 27.5208C29.0537 27.8471 29.0957 28.1644 29.1827 28.4423C29.2696 28.7233 29.4106 28.968 29.5995 29.1765C29.7885 29.3819 30.0284 29.5451 30.3193 29.6569C30.6072 29.7687 30.958 29.8261 31.3599 29.8261C32.1876 29.8261 32.6255 29.6387 32.8024 29.536C32.8354 29.5179 32.8654 29.4877 32.8264 29.397L32.6404 28.8683C32.6105 28.7898 32.5325 28.817 32.5325 28.817C32.3256 28.8955 32.0347 29.0315 31.3569 29.0315C30.9131 29.0315 30.5832 28.8985 30.3762 28.6931C30.1633 28.4816 30.0614 28.1734 30.0434 27.7323H32.9074C32.9074 27.7323 32.9823 27.7323 32.9913 27.6598C32.9943 27.6296 33.0903 27.0676 32.9044 26.4181ZM30.0554 27.0223C30.0973 26.7474 30.1693 26.5208 30.2863 26.3425C30.4632 26.0736 30.7301 25.9226 31.108 25.9226C31.4859 25.9226 31.7318 26.0706 31.9117 26.3425C32.0287 26.5208 32.0796 26.7565 32.1006 27.0223H30.0584H30.0554Z" fill="white"></path><path d="M25.0021 26.8834C24.8852 26.8744 24.7352 26.8714 24.5553 26.8714C24.3094 26.8714 24.0725 26.9016 23.8505 26.962C23.6256 27.0224 23.4247 27.1161 23.2538 27.243C23.0798 27.3699 22.9389 27.53 22.8369 27.7203C22.7349 27.9107 22.684 28.1342 22.684 28.385C22.684 28.6358 22.7289 28.8624 22.8159 29.0436C22.9029 29.2249 23.0288 29.379 23.1908 29.4968C23.3497 29.6147 23.5447 29.6993 23.7756 29.7506C24.0005 29.802 24.2554 29.8292 24.5343 29.8292C24.8282 29.8292 25.1221 29.805 25.404 29.7567C25.6859 29.7083 26.0308 29.6388 26.1267 29.6147C26.2227 29.5935 26.3277 29.5633 26.3277 29.5633C26.3967 29.5452 26.3907 29.4696 26.3907 29.4696V26.8291C26.3907 26.252 26.2347 25.823 25.9348 25.5541C25.6349 25.2882 25.1911 25.1553 24.6183 25.1553C24.4024 25.1553 24.0575 25.1855 23.8505 25.2278C23.8505 25.2278 23.2268 25.3486 22.9689 25.5511C22.9689 25.5511 22.9119 25.5873 22.9449 25.6659L23.1458 26.2157C23.1698 26.2852 23.2388 26.2641 23.2388 26.2641C23.2388 26.2641 23.2598 26.255 23.2867 26.2399C23.8386 25.9378 24.5343 25.9468 24.5343 25.9468C24.8432 25.9468 25.0831 26.0103 25.2421 26.1342C25.398 26.255 25.479 26.4363 25.479 26.823V26.9439C25.2331 26.9076 25.0051 26.8865 25.0051 26.8865M23.8655 28.9137C23.7546 28.8231 23.7366 28.8019 23.7006 28.7415C23.6436 28.6539 23.6136 28.527 23.6136 28.3669C23.6136 28.1131 23.6976 27.9318 23.8685 27.8079C23.8685 27.8079 24.1145 27.5904 24.6993 27.5995C25.1101 27.6055 25.479 27.6659 25.479 27.6659V28.9772C25.479 28.9772 25.1161 29.0557 24.7052 29.0799C24.1235 29.1162 23.8655 28.9107 23.8655 28.9107" fill="white"></path><path fill-rule="evenodd" clip-rule="evenodd" d="M48.109 25.397C48.13 25.3336 48.085 25.3003 48.067 25.2943C48.016 25.2762 47.7731 25.2248 47.5872 25.2127C47.2273 25.1885 47.0264 25.252 46.8494 25.3336C46.6725 25.4151 46.4746 25.5451 46.3636 25.6931V25.3426C46.3636 25.2943 46.3306 25.255 46.2826 25.255H45.5479C45.4999 25.255 45.4669 25.2943 45.4669 25.3426V29.6479C45.4669 29.6963 45.5029 29.7356 45.5539 29.7356H46.3066C46.3546 29.7356 46.3936 29.6963 46.3936 29.6479V27.4968C46.3936 27.2068 46.4236 26.9197 46.4866 26.7385C46.5495 26.5602 46.6335 26.4182 46.7385 26.3155C46.8434 26.2128 46.9634 26.1402 47.0923 26.101C47.2243 26.0587 47.3712 26.0466 47.4762 26.0466C47.6262 26.0466 47.7911 26.0859 47.7911 26.0859C47.8481 26.0919 47.8781 26.0587 47.8961 26.0073C47.944 25.8744 48.085 25.4786 48.112 25.4" fill="white"></path><path fill-rule="evenodd" clip-rule="evenodd" d="M41.0435 23.4029C40.9506 23.3757 40.8696 23.3546 40.7616 23.3334C40.6507 23.3153 40.5217 23.3032 40.3718 23.3032C39.856 23.3032 39.4451 23.4513 39.1602 23.7413C38.8753 24.0313 38.6804 24.4694 38.5844 25.0495L38.5484 25.2429H37.9006C37.9006 25.2429 37.8197 25.2429 37.8047 25.3275L37.6997 25.9287C37.6907 25.9861 37.7147 26.0224 37.7927 26.0224H38.4255L37.7837 29.6358C37.7327 29.9258 37.6757 30.1645 37.6127 30.3458C37.5498 30.5241 37.4898 30.657 37.4118 30.7567C37.3398 30.8504 37.2709 30.9198 37.1509 30.9621C37.0519 30.9924 36.938 31.0105 36.815 31.0105C36.7461 31.0105 36.6531 30.9984 36.5841 30.9863C36.5151 30.9742 36.4791 30.9591 36.4282 30.9349C36.4282 30.9349 36.3532 30.9078 36.3262 30.9803C36.3022 31.0437 36.1343 31.509 36.1133 31.5664C36.0923 31.6238 36.1193 31.6691 36.1583 31.6812C36.2422 31.7114 36.3052 31.7326 36.4192 31.7598C36.5781 31.796 36.7131 31.799 36.839 31.799C37.1029 31.799 37.3428 31.7628 37.5438 31.6872C37.7417 31.6147 37.9186 31.4878 38.0746 31.3156C38.2425 31.1283 38.3475 30.9349 38.4465 30.6691C38.5454 30.4062 38.6324 30.0799 38.6984 29.7023L39.3431 26.0224H40.2878C40.2878 26.0224 40.3688 26.0224 40.3838 25.9378L40.4917 25.3365C40.4977 25.2791 40.4737 25.2429 40.3988 25.2429H39.4841C39.4901 25.2217 39.5291 24.8985 39.634 24.5933C39.679 24.4604 39.763 24.3576 39.835 24.2851C39.9039 24.2126 39.9849 24.1643 40.0749 24.1341C40.1679 24.1039 40.2698 24.0918 40.3808 24.0918C40.4677 24.0918 40.5517 24.1008 40.6177 24.1159C40.7047 24.1341 40.7406 24.1462 40.7646 24.1522C40.8576 24.1824 40.8696 24.1522 40.8876 24.1069L41.1065 23.5026C41.1275 23.4362 41.0735 23.409 41.0525 23.4029" fill="white"></path><path fill-rule="evenodd" clip-rule="evenodd" d="M28.247 29.645C28.247 29.6933 28.214 29.7326 28.166 29.7326H27.4073C27.3593 29.7326 27.3263 29.6933 27.3263 29.645V23.4846C27.3263 23.4362 27.3593 23.397 27.4073 23.397H28.166C28.214 23.397 28.247 23.4362 28.247 23.4846V29.645Z" fill="white"></path><path d="M12.3317 52.1651H14.9557C16.4402 52.1651 16.995 52.3947 17.4269 52.7543C18.0567 53.28 18.3685 54.0776 18.3685 54.8964C18.3685 55.7151 18.0327 56.5792 17.5228 57.0143C16.968 57.4826 16.4282 57.7122 15.1807 57.7122H14.293V60.247H12.3317V52.1621V52.1651ZM14.293 55.9024H15.1267C15.5165 55.9024 16.4072 55.9024 16.4072 54.9296C16.4072 53.9567 15.4985 53.9809 15.0517 53.9809H14.293V55.9024Z" fill="white"></path><path d="M20.3118 59.0807L19.889 60.25H17.6877L20.9086 52.165H22.525L25.7129 60.25H23.4907L23.1008 59.0807H20.3148H20.3118ZM20.8756 57.4432H22.555L21.7303 54.6787H21.6973L20.8726 57.4432H20.8756Z" fill="white"></path><path d="M26.5406 52.165H29.0778C30.4873 52.165 31.0301 52.3403 31.5489 52.7451C32.2117 53.2708 32.5355 54.1228 32.5355 54.9506C32.5355 55.8782 32.0587 57.2438 30.5412 57.4976L32.7215 60.25H30.3793L28.526 57.6396H28.505V60.25H26.5436V52.165H26.5406ZM28.502 56.2286H29.2277C30.4303 56.2286 30.5742 55.4643 30.5742 55.0715C30.5742 54.3404 30.0434 53.9778 29.2517 53.9778H28.502V56.2286Z" fill="white"></path><path d="M34.8477 53.9778H33.2643V52.165H38.4704V53.9778H36.899V60.25H34.8477V53.9778Z" fill="white"></path><path d="M39.2982 52.165H41.0645L44.1655 57.2438L44.1864 57.2226L44.0995 52.165H46.0608V60.25H44.2824L41.2235 55.3343L41.2025 55.3464L41.2565 60.25H39.2952V52.165H39.2982Z" fill="white"></path><path d="M47.5303 52.1651H51.9867V53.9779H49.4916V55.2347H51.9087V57.0475H49.4916V58.4343H51.9867V60.247H47.5303V52.1621V52.1651Z" fill="white"></path><path d="M53.2552 52.165H55.7924C57.2019 52.165 57.7447 52.3403 58.2635 52.7451C58.9233 53.2708 59.2501 54.1228 59.2501 54.9506C59.2501 55.8782 58.7733 57.2438 57.2558 57.4976L59.4361 60.25H57.0939L55.2405 57.6396H55.2196V60.25H53.2582V52.165H53.2552ZM55.2166 56.2286H55.9423C57.1449 56.2286 57.2858 55.4643 57.2858 55.0715C57.2858 54.3404 56.755 53.9778 55.9633 53.9778H55.2136V56.2286H55.2166Z" fill="white"></path></g><defs><clipPath id="clip0_932_3367"><rect width="71" height="76" fill="white"></rect></clipPath></defs></svg>