<svg xmlns="http://www.w3.org/2000/svg" height="800" width="1200" version="1.0" viewBox="-85.03935 -26.0265 737.0077 156.159"><path d="M88.652 102.17V44.305l-24.824 57.867H50.056L25.643 44.304v57.867H0V1.936h34.329L57.911 58.53 82.59 1.936h31.7V102.17zm45.376 0V1.937h21.927c1.92 0 3.841 1.92 3.841 4.011v96.224zm96.915-57.725h32.594c2.572 0 4.025 2.105 4.025 4.577V100.8c-9.167 2.05-23.494 3.306-34.145 3.306-37.368 0-57.075-17.815-57.075-52.187C176.342 21.247 196.049 0 228.896 0c14.468 0 27.154 3.857 35.321 9.366l-10.101 17.25c-7.067-3.165-16.573-5.369-23.299-5.369-18.886 0-27.718 12.531-27.718 30.672 0 19.368 10.227 31.335 29.089 31.335 3.447 0 7.743-.128 11.176-.665V64.93h-12.42zm93.81-23.198h-12.615V46.38h12.615c7.53 0 13.45-4.012 13.45-13.548 0-9.663-5.92-11.585-13.45-11.585zm18.988 80.924L331.846 74.58c-2.431-5.623-4.128-8.406-9.285-8.406h-10.423v35.997h-25.19V5.947c0-2.09 2.289-4.011 3.927-4.011h35.56c19.324 0 35.895 4.011 35.895 28.96 0 11.175-6.184 22.62-17.786 24.937 5.78 1.963 11.602 9.366 14.751 17.404l11.459 28.934zm82.703-80.924c-13.519 0-23.14 9.65-23.14 30.672 0 21.318 9.62 30.94 23.14 30.94 11.598 0 21.092-9.622 21.092-30.94 0-21.022-9.494-30.672-21.092-30.672zm0 82.86c-32.817 0-50.182-23.184-50.182-52.188C376.262 23.17 393.626 0 426.443 0c30.743 0 48.134 23.169 48.134 51.92.001 29.002-17.392 52.186-48.133 52.186zm97.48 0c-16.952 0-32.692-6.075-39.712-10.907l11.429-20.259c6.373 3.857 18.775 9.79 30.203 9.79 6.471 0 14.651-1.243 14.651-8.434 0-6.753-9.14-8.815-21.122-12.249-14.465-4.14-31.305-9.903-31.305-29.357C488.068 11.725 506.7 0 530.947 0c16.004 0 28.409 5.664 34.739 11.725l-13.917 15.838c-6.88-4.112-13.914-7.304-21.798-7.304-9.494 0-14.862 3.603-14.862 8.843.001 5.2 6.88 7.855 15.553 10.469 15.331 4.733 36.267 9.565 36.267 29.64.001 20.683-16.531 34.895-43.005 34.895z" fill="#f60" fill-rule="evenodd"/></svg>