<?xml version="1.0" encoding="UTF-8"?>
<svg id="Layer_1" data-name="Layer 1" xmlns="http://www.w3.org/2000/svg" viewBox="0 0 512 252">
  <defs>
    <style>
      .cls-1 {
        fill: #f9c014;
      }

      .cls-1, .cls-2 {
        stroke-width: 0px;
      }

      .cls-2 {
        fill: #0a8093;
      }
    </style>
  </defs>
  <path class="cls-2" d="M62.24,138.87c-.48,5-2.45,9.05-5.93,12.14-3.48,3.09-7.97,4.63-13.48,4.63-5.98,0-10.85-1.98-14.61-5.93-3.76-3.95-5.64-9.24-5.64-15.87s1.92-12,5.76-16.12c3.84-4.12,8.98-6.18,15.41-6.18,5.17,0,9.45,1.55,12.85,4.65,3.4,3.1,5.27,6.99,5.64,11.65l-11.65.67c-.39-5.09-2.6-7.63-6.62-7.63-4.95,0-7.42,4.05-7.42,12.16,0,5.39.69,8.82,2.07,10.27,1.38,1.45,3.07,2.18,5.05,2.18,3.86,0,6.16-2.45,6.92-7.34l11.65.71Z"/>
  <path class="cls-2" d="M86.49,111.54c6.45,0,11.48,2.11,15.1,6.33,3.62,4.22,5.42,9.5,5.42,15.85s-1.88,11.48-5.63,15.66c-3.76,4.18-8.75,6.27-14.97,6.27s-10.85-2.07-14.47-6.2c-3.62-4.14-5.42-9.45-5.42-15.93,0-4.5.82-8.32,2.45-11.47,1.63-3.14,3.87-5.68,6.72-7.61,2.85-1.93,6.45-2.89,10.8-2.89ZM86.83,119.71c-2.37,0-4.15.92-5.35,2.75-1.2,1.83-1.8,5.47-1.8,10.92,0,5,.57,8.59,1.71,10.77,1.14,2.18,2.93,3.27,5.35,3.27,2.12,0,3.83-.93,5.14-2.79,1.31-1.86,1.96-5.4,1.96-10.63,0-5.56-.58-9.33-1.73-11.32-1.16-1.98-2.92-2.98-5.29-2.98Z"/>
  <path class="cls-2" d="M150.91,97.54v57.22h-11.53v-6.62c-2.85,5-6.75,7.5-11.67,7.5s-8.36-1.91-11.06-5.72c-2.7-3.81-4.05-9.1-4.05-15.87s1.35-12.56,4.05-16.54c2.7-3.98,6.61-5.97,11.74-5.97,4.51,0,7.98,1.78,10.41,5.32v-19.33h12.12ZM138.79,130.15c0-6.65-2.02-9.98-6.06-9.98-4.82,0-7.23,4.7-7.23,14.09,0,8.36,2.26,12.53,6.77,12.53,1.74,0,3.26-.75,4.56-2.26,1.3-1.51,1.96-3.66,1.96-6.46v-7.92Z"/>
  <path class="cls-2" d="M199.24,135.68h-27.25c-.03.75-.04,1.41-.04,1.97,0,3.02.8,5.3,2.41,6.83,1.61,1.54,3.53,2.31,5.76,2.31,4.16,0,6.67-2.22,7.5-6.67l11.32.84c-3.16,9.78-9.57,14.67-19.24,14.67-4.22,0-7.8-.85-10.75-2.54s-5.38-4.16-7.29-7.4c-1.91-3.24-2.87-7.13-2.87-11.65,0-6.73,1.92-12.17,5.76-16.31,3.84-4.14,8.78-6.2,14.82-6.2,5.45,0,10.12,1.92,14.02,5.76,3.9,3.84,5.85,9.97,5.85,18.38ZM171.95,128.43h15.05c-.39-5.81-2.78-8.72-7.17-8.72-4.69,0-7.32,2.91-7.88,8.72Z"/>
  <path class="cls-2" d="M238.81,122.65l-9.1,2.43c-1.06-3.83-3.81-5.74-8.26-5.74-4.19,0-6.29,1.27-6.29,3.82,0,1.01.38,1.81,1.15,2.41.77.6,2.77,1.11,6.01,1.53,4.84.64,8.41,1.38,10.73,2.21,2.32.84,4.16,2.25,5.51,4.23,1.35,1.98,2.03,4.43,2.03,7.34,0,4.36-1.66,7.91-4.97,10.65-3.31,2.74-7.94,4.11-13.9,4.11-10.79,0-17.23-4.18-19.33-12.53l10.52-1.55c.87,3.8,4,5.7,9.39,5.7,2.07,0,3.81-.37,5.24-1.11,1.43-.74,2.14-1.74,2.14-3,0-1.96-1.58-3.12-4.73-3.48-8.55-1.05-14.18-2.69-16.88-4.91s-4.04-5.32-4.04-9.29,1.56-7.35,4.7-9.98c3.13-2.63,7.52-3.94,13.16-3.94,4.47,0,8.05.88,10.73,2.64,2.68,1.76,4.74,4.58,6.16,8.47Z"/>
  <path class="cls-2" d="M284.97,138.87c-.48,5-2.45,9.05-5.93,12.14-3.48,3.09-7.97,4.63-13.48,4.63-5.98,0-10.85-1.98-14.61-5.93-3.76-3.95-5.64-9.24-5.64-15.87s1.92-12,5.76-16.12c3.84-4.12,8.98-6.18,15.41-6.18,5.17,0,9.45,1.55,12.85,4.65,3.39,3.1,5.27,6.99,5.64,11.65l-11.65.67c-.39-5.09-2.6-7.63-6.62-7.63-4.95,0-7.42,4.05-7.42,12.16,0,5.39.69,8.82,2.08,10.27,1.38,1.45,3.07,2.18,5.05,2.18,3.86,0,6.16-2.45,6.92-7.34l11.65.71Z"/>
  <rect class="cls-1" x="291.67" y="96.36" width="12.49" height="8.63"/>
  <polygon class="cls-2" points="304.17 117.99 304.17 154.76 291.67 154.76 291.67 104.99 304.17 117.99"/>
  <path class="cls-2" d="M352.46,135.68h-27.25c-.03.75-.04,1.41-.04,1.97,0,3.02.8,5.3,2.41,6.83,1.61,1.54,3.53,2.31,5.77,2.31,4.16,0,6.67-2.22,7.5-6.67l11.32.84c-3.16,9.78-9.57,14.67-19.24,14.67-4.22,0-7.8-.85-10.75-2.54s-5.38-4.16-7.29-7.4c-1.91-3.24-2.87-7.13-2.87-11.65,0-6.73,1.92-12.17,5.76-16.31,3.84-4.14,8.78-6.2,14.82-6.2,5.45,0,10.12,1.92,14.02,5.76,3.9,3.84,5.85,9.97,5.85,18.38ZM325.17,128.43h15.05c-.39-5.81-2.78-8.72-7.17-8.72-4.7,0-7.32,2.91-7.88,8.72Z"/>
  <path class="cls-2" d="M397.15,154.76h-12.49v-23.77c0-2.88-.11-4.85-.34-5.91-.22-1.06-.77-1.96-1.63-2.7-.87-.74-1.96-1.11-3.27-1.11-4.39,0-6.58,3.24-6.58,9.73v23.77h-12.49v-42.34h11.61v7.17c1.93-3.41,3.83-5.6,5.7-6.58,1.87-.98,3.9-1.47,6.08-1.47,4.03,0,7.27,1.08,9.73,3.25,2.46,2.17,3.69,6.42,3.69,12.76v27.21Z"/>
  <path class="cls-2" d="M444.68,138.87c-.47,5-2.45,9.05-5.93,12.14-3.48,3.09-7.97,4.63-13.48,4.63-5.98,0-10.85-1.98-14.61-5.93-3.76-3.95-5.64-9.24-5.64-15.87s1.92-12,5.76-16.12c3.84-4.12,8.98-6.18,15.41-6.18,5.17,0,9.45,1.55,12.85,4.65,3.4,3.1,5.27,6.99,5.64,11.65l-11.65.67c-.39-5.09-2.6-7.63-6.62-7.63-4.95,0-7.42,4.05-7.42,12.16,0,5.39.69,8.82,2.08,10.27,1.38,1.45,3.07,2.18,5.05,2.18,3.86,0,6.16-2.45,6.92-7.34l11.65.71Z"/>
  <path class="cls-2" d="M489.41,135.68h-27.25c-.03.75-.04,1.41-.04,1.97,0,3.02.8,5.3,2.41,6.83,1.61,1.54,3.53,2.31,5.76,2.31,4.16,0,6.67-2.22,7.5-6.67l11.32.84c-3.16,9.78-9.57,14.67-19.24,14.67-4.22,0-7.8-.85-10.75-2.54s-5.38-4.16-7.29-7.4c-1.91-3.24-2.87-7.13-2.87-11.65,0-6.73,1.92-12.17,5.76-16.31,3.84-4.14,8.78-6.2,14.82-6.2,5.45,0,10.12,1.92,14.02,5.76,3.9,3.84,5.85,9.97,5.85,18.38ZM462.12,128.43h15.05c-.39-5.81-2.78-8.72-7.17-8.72-4.69,0-7.32,2.91-7.88,8.72Z"/>
</svg>