<svg xmlns="http://www.w3.org/2000/svg" width="40" height="40" viewBox="0 0 40 40" fill="none"><path d="M13.347 35.3683C11.071 32.0624 9.73203 28.0404 9.73203 23.6978C9.73203 18.0738 14.209 13.5155 19.7315 13.5155C25.254 13.5155 29.731 18.0738 29.731 23.6978M30.2728 33.8528C30.0928 33.8629 29.916 33.8799 29.7343 33.8799C24.2118 33.8799 19.7348 29.3216 19.7348 23.6978M21.8123 36.6664C17.5637 33.9699 14.7341 29.1706 14.7341 23.6978C14.7341 20.8858 16.9735 18.6066 19.7347 18.6066C22.4958 18.6066 24.7352 20.8858 24.7352 23.6978C24.7352 26.5098 26.9745 28.7888 29.7358 28.7888C32.497 28.7888 34.7363 26.5098 34.7363 23.6978C34.7363 15.2617 28.02 8.42437 19.7363 8.42437C11.4526 8.42437 4.73633 15.2617 4.73633 23.6978C4.73633 25.5781 4.94308 27.4091 5.32324 29.1741M33.695 9.7718C30.2852 5.82959 25.2997 3.33325 19.7338 3.33325C14.168 3.33325 9.18244 5.82959 5.77259 9.7718" stroke="#FF83A9" stroke-width="3" stroke-linecap="round" stroke-linejoin="round"></path></svg>