<svg xmlns="http://www.w3.org/2000/svg" width="24" height="18" viewBox="0 0 24 18" fill="none"><g clip-path="url(#clip0_1729_12269)"><path d="M0 0H24V18H0" fill="#BD3D44"></path><path d="M0 2.07422H24H0ZM0 4.83797H24H0ZM0 7.61297H24H0ZM0 10.388H24H0ZM0 13.163H24H0ZM0 15.938H24H0Z" fill="black"></path><path fill-rule="evenodd" clip-rule="evenodd" d="M24 2.76738H0V1.37988H24V2.76738ZM24 5.53113H0V4.14363H24V5.53113ZM24 8.30613H0V6.91863H24V8.30613ZM24 11.0811H0V9.69363H24V11.0811ZM24 13.8561H0V12.4686H24V13.8561ZM24 16.6311H0V15.2436H24V16.6311Z" fill="white"></path><path d="M0 0H13.68V9.69375H0" fill="#192F5D"></path></g><defs><clipPath id="clip0_1729_12269"><rect width="24" height="18" fill="white"></rect></clipPath></defs></svg>