<svg xmlns="http://www.w3.org/2000/svg" width="80" height="60" viewBox="0 0 80 60" fill="none"><g clip-path="url(#clip0_1887_16095)"><path d="M0 0H80V60H0V0Z" fill="#74ACDF"></path><path d="M0 20H80V40H0V20Z" fill="white"></path><path d="M39.6162 30.156L43.0362 37.596C43.0362 37.596 43.0962 37.74 43.1922 37.704C43.2882 37.656 43.2282 37.512 43.2282 37.512L40.3842 29.832M40.3002 32.736C40.2522 33.864 40.9482 34.488 40.8642 35.496C40.7682 36.516 41.3202 37.08 41.4642 37.476C41.5842 37.872 41.3202 38.1 41.4282 38.16C41.5482 38.22 41.7882 37.908 41.7162 37.344C41.6322 36.792 41.2122 36.624 41.3082 35.388C41.4042 34.152 40.8042 33.864 40.9482 32.748" fill="#F6B40E"></path><path d="M39.6162 30.156L43.0362 37.596C43.0362 37.596 43.0962 37.74 43.1922 37.704C43.2882 37.656 43.2282 37.512 43.2282 37.512L40.3842 29.832M40.3002 32.736C40.2522 33.864 40.9482 34.488 40.8642 35.496C40.7682 36.516 41.3202 37.08 41.4642 37.476C41.5842 37.872 41.3202 38.1 41.4282 38.16C41.5482 38.22 41.7882 37.908 41.7162 37.344C41.6322 36.792 41.2122 36.624 41.3082 35.388C41.4042 34.152 40.8042 33.864 40.9482 32.748" stroke="#85340A" stroke-width="0.132"></path><path d="M39.5855 29.9971L39.898 38.1795C39.898 38.1795 39.8983 38.3355 40.0008 38.339C40.1078 38.3314 40.1075 38.1754 40.1075 38.1754L40.419 29.9917M39.2301 32.6425C38.7541 33.6662 39.1583 34.5091 38.695 35.4082C38.2159 36.3138 38.5101 37.0461 38.4916 37.4671C38.4509 37.8789 38.1197 37.9885 38.1966 38.0852C38.2845 38.1866 38.6256 37.9902 38.7749 37.4416C38.9085 36.8994 38.5848 36.5835 39.1465 35.4783C39.7082 34.3732 39.2641 33.8775 39.8242 32.9015" fill="#F6B40E"></path><path d="M39.5855 29.9971L39.898 38.1795C39.898 38.1795 39.8983 38.3355 40.0008 38.339C40.1078 38.3314 40.1075 38.1754 40.1075 38.1754L40.419 29.9917M39.2301 32.6425C38.7541 33.6662 39.1583 34.5091 38.695 35.4082C38.2159 36.3138 38.5101 37.0461 38.4916 37.4671C38.4509 37.8789 38.1197 37.9885 38.1966 38.0852C38.2845 38.1866 38.6256 37.9902 38.7749 37.4416C38.9085 36.8994 38.5848 36.5835 39.1465 35.4783C39.7082 34.3732 39.2641 33.8775 39.8242 32.9015" stroke="#85340A" stroke-width="0.132"></path><path d="M39.6186 29.839L36.776 37.5181C36.776 37.5181 36.7166 37.6624 36.8099 37.7048C36.9118 37.7388 36.9711 37.5945 36.9711 37.5945L40.3907 30.1529M38.2779 32.147C37.4463 32.9106 37.4972 33.844 36.7251 34.4974C35.9359 35.1508 35.9275 35.9399 35.7493 36.3217C35.5541 36.6866 35.2062 36.6611 35.2401 36.7799C35.2826 36.9072 35.6729 36.8563 36.0208 36.4066C36.3517 35.9569 36.1735 35.5411 37.1154 34.735C38.0573 33.9289 37.8366 33.301 38.7276 32.6137" fill="#F6B40E"></path><path d="M39.6186 29.839L36.776 37.5181C36.776 37.5181 36.7166 37.6624 36.8099 37.7048C36.9118 37.7388 36.9711 37.5945 36.9711 37.5945L40.3907 30.1529M38.2779 32.147C37.4463 32.9106 37.4972 33.844 36.7251 34.4974C35.9359 35.1508 35.9275 35.9399 35.7493 36.3217C35.5541 36.6866 35.2062 36.6611 35.2401 36.7799C35.2826 36.9072 35.6729 36.8563 36.0208 36.4066C36.3517 35.9569 36.1735 35.5411 37.1154 34.735C38.0573 33.9289 37.8366 33.301 38.7276 32.6137" stroke="#85340A" stroke-width="0.132"></path><path d="M39.709 29.705L34.1441 35.7119C34.1441 35.7119 34.034 35.8224 34.104 35.8973C34.1851 35.9677 34.2952 35.8571 34.2952 35.8571L40.3022 30.2906M37.5871 31.3243C36.5266 31.7116 36.2165 32.5934 35.253 32.9016C34.2739 33.2032 33.9641 33.929 33.6534 34.2136C33.3334 34.476 33.0218 34.3194 33.0077 34.4421C32.9981 34.5759 33.3782 34.6783 33.8718 34.3959C34.3496 34.1071 34.3441 33.6548 35.5227 33.2704C36.7014 32.8861 36.7378 32.2216 37.824 31.9276" fill="#F6B40E"></path><path d="M39.709 29.705L34.1441 35.7119C34.1441 35.7119 34.034 35.8224 34.104 35.8973C34.1851 35.9677 34.2952 35.8571 34.2952 35.8571L40.3022 30.2906M37.5871 31.3243C36.5266 31.7116 36.2165 32.5934 35.253 32.9016C34.2739 33.2032 33.9641 33.929 33.6534 34.2136C33.3334 34.476 33.0218 34.3194 33.0077 34.4421C32.9981 34.5759 33.3782 34.6783 33.8718 34.3959C34.3496 34.1071 34.3441 33.6548 35.5227 33.2704C36.7014 32.8861 36.7378 32.2216 37.824 31.9276" stroke="#85340A" stroke-width="0.132"></path><path d="M40.5161 32.9282C40.5761 34.0082 41.1881 34.4882 41.0681 35.4842C41.3321 34.7042 40.6961 34.0922 40.7321 32.9402M39.8081 30.0842L42.1481 35.1962L40.1921 29.9282" fill="#85340A"></path><path d="M39.3566 32.9029C38.9988 33.9237 39.3805 34.6013 38.8885 35.4756C39.4309 34.856 39.0775 34.0472 39.5516 32.9967M39.7909 30.0045L39.9965 35.6228L40.2054 30.0073" fill="#85340A"></path><path d="M38.2948 32.4354C37.5736 33.2415 37.6669 34.0137 36.8778 34.6331C37.616 34.2683 37.599 33.3858 38.4391 32.5967M39.8052 29.9238L37.8451 35.1931L40.1871 30.085" fill="#85340A"></path><path d="M37.4925 31.5976C36.5176 32.0663 36.3084 32.8154 35.3423 33.0857C36.1639 33.0311 36.486 32.2093 37.564 31.8017M39.849 29.8551L36.0216 33.9733L40.1401 30.1502" fill="#85340A"></path><path d="M39.844 29.6162L32.404 33.0362C32.404 33.0362 32.26 33.0962 32.296 33.1922C32.344 33.2882 32.488 33.2282 32.488 33.2282L40.168 30.3842M37.264 30.3002C36.136 30.2522 35.512 30.9482 34.504 30.8642C33.484 30.7682 32.92 31.3202 32.524 31.4642C32.128 31.5842 31.9 31.3202 31.84 31.4282C31.78 31.5482 32.092 31.7882 32.656 31.7162C33.208 31.6322 33.376 31.2122 34.612 31.3082C35.848 31.4042 36.136 30.8042 37.252 30.9482" fill="#F6B40E"></path><path d="M39.844 29.6162L32.404 33.0362C32.404 33.0362 32.26 33.0962 32.296 33.1922C32.344 33.2882 32.488 33.2282 32.488 33.2282L40.168 30.3842M37.264 30.3002C36.136 30.2522 35.512 30.9482 34.504 30.8642C33.484 30.7682 32.92 31.3202 32.524 31.4642C32.128 31.5842 31.9 31.3202 31.84 31.4282C31.78 31.5482 32.092 31.7882 32.656 31.7162C33.208 31.6322 33.376 31.2122 34.612 31.3082C35.848 31.4042 36.136 30.8042 37.252 30.9482" stroke="#85340A" stroke-width="0.132"></path><path d="M40.0029 29.5855L31.8205 29.898C31.8205 29.898 31.6645 29.8983 31.661 30.0008C31.6686 30.1078 31.8246 30.1075 31.8246 30.1075L40.0083 30.419M37.3575 29.2301C36.3338 28.7541 35.4909 29.1583 34.5918 28.695C33.6862 28.2159 32.9539 28.5101 32.5329 28.4916C32.1211 28.4509 32.0115 28.1197 31.9148 28.1966C31.8134 28.2845 32.0098 28.6256 32.5584 28.7749C33.1006 28.9085 33.4165 28.5848 34.5217 29.1465C35.6268 29.7082 36.1225 29.2641 37.0985 29.8242" fill="#F6B40E"></path><path d="M40.0029 29.5855L31.8205 29.898C31.8205 29.898 31.6645 29.8983 31.661 30.0008C31.6686 30.1078 31.8246 30.1075 31.8246 30.1075L40.0083 30.419M37.3575 29.2301C36.3338 28.7541 35.4909 29.1583 34.5918 28.695C33.6862 28.2159 32.9539 28.5101 32.5329 28.4916C32.1211 28.4509 32.0115 28.1197 31.9148 28.1966C31.8134 28.2845 32.0098 28.6256 32.5584 28.7749C33.1006 28.9085 33.4165 28.5848 34.5217 29.1465C35.6268 29.7082 36.1225 29.2641 37.0985 29.8242" stroke="#85340A" stroke-width="0.132"></path><path d="M40.161 29.6186L32.4819 26.776C32.4819 26.776 32.3376 26.7166 32.2952 26.8099C32.2612 26.9118 32.4055 26.9711 32.4055 26.9711L39.8471 30.3907M37.853 28.2779C37.0894 27.4463 36.156 27.4972 35.5026 26.7251C34.8492 25.9359 34.0601 25.9275 33.6783 25.7493C33.3134 25.5541 33.3389 25.2062 33.2201 25.2401C33.0928 25.2826 33.1437 25.6729 33.5934 26.0208C34.0431 26.3517 34.4589 26.1735 35.265 27.1154C36.0711 28.0573 36.699 27.8366 37.3863 28.7276" fill="#F6B40E"></path><path d="M40.161 29.6186L32.4819 26.776C32.4819 26.776 32.3376 26.7166 32.2952 26.8099C32.2612 26.9118 32.4055 26.9711 32.4055 26.9711L39.8471 30.3907M37.853 28.2779C37.0894 27.4463 36.156 27.4972 35.5026 26.7251C34.8492 25.9359 34.0601 25.9275 33.6783 25.7493C33.3134 25.5541 33.3389 25.2062 33.2201 25.2401C33.0928 25.2826 33.1437 25.6729 33.5934 26.0208C34.0431 26.3517 34.4589 26.1735 35.265 27.1154C36.0711 28.0573 36.699 27.8366 37.3863 28.7276" stroke="#85340A" stroke-width="0.132"></path><path d="M40.295 29.709L34.2881 24.1441C34.2881 24.1441 34.1776 24.034 34.1027 24.104C34.0323 24.1851 34.1429 24.2952 34.1429 24.2952L39.7094 30.3022M38.6757 27.5871C38.2884 26.5266 37.4066 26.2165 37.0984 25.253C36.7968 24.2739 36.071 23.9641 35.7864 23.6534C35.524 23.3334 35.6806 23.0218 35.5579 23.0077C35.4241 22.9981 35.3217 23.3782 35.6041 23.8718C35.8929 24.3496 36.3452 24.3441 36.7296 25.5227C37.1139 26.7014 37.7784 26.7378 38.0724 27.824" fill="#F6B40E"></path><path d="M40.295 29.709L34.2881 24.1441C34.2881 24.1441 34.1776 24.034 34.1027 24.104C34.0323 24.1851 34.1429 24.2952 34.1429 24.2952L39.7094 30.3022M38.6757 27.5871C38.2884 26.5266 37.4066 26.2165 37.0984 25.253C36.7968 24.2739 36.071 23.9641 35.7864 23.6534C35.524 23.3334 35.6806 23.0218 35.5579 23.0077C35.4241 22.9981 35.3217 23.3782 35.6041 23.8718C35.8929 24.3496 36.3452 24.3441 36.7296 25.5227C37.1139 26.7014 37.7784 26.7378 38.0724 27.824" stroke="#85340A" stroke-width="0.132"></path><path d="M37.0718 30.5161C35.9918 30.5761 35.5118 31.1881 34.5158 31.0681C35.2958 31.3321 35.9078 30.6961 37.0598 30.7321M39.9158 29.8081L34.8038 32.1481L40.0718 30.1921" fill="#85340A"></path><path d="M37.0971 29.3566C36.0763 28.9988 35.3987 29.3805 34.5244 28.8885C35.144 29.4309 35.9528 29.0775 37.0033 29.5516M39.9955 29.7909L34.3772 29.9965L39.9927 30.2054" fill="#85340A"></path><path d="M37.5646 28.2948C36.7585 27.5736 35.9863 27.6669 35.3669 26.8778C35.7317 27.616 36.6142 27.599 37.4033 28.4391M40.0762 29.8052L34.8069 27.8451L39.915 30.1871" fill="#85340A"></path><path d="M38.4024 27.4925C37.9337 26.5176 37.1846 26.3084 36.9143 25.3423C36.9689 26.1639 37.7907 26.486 38.1983 27.564M40.1449 29.849L36.0267 26.0216L39.8498 30.1401" fill="#85340A"></path><path d="M40.3838 29.844L36.9638 22.404C36.9638 22.404 36.9038 22.26 36.8078 22.296C36.7118 22.344 36.7718 22.488 36.7718 22.488L39.6158 30.168M39.6998 27.264C39.7478 26.136 39.0518 25.512 39.1358 24.504C39.2318 23.484 38.6798 22.92 38.5358 22.524C38.4158 22.128 38.6798 21.9 38.5718 21.84C38.4518 21.78 38.2118 22.092 38.2838 22.656C38.3678 23.208 38.7878 23.376 38.6918 24.612C38.5958 25.848 39.1958 26.136 39.0518 27.252" fill="#F6B40E"></path><path d="M40.3838 29.844L36.9638 22.404C36.9638 22.404 36.9038 22.26 36.8078 22.296C36.7118 22.344 36.7718 22.488 36.7718 22.488L39.6158 30.168M39.6998 27.264C39.7478 26.136 39.0518 25.512 39.1358 24.504C39.2318 23.484 38.6798 22.92 38.5358 22.524C38.4158 22.128 38.6798 21.9 38.5718 21.84C38.4518 21.78 38.2118 22.092 38.2838 22.656C38.3678 23.208 38.7878 23.376 38.6918 24.612C38.5958 25.848 39.1958 26.136 39.0518 27.252" stroke="#85340A" stroke-width="0.132"></path><path d="M40.4145 30.0029L40.102 21.8205C40.102 21.8205 40.1017 21.6645 39.9992 21.661C39.8922 21.6686 39.8925 21.8246 39.8925 21.8246L39.581 30.0083M40.7699 27.3575C41.2459 26.3338 40.8417 25.4909 41.305 24.5918C41.7841 23.6862 41.4899 22.9539 41.5084 22.5329C41.5491 22.1211 41.8803 22.0115 41.8034 21.9148C41.7155 21.8134 41.3744 22.0098 41.2251 22.5584C41.0915 23.1006 41.4152 23.4165 40.8535 24.5217C40.2918 25.6268 40.7359 26.1225 40.1758 27.0985" fill="#F6B40E"></path><path d="M40.4145 30.0029L40.102 21.8205C40.102 21.8205 40.1017 21.6645 39.9992 21.661C39.8922 21.6686 39.8925 21.8246 39.8925 21.8246L39.581 30.0083M40.7699 27.3575C41.2459 26.3338 40.8417 25.4909 41.305 24.5918C41.7841 23.6862 41.4899 22.9539 41.5084 22.5329C41.5491 22.1211 41.8803 22.0115 41.8034 21.9148C41.7155 21.8134 41.3744 22.0098 41.2251 22.5584C41.0915 23.1006 41.4152 23.4165 40.8535 24.5217C40.2918 25.6268 40.7359 26.1225 40.1758 27.0985" stroke="#85340A" stroke-width="0.132"></path><path d="M40.3814 30.161L43.224 22.4819C43.224 22.4819 43.2834 22.3376 43.1901 22.2952C43.0882 22.2612 43.0289 22.4055 43.0289 22.4055L39.6093 29.8471M41.7221 27.853C42.5537 27.0894 42.5028 26.156 43.2749 25.5026C44.0641 24.8492 44.0725 24.0601 44.2507 23.6783C44.4459 23.3134 44.7938 23.3389 44.7599 23.2201C44.7174 23.0928 44.3271 23.1437 43.9792 23.5934C43.6483 24.0431 43.8265 24.4589 42.8846 25.265C41.9427 26.0711 42.1634 26.699 41.2724 27.3863" fill="#F6B40E"></path><path d="M40.3814 30.161L43.224 22.4819C43.224 22.4819 43.2834 22.3376 43.1901 22.2952C43.0882 22.2612 43.0289 22.4055 43.0289 22.4055L39.6093 29.8471M41.7221 27.853C42.5537 27.0894 42.5028 26.156 43.2749 25.5026C44.0641 24.8492 44.0725 24.0601 44.2507 23.6783C44.4459 23.3134 44.7938 23.3389 44.7599 23.2201C44.7174 23.0928 44.3271 23.1437 43.9792 23.5934C43.6483 24.0431 43.8265 24.4589 42.8846 25.265C41.9427 26.0711 42.1634 26.699 41.2724 27.3863" stroke="#85340A" stroke-width="0.132"></path><path d="M40.291 30.295L45.8559 24.2881C45.8559 24.2881 45.966 24.1776 45.896 24.1027C45.8149 24.0323 45.7048 24.1429 45.7048 24.1429L39.6978 29.7094M42.4129 28.6757C43.4734 28.2884 43.7835 27.4066 44.747 27.0984C45.7261 26.7968 46.0359 26.071 46.3466 25.7864C46.6666 25.524 46.9782 25.6806 46.9923 25.5579C47.0019 25.4241 46.6218 25.3217 46.1282 25.6041C45.6504 25.8929 45.6559 26.3452 44.4773 26.7296C43.2986 27.1139 43.2622 27.7784 42.176 28.0724" fill="#F6B40E"></path><path d="M40.291 30.295L45.8559 24.2881C45.8559 24.2881 45.966 24.1776 45.896 24.1027C45.8149 24.0323 45.7048 24.1429 45.7048 24.1429L39.6978 29.7094M42.4129 28.6757C43.4734 28.2884 43.7835 27.4066 44.747 27.0984C45.7261 26.7968 46.0359 26.071 46.3466 25.7864C46.6666 25.524 46.9782 25.6806 46.9923 25.5579C47.0019 25.4241 46.6218 25.3217 46.1282 25.6041C45.6504 25.8929 45.6559 26.3452 44.4773 26.7296C43.2986 27.1139 43.2622 27.7784 42.176 28.0724" stroke="#85340A" stroke-width="0.132"></path><path d="M39.4839 27.0718C39.4239 25.9918 38.8119 25.5118 38.9319 24.5158C38.6679 25.2958 39.3039 25.9078 39.2679 27.0598M40.1919 29.9158L37.8519 24.8038L39.8079 30.0718" fill="#85340A"></path><path d="M40.6434 27.0971C41.0012 26.0763 40.6195 25.3987 41.1115 24.5244C40.5691 25.144 40.9225 25.9528 40.4484 27.0033M40.2091 29.9955L40.0035 24.3772L39.7946 29.9927" fill="#85340A"></path><path d="M41.7052 27.5646C42.4264 26.7585 42.3331 25.9863 43.1222 25.3669C42.384 25.7317 42.401 26.6142 41.5609 27.4033M40.1948 30.0762L42.1549 24.8069L39.8129 29.915" fill="#85340A"></path><path d="M42.5075 28.4024C43.4824 27.9337 43.6916 27.1846 44.6577 26.9143C43.8361 26.9689 43.514 27.7907 42.436 28.1983M40.151 30.1449L43.9784 26.0267L39.8599 29.8498" fill="#85340A"></path><path d="M40.156 30.3838L47.596 26.9638C47.596 26.9638 47.74 26.9038 47.704 26.8078C47.656 26.7118 47.512 26.7718 47.512 26.7718L39.832 29.6158M42.736 29.6998C43.864 29.7478 44.488 29.0518 45.496 29.1358C46.516 29.2318 47.08 28.6798 47.476 28.5358C47.872 28.4158 48.1 28.6798 48.16 28.5718C48.22 28.4518 47.908 28.2118 47.344 28.2838C46.792 28.3678 46.624 28.7878 45.388 28.6918C44.152 28.5958 43.864 29.1958 42.748 29.0518" fill="#F6B40E"></path><path d="M40.156 30.3838L47.596 26.9638C47.596 26.9638 47.74 26.9038 47.704 26.8078C47.656 26.7118 47.512 26.7718 47.512 26.7718L39.832 29.6158M42.736 29.6998C43.864 29.7478 44.488 29.0518 45.496 29.1358C46.516 29.2318 47.08 28.6798 47.476 28.5358C47.872 28.4158 48.1 28.6798 48.16 28.5718C48.22 28.4518 47.908 28.2118 47.344 28.2838C46.792 28.3678 46.624 28.7878 45.388 28.6918C44.152 28.5958 43.864 29.1958 42.748 29.0518" stroke="#85340A" stroke-width="0.132"></path><path d="M39.9971 30.4145L48.1795 30.102C48.1795 30.102 48.3355 30.1017 48.339 29.9992C48.3314 29.8922 48.1754 29.8925 48.1754 29.8925L39.9917 29.581M42.6425 30.7699C43.6662 31.2459 44.5091 30.8417 45.4082 31.305C46.3138 31.7841 47.0461 31.4899 47.4671 31.5084C47.8789 31.5491 47.9885 31.8803 48.0852 31.8034C48.1866 31.7155 47.9902 31.3744 47.4416 31.2251C46.8994 31.0915 46.5835 31.4152 45.4783 30.8535C44.3732 30.2918 43.8775 30.7359 42.9015 30.1758" fill="#F6B40E"></path><path d="M39.9971 30.4145L48.1795 30.102C48.1795 30.102 48.3355 30.1017 48.339 29.9992C48.3314 29.8922 48.1754 29.8925 48.1754 29.8925L39.9917 29.581M42.6425 30.7699C43.6662 31.2459 44.5091 30.8417 45.4082 31.305C46.3138 31.7841 47.0461 31.4899 47.4671 31.5084C47.8789 31.5491 47.9885 31.8803 48.0852 31.8034C48.1866 31.7155 47.9902 31.3744 47.4416 31.2251C46.8994 31.0915 46.5835 31.4152 45.4783 30.8535C44.3732 30.2918 43.8775 30.7359 42.9015 30.1758" stroke="#85340A" stroke-width="0.132"></path><path d="M39.839 30.3814L47.5181 33.224C47.5181 33.224 47.6624 33.2834 47.7048 33.1901C47.7388 33.0882 47.5945 33.0289 47.5945 33.0289L40.1529 29.6093M42.147 31.7221C42.9106 32.5537 43.844 32.5028 44.4974 33.2749C45.1508 34.0641 45.9399 34.0725 46.3217 34.2507C46.6866 34.4459 46.6611 34.7938 46.7799 34.7599C46.9072 34.7174 46.8563 34.3271 46.4066 33.9792C45.9569 33.6483 45.5411 33.8265 44.735 32.8846C43.9289 31.9427 43.301 32.1634 42.6137 31.2724" fill="#F6B40E"></path><path d="M39.839 30.3814L47.5181 33.224C47.5181 33.224 47.6624 33.2834 47.7048 33.1901C47.7388 33.0882 47.5945 33.0289 47.5945 33.0289L40.1529 29.6093M42.147 31.7221C42.9106 32.5537 43.844 32.5028 44.4974 33.2749C45.1508 34.0641 45.9399 34.0725 46.3217 34.2507C46.6866 34.4459 46.6611 34.7938 46.7799 34.7599C46.9072 34.7174 46.8563 34.3271 46.4066 33.9792C45.9569 33.6483 45.5411 33.8265 44.735 32.8846C43.9289 31.9427 43.301 32.1634 42.6137 31.2724" stroke="#85340A" stroke-width="0.132"></path><path d="M39.705 30.291L45.7119 35.8559C45.7119 35.8559 45.8224 35.966 45.8973 35.896C45.9677 35.8149 45.8571 35.7048 45.8571 35.7048L40.2906 29.6978M41.3243 32.4129C41.7116 33.4734 42.5934 33.7835 42.9016 34.747C43.2032 35.7261 43.929 36.0359 44.2136 36.3466C44.476 36.6666 44.3194 36.9782 44.4421 36.9923C44.5759 37.0019 44.6783 36.6218 44.3959 36.1282C44.1071 35.6504 43.6548 35.6559 43.2704 34.4773C42.8861 33.2986 42.2216 33.2622 41.9276 32.176" fill="#F6B40E"></path><path d="M39.705 30.291L45.7119 35.8559C45.7119 35.8559 45.8224 35.966 45.8973 35.896C45.9677 35.8149 45.8571 35.7048 45.8571 35.7048L40.2906 29.6978M41.3243 32.4129C41.7116 33.4734 42.5934 33.7835 42.9016 34.747C43.2032 35.7261 43.929 36.0359 44.2136 36.3466C44.476 36.6666 44.3194 36.9782 44.4421 36.9923C44.5759 37.0019 44.6783 36.6218 44.3959 36.1282C44.1071 35.6504 43.6548 35.6559 43.2704 34.4773C42.8861 33.2986 42.2216 33.2622 41.9276 32.176" stroke="#85340A" stroke-width="0.132"></path><path d="M42.9282 29.4839C44.0082 29.4239 44.4882 28.8119 45.4842 28.9319C44.7042 28.6679 44.0922 29.3039 42.9402 29.2679M40.0842 30.1919L45.1962 27.8519L39.9282 29.8079" fill="#85340A"></path><path d="M42.9029 30.6434C43.9237 31.0012 44.6013 30.6195 45.4756 31.1115C44.856 30.5691 44.0472 30.9225 42.9967 30.4484M40.0045 30.2091L45.6228 30.0035L40.0073 29.7946" fill="#85340A"></path><path d="M42.4354 31.7052C43.2415 32.4264 44.0137 32.3331 44.6331 33.1222C44.2683 32.384 43.3858 32.401 42.5967 31.5609M39.9238 30.1948L45.1931 32.1549L40.085 29.8129" fill="#85340A"></path><path d="M41.5976 32.5075C42.0663 33.4824 42.8154 33.6916 43.0857 34.6577C43.0311 33.8361 42.2093 33.514 41.8017 32.436M39.8551 30.151L43.9733 33.9784L40.1502 29.8599" fill="#85340A"></path><path d="M40.0001 33.3376C41.8433 33.3376 43.3376 31.8433 43.3376 30.0001C43.3376 28.1568 41.8433 26.6626 40.0001 26.6626C38.1568 26.6626 36.6626 28.1568 36.6626 30.0001C36.6626 31.8433 38.1568 33.3376 40.0001 33.3376Z" fill="#F6B40E" stroke="#85340A" stroke-width="0.175"></path><path d="M41.125 29.2876C40.9125 29.2876 40.6875 29.3876 40.5625 29.5876C40.8125 29.8251 41.3875 29.8376 41.775 29.5626C41.6931 29.4757 41.5943 29.4065 41.4847 29.3592C41.3751 29.3119 41.2569 29.2875 41.1375 29.2876H41.125ZM41.125 29.3376C41.35 29.3376 41.5625 29.4376 41.5875 29.5376C41.3375 29.8251 40.925 29.7876 40.6625 29.5876C40.7875 29.4126 40.9625 29.3376 41.1375 29.3376H41.125Z" fill="#843511"></path><path d="M41.1749 29.125C40.8374 29.125 40.7624 29.2 40.6124 29.3375C40.4624 29.4625 40.3749 29.4375 40.3624 29.4625C40.3249 29.4875 40.3624 29.5625 40.3999 29.5375C40.4624 29.5125 40.5624 29.4625 40.7124 29.3375C40.8624 29.2125 41.0249 29.2125 41.1749 29.2125C41.6374 29.2125 41.8874 29.5875 41.9374 29.5625C41.9999 29.5375 41.6874 29.125 41.1749 29.125Z" fill="#85340A"></path><path d="M42.1001 29.2876C41.5126 28.7751 40.7626 28.6876 40.3501 29.0751C40.2551 29.2001 40.1909 29.3457 40.1626 29.5001C40.1126 29.8001 40.2001 30.1126 40.4251 30.4376L40.3251 30.4876C40.1251 30.1001 40.0501 29.7001 40.1251 29.3126L40.2001 29.0251C40.7626 28.5626 41.5376 28.5251 42.1001 29.2751V29.2876Z" fill="#85340A"></path><path d="M41.1249 29.7625C41.2492 29.7625 41.3499 29.6618 41.3499 29.5375C41.3499 29.4132 41.2492 29.3125 41.1249 29.3125C41.0006 29.3125 40.8999 29.4132 40.8999 29.5375C40.8999 29.6618 41.0006 29.7625 41.1249 29.7625Z" fill="#85340A"></path><path d="M41.7876 29.6877C41.3501 30.0252 40.9126 30.0002 40.6626 29.8502C40.4126 29.6877 40.4126 29.6377 40.4626 29.6377C40.5126 29.6377 40.5626 29.6877 40.7626 29.8002C40.9751 29.9002 41.2751 29.9002 41.7876 29.6877Z" fill="#85340A"></path><path d="M39.4999 30.4624C39.4652 30.4706 39.4329 30.487 39.4057 30.5101C39.3786 30.5332 39.3573 30.5625 39.3437 30.5955C39.33 30.6285 39.3245 30.6642 39.3274 30.6998C39.3303 30.7354 39.3416 30.7697 39.3605 30.8C39.3793 30.8304 39.405 30.8558 39.4356 30.8742C39.4662 30.8926 39.5007 30.9034 39.5363 30.9059C39.5719 30.9083 39.6076 30.9022 39.6404 30.8881C39.6732 30.8741 39.7021 30.8524 39.7249 30.8249C39.8073 30.8761 39.9029 30.9021 39.9999 30.8999H40.0249C40.0999 30.8999 40.2249 30.8874 40.3124 30.8249C40.3499 30.8874 40.4249 30.9124 40.4999 30.9124C40.5596 30.9174 40.6188 30.8984 40.6645 30.8598C40.7102 30.8211 40.7387 30.7658 40.7437 30.7062C40.7486 30.6465 40.7297 30.5873 40.691 30.5416C40.6523 30.4958 40.5971 30.4674 40.5374 30.4624C40.5999 30.4874 40.6374 30.5374 40.6374 30.6124C40.6374 30.6522 40.6216 30.6903 40.5935 30.7185C40.5653 30.7466 40.5272 30.7624 40.4874 30.7624C40.4476 30.7624 40.4095 30.7466 40.3813 30.7185C40.3532 30.6903 40.3374 30.6522 40.3374 30.6124C40.3078 30.6741 40.2618 30.7265 40.2045 30.764C40.1473 30.8015 40.0808 30.8225 40.0124 30.8249C39.9462 30.8203 39.8823 30.7982 39.8274 30.7609C39.7725 30.7236 39.7285 30.6723 39.6999 30.6124C39.6999 30.6999 39.6249 30.7624 39.5374 30.7624C39.4624 30.7624 39.3874 30.6874 39.3874 30.6124C39.3874 30.5374 39.4249 30.4874 39.4874 30.4624H39.4999ZM39.7499 31.1374C39.4874 31.1374 39.3749 31.3874 39.1499 31.5249C39.2749 31.4749 39.3749 31.3749 39.5624 31.2749C39.7374 31.1749 39.8874 31.2999 39.9999 31.2999C40.0999 31.2999 40.2499 31.1749 40.4374 31.2749C40.6124 31.3749 40.7249 31.4749 40.8499 31.5249C40.6124 31.3749 40.5124 31.1499 40.2499 31.1499C40.1999 31.1499 40.0999 31.1749 39.9999 31.2249L39.7499 31.1374Z" fill="#85340A"></path><path d="M39.6501 31.45C39.5501 31.45 39.4251 31.475 39.2251 31.525C39.6876 31.425 39.7876 31.5875 40.0001 31.5875C40.2001 31.5875 40.3126 31.425 40.7626 31.525C40.2626 31.375 40.1501 31.475 40.0001 31.475C39.9001 31.475 39.8251 31.4375 39.6501 31.45Z" fill="#85340A"></path><path d="M39.2499 31.5251H39.1499C39.6874 31.5876 39.4374 31.9001 39.9999 31.9001C40.5624 31.9001 40.3124 31.5876 40.8499 31.5251C40.2874 31.4751 40.4624 31.8126 39.9999 31.8126C39.5624 31.8126 39.6999 31.5251 39.2499 31.5251Z" fill="#85340A"></path><path d="M40.4626 32.3624C40.4626 32.2397 40.4139 32.1221 40.3271 32.0354C40.2404 31.9486 40.1228 31.8999 40.0001 31.8999C39.8774 31.8999 39.7598 31.9486 39.6731 32.0354C39.5863 32.1221 39.5376 32.2397 39.5376 32.3624C39.562 32.2581 39.621 32.1651 39.705 32.0985C39.7889 32.0319 39.8929 31.9957 40.0001 31.9957C40.1073 31.9957 40.2113 32.0319 40.2952 32.0985C40.3792 32.1651 40.4382 32.2581 40.4626 32.3624Z" fill="#85340A"></path><path d="M37.9248 29.2876C38.5123 28.7751 39.2623 28.6876 39.6748 29.0751C39.7698 29.2001 39.834 29.3457 39.8623 29.5001C39.9123 29.8001 39.8248 30.1126 39.5998 30.4376L39.6998 30.4876C39.8998 30.1001 39.9748 29.7001 39.8998 29.3126L39.8248 29.0251C39.2623 28.5626 38.4873 28.5251 37.9248 29.2751V29.2876Z" fill="#85340A"></path><path d="M38.85 29.125C39.1875 29.125 39.2625 29.2 39.4125 29.3375C39.5625 29.4625 39.65 29.4375 39.6625 29.4625C39.7 29.4875 39.6625 29.5625 39.625 29.5375C39.5625 29.5125 39.4625 29.4625 39.3125 29.3375C39.1625 29.2125 39 29.2125 38.85 29.2125C38.3875 29.2125 38.1375 29.5875 38.0875 29.5625C38.025 29.5375 38.3375 29.125 38.85 29.125Z" fill="#85340A"></path><path d="M38.8252 29.2876C38.6127 29.2876 38.3877 29.3876 38.2627 29.5876C38.5127 29.8251 39.0877 29.8376 39.4752 29.5626C39.3933 29.4757 39.2945 29.4065 39.1849 29.3592C39.0753 29.3119 38.9571 29.2875 38.8377 29.2876H38.8252ZM38.8252 29.3376C39.0502 29.3376 39.2627 29.4376 39.2877 29.5376C39.0377 29.8251 38.6252 29.7876 38.3627 29.5876C38.4877 29.4126 38.6627 29.3376 38.8377 29.3376H38.8252Z" fill="#843511"></path><path d="M38.8627 29.7625C38.987 29.7625 39.0877 29.6618 39.0877 29.5375C39.0877 29.4132 38.987 29.3125 38.8627 29.3125C38.7384 29.3125 38.6377 29.4132 38.6377 29.5375C38.6377 29.6618 38.7384 29.7625 38.8627 29.7625Z" fill="#85340A"></path><path d="M38.2373 29.6877C38.6748 30.0252 39.1123 30.0002 39.3623 29.8502C39.6123 29.6877 39.6123 29.6377 39.5623 29.6377C39.5123 29.6377 39.4623 29.6877 39.2623 29.8002C39.0498 29.9002 38.7498 29.9002 38.2373 29.6877Z" fill="#85340A"></path></g><defs><clipPath id="clip0_1887_16095"><rect width="80" height="60" fill="white"></rect></clipPath></defs></svg>