<svg xmlns="http://www.w3.org/2000/svg" width="41" height="40" viewBox="0 0 41 40" fill="none"><path d="M36.9997 19.9997C36.9997 29.2043 29.5377 36.6663 20.333 36.6663M36.9997 19.9997C36.9997 10.7949 29.5377 3.33301 20.333 3.33301M36.9997 19.9997H3.66638M20.333 36.6663C11.1283 36.6663 3.66638 29.2043 3.66638 19.9997M20.333 36.6663C24.457 32.4578 26.9997 26.3572 26.9997 19.9995C26.9997 13.6418 24.457 7.54146 20.333 3.33301M20.333 36.6663C16.2091 32.4578 13.6664 26.3572 13.6664 19.9995C13.6664 13.6418 16.2091 7.54146 20.333 3.33301M20.333 3.33301C11.1283 3.33301 3.66638 10.7949 3.66638 19.9997" stroke="#FF83A9" stroke-width="3" stroke-linecap="round" stroke-linejoin="round"></path></svg>