<svg xmlns="http://www.w3.org/2000/svg" width="40" height="40" viewBox="0 0 40 40" fill="none"><path d="M16.6666 36.6663V31.6663M16.6666 8.33301V3.33301M23.3333 36.6663V31.6663M23.3333 8.33301V3.33301M3.33325 23.333H8.33325M31.6666 16.6663H36.6666M31.6666 23.333H36.6666M3.33325 16.6663H8.33325M11.6666 31.6663H28.3333C30.1743 31.6663 31.6666 30.174 31.6666 28.333V11.6663C31.6666 9.82539 30.1743 8.33301 28.3333 8.33301H11.6666C9.82564 8.33301 8.33325 9.82539 8.33325 11.6663V28.333C8.33325 30.174 9.82564 31.6663 11.6666 31.6663ZM15.8333 24.9997H24.1666C24.6268 24.9997 24.9999 24.6265 24.9999 24.1663V15.833C24.9999 15.3728 24.6268 14.9997 24.1666 14.9997H15.8333C15.373 14.9997 14.9999 15.3728 14.9999 15.833V24.1663C14.9999 24.6265 15.373 24.9997 15.8333 24.9997Z" stroke="#FF83A9" stroke-width="3" stroke-linecap="round" stroke-linejoin="round"></path></svg>