<svg xmlns="http://www.w3.org/2000/svg" width="40" height="40" viewBox="0 0 40 40" fill="none"><path d="M3.3335 35V28.3333C3.3335 26.4923 4.82588 25 6.66683 25H23.3335C25.1745 25 26.6668 26.4923 26.6668 28.3333V35M26.6668 5C28.1008 5.36717 29.3718 6.20117 30.2795 7.37052C31.1872 8.53987 31.6798 9.97805 31.6798 11.4583C31.6798 12.9386 31.1872 14.3768 30.2795 15.5461C29.3718 16.7155 28.1008 17.5495 26.6668 17.9167M31.6668 25H33.3335C35.1745 25 36.6668 26.4923 36.6668 28.3333V35M21.6668 11.6667C21.6668 15.3486 18.682 18.3333 15.0002 18.3333C11.3183 18.3333 8.3335 15.3486 8.3335 11.6667C8.3335 7.98477 11.3183 5 15.0002 5C18.682 5 21.6668 7.98477 21.6668 11.6667Z" stroke="#FF83A9" stroke-width="3" stroke-linecap="round" stroke-linejoin="round"></path></svg>