<svg xmlns="http://www.w3.org/2000/svg" width="40" height="40" viewBox="0 0 40 40" fill="none"><path d="M8.33337 30.8333V35H13.3334V30.8333M26.6667 30.833V35H31.6667V30.8333M33.3334 15.8332H36.6667M6.66671 15.8332H3.33337M30 24.1666H29.9834M10.0001 24.1666H9.98339M21.6667 24.1666H18.3334M6.66671 16.6666L10 5.83323L11.1419 5.73808C17.037 5.24681 22.963 5.24681 28.8582 5.73808L30 5.83323L33.3334 16.6666M6.35377 17.4998C5.56294 17.4998 4.88552 18.0553 4.73889 18.8325C4.52761 19.9523 4.25172 21.5223 4.16671 22.5C3.99121 24.5181 4.45082 27.6996 4.75529 29.4913C4.88821 30.2735 5.56616 30.8331 6.35961 30.8331H33.6405C34.434 30.8331 35.1119 30.2735 35.2449 29.4913C35.5492 27.6996 36.0089 24.5181 35.8334 22.5C35.7484 21.5223 35.4725 19.9523 35.2612 18.8325C35.1145 18.0553 34.4372 17.4998 33.6464 17.4998H6.35377Z" stroke="#FF83A9" stroke-width="3" stroke-linecap="round" stroke-linejoin="round"></path></svg>