<svg xmlns="http://www.w3.org/2000/svg" width="41" height="40" viewBox="0 0 41 40" fill="none"><path d="M35.3335 23.3333V16.6667C35.3335 15.7462 34.5873 15 33.6668 15H25.3335V6.66667C25.3335 5.7462 24.5873 5 23.6668 5H17.0002C16.0797 5 15.3335 5.7462 15.3335 6.66667V15H7.00016C6.0797 15 5.3335 15.7462 5.3335 16.6667V23.3333C5.3335 24.2538 6.0797 25 7.00016 25H15.3335V33.3333C15.3335 34.2538 16.0797 35 17.0002 35H23.6668C24.5873 35 25.3335 34.2538 25.3335 33.3333V25H33.6668C34.5873 25 35.3335 24.2538 35.3335 23.3333Z" stroke="#FF83A9" stroke-width="3" stroke-linecap="round" stroke-linejoin="round"></path></svg>