<svg xmlns="http://www.w3.org/2000/svg" width="40" height="40" viewBox="0 0 40 40" fill="none"><path d="M3.33337 5H9.16671L13.0973 22.4042C13.4405 23.9238 14.79 25 16.348 25H30.6595C32.2219 25 33.5745 23.9148 33.9134 22.3898L36.6667 10H10.8334M18.3334 33.3333C18.3334 34.2538 17.5872 35 16.6667 35C15.7462 35 15 34.2538 15 33.3333C15 32.4128 15.7462 31.6667 16.6667 31.6667C17.5872 31.6667 18.3334 32.4128 18.3334 33.3333ZM31.6667 33.3333C31.6667 34.2538 30.9205 35 30 35C29.0795 35 28.3334 34.2538 28.3334 33.3333C28.3334 32.4128 29.0795 31.6667 30 31.6667C30.9205 31.6667 31.6667 32.4128 31.6667 33.3333Z" stroke="#FF83A9" stroke-width="3" stroke-linecap="round" stroke-linejoin="round"></path></svg>