<svg xmlns="http://www.w3.org/2000/svg" width="40" height="40" viewBox="0 0 40 40" fill="none"><path d="M3.33337 35V28.3333C3.33337 26.4923 4.82576 25 6.66671 25H23.3334C25.1744 25 26.6667 26.4923 26.6667 28.3333V35M26.6667 5C28.1007 5.36717 29.3717 6.20117 30.2794 7.37052C31.187 8.53987 31.6797 9.97805 31.6797 11.4583C31.6797 12.9386 31.187 14.3768 30.2794 15.5461C29.3717 16.7155 28.1007 17.5495 26.6667 17.9167M31.6667 25H33.3334C35.1744 25 36.6667 26.4923 36.6667 28.3333V35M21.6667 11.6667C21.6667 15.3486 18.6819 18.3333 15 18.3333C11.3181 18.3333 8.33337 15.3486 8.33337 11.6667C8.33337 7.98477 11.3181 5 15 5C18.6819 5 21.6667 7.98477 21.6667 11.6667Z" stroke="#FF83A9" stroke-width="3" stroke-linecap="round" stroke-linejoin="round"></path></svg>