<svg xmlns="http://www.w3.org/2000/svg" width="82" height="81" viewBox="0 0 82 81" fill="none"><g clip-path="url(#clip0_1679_12762)"><path d="M81.5 45.9068V0H0.5V81H46.4068L81.5 45.9068Z" fill="#353E99"></path><path d="M52.5831 30.3755V29.3022H43.906V30.3755H44.4527C45.0854 30.3044 45.7217 30.4743 46.2347 30.8514C46.3662 31.0036 46.4661 31.1805 46.5287 31.3717C46.5913 31.5629 46.6152 31.7646 46.5992 31.9651V46.1401C46.5992 47.6589 46.3663 48.6106 45.85 49.1169C45.6623 49.2885 45.4416 49.4201 45.2013 49.5037C44.9611 49.5872 44.7064 49.621 44.4527 49.6029C43.7321 49.5327 43.0383 49.2933 42.4277 48.9042L41.881 48.6309C41.6931 48.5489 41.488 48.5141 41.2836 48.5296C41.1087 48.5246 40.9346 48.5543 40.7713 48.6168C40.608 48.6794 40.4586 48.7736 40.3318 48.8941C40.2241 49.0036 40.1392 49.1334 40.0818 49.2759C40.0245 49.4184 39.9959 49.5708 39.9977 49.7244C39.9977 50.6052 41.1115 51.2229 42.691 51.2229C43.5702 51.2725 44.4504 51.1439 45.2787 50.8446C46.1069 50.5453 46.866 50.0816 47.5105 49.4814C49.0798 47.912 49.8493 45.3301 49.8493 41.6041V31.9854C49.8493 31.0336 50.2138 30.3957 51.9857 30.3957L52.5831 30.3755Z" fill="white"></path><path d="M57.7569 37.3412L60.0451 32.4002L62.2625 37.3412H57.7569ZM70.6156 44.7021C69.2488 44.7021 68.9146 44.1047 68.2869 42.7581L62.2625 29.2817H58.6378L58.8605 29.6361C58.9364 29.7548 58.9816 29.8905 58.9921 30.031C58.9551 30.3351 58.8551 30.6282 58.6985 30.8916L53.2614 42.8695C52.664 44.1857 52.4311 44.6717 50.558 44.7021H50.3251V45.8969H57.7063V44.6819H57.3519C57.0279 44.6819 56.7241 44.6819 56.471 44.6819C55.9511 44.7474 55.4246 44.6292 54.9826 44.3477C54.9335 44.297 54.8955 44.2366 54.8711 44.1704C54.8467 44.1041 54.8364 44.0335 54.8409 43.963C54.8692 43.6876 54.9482 43.4199 55.0738 43.1732L57.0988 38.8397H62.9713L64.9456 43.1631C65.0753 43.4284 65.164 43.7117 65.2089 44.0035C65.2121 44.0669 65.2021 44.1302 65.1794 44.1895C65.1568 44.2488 65.122 44.3027 65.0773 44.3477C64.5731 44.6419 63.9852 44.7595 63.4066 44.6819C63.113 44.6819 62.7586 44.6819 62.3941 44.6819H62.0803V45.8969H71.1928V44.7021H70.6156Z" fill="white"></path><path d="M32.3027 37.3311L34.591 32.3395L36.859 37.3311H32.3027ZM37.9626 44.7527C37.6791 44.7527 37.3551 44.7527 36.9501 44.7527H36.5856V45.9677H45.6981V44.7021H45.1513C43.7743 44.7021 43.4402 44.1047 42.8226 42.7581L36.7476 29.2817H33.1836L33.3962 29.6361C33.4717 29.755 33.5169 29.8905 33.5278 30.031C33.4919 30.3354 33.3919 30.6287 33.2342 30.8916L28.5261 41.3001C27.4123 43.4668 24.952 44.6515 21.6006 44.6515C20.5327 44.6922 19.4674 44.5188 18.4675 44.1414C17.4677 43.7641 16.5534 43.1905 15.7787 42.4543C15.071 41.7172 14.519 40.8452 14.1554 39.8902C13.7919 38.9352 13.6243 37.9168 13.6626 36.8957C13.6565 35.9697 13.8537 35.0536 14.2404 34.2121C14.627 33.3706 15.1936 32.6242 15.9002 32.0256C17.3981 30.8618 19.2483 30.2439 21.145 30.274C22.5062 30.2145 23.8557 30.5486 25.0319 31.2364C26.2081 31.9242 27.1611 32.9364 27.7768 34.1518L27.8477 34.2733H29.0222L28.7083 30.0411L28.4451 30.1018C28.2586 30.1408 28.0686 30.1611 27.8781 30.1626C27.6022 30.1544 27.3276 30.1205 27.058 30.0613L26.7542 30.0107C24.8266 29.5367 22.8619 29.2285 20.8817 29.0893C19.2718 29.0141 17.6656 29.3027 16.1826 29.9338C14.6997 30.5648 13.378 31.5221 12.316 32.7343C10.9927 34.1437 10.2419 35.9955 10.21 37.9285C10.2212 39.1354 10.5406 40.3195 11.1377 41.3685C11.7349 42.4175 12.59 43.2966 13.6221 43.9225C15.9233 45.3687 18.6123 46.0753 21.3272 45.9475H32.2622V44.7325H31.9078C31.5838 44.7325 31.2801 44.7325 31.027 44.7325C30.5071 44.7971 29.9809 44.679 29.5386 44.3983C29.4899 44.3473 29.4523 44.2868 29.4279 44.2206C29.4035 44.1545 29.3929 44.084 29.3968 44.0136C29.4265 43.7385 29.5054 43.471 29.6297 43.2238L31.6547 38.8903H37.5272L39.5016 43.2238C39.6322 43.4922 39.721 43.7791 39.7648 44.0743C39.7701 44.1974 39.7264 44.3175 39.6433 44.4085C39.137 44.7069 38.5455 44.8281 37.9626 44.7527Z" fill="white"></path><path d="M47.2876 14.1751L49.5556 19.1668H44.9994L47.2876 14.1751ZM44.9487 26.477H44.6045C44.2805 26.477 43.9767 26.477 43.7236 26.477C43.2037 26.5434 42.6769 26.4252 42.2352 26.1429C42.1843 26.0931 42.1444 26.033 42.1182 25.9667C42.092 25.9004 42.0802 25.8293 42.0834 25.7581C42.1133 25.4831 42.1921 25.2156 42.3162 24.9684L44.3412 20.6248H50.2239L52.1881 24.9481C52.3192 25.2164 52.408 25.5033 52.4514 25.7986C52.4538 25.8604 52.4434 25.922 52.4207 25.9796C52.3981 26.0371 52.3637 26.0893 52.3197 26.1328C51.8161 26.4285 51.2277 26.5461 50.6491 26.4669C50.3656 26.4669 50.0315 26.4669 49.6366 26.4669H49.2822V27.6819H58.3947V26.4871H57.848C56.471 26.4871 56.1369 25.8898 55.5091 24.5431L49.4341 11.0566H45.8802L46.103 11.411C46.1805 11.5289 46.2259 11.665 46.2346 11.8059C46.2006 12.1107 46.1004 12.4044 45.941 12.6665L41 23.5003C41 23.5003 39.8862 26.4365 37.3651 26.4365H33.5075C32.9859 26.5101 32.4555 26.3874 32.0191 26.0923C31.7964 25.8695 31.7052 25.4949 31.7052 24.8064V14.0131C31.7052 13.0006 32.09 12.4033 34.0137 12.4033C34.2669 12.4033 34.5402 12.4033 34.8136 12.4033H35.0667V11.2591H25.6302V12.4235H26.177C26.81 12.3483 27.4478 12.5186 27.959 12.8994C28.0902 13.0515 28.1892 13.2286 28.2501 13.42C28.311 13.6114 28.3325 13.8132 28.3134 14.0131V24.9178C28.3303 25.1145 28.3077 25.3126 28.2468 25.5004C28.186 25.6882 28.0881 25.8619 27.959 26.0113C27.4441 26.392 26.802 26.5589 26.1669 26.477H25.6201V27.6819H44.9487V26.477Z" fill="white"></path><path d="M49.1101 78.2967H78.7966V48.6001L49.1101 78.2967Z" fill="#ED1C24"></path><path d="M13.8751 55.3129C13.6625 54.6143 13.4397 54.3004 13.136 54.3004C12.6095 54.3004 11.921 55.6774 11.921 57.5809C11.921 58.0062 12.0222 58.2188 12.1944 58.2188C12.3665 58.2188 12.9436 57.7328 13.5714 56.7912L13.8751 55.3129ZM11.354 59.4541C10.787 59.4541 10.3415 58.8769 10.3415 57.8543C10.4024 56.6427 10.9326 55.5024 11.8197 54.6751C12.209 54.1509 12.7791 53.79 13.4195 53.6626C13.5638 53.6635 13.7056 53.7012 13.8313 53.772C13.9571 53.8429 14.0628 53.9446 14.1384 54.0676L14.6345 51.7388C14.6392 51.6579 14.6392 51.5767 14.6345 51.4958C14.6345 51.3844 14.5839 51.3034 14.5029 51.3034C14.3503 51.3218 14.2006 51.3593 14.0574 51.4148L13.9055 51.0706C14.6088 50.7385 15.3366 50.4609 16.0824 50.2403C16.1103 50.2375 16.1385 50.2403 16.1654 50.2485C16.1923 50.2567 16.2173 50.2701 16.2389 50.288C16.2606 50.3058 16.2784 50.3278 16.2916 50.3527C16.3047 50.3775 16.3127 50.4047 16.3152 50.4327C16.3133 50.5658 16.2964 50.6983 16.2646 50.8276L14.756 58.1378C14.7513 58.1849 14.7513 58.2324 14.756 58.2796C14.756 58.3606 14.756 58.3909 14.8471 58.3909C14.9382 58.3909 15.242 58.1783 15.5761 57.7126L15.8191 57.9151C15.0597 58.9276 14.3814 59.4743 13.8447 59.4743C13.46 59.4743 13.2575 59.2313 13.2575 58.7554C13.2761 58.3705 13.3269 57.9878 13.4094 57.6113C12.488 58.8364 11.8197 59.4743 11.3844 59.4743" fill="white"></path><path d="M19.6565 54.6752C19.6565 54.3512 19.5148 54.1791 19.2819 54.1791C18.8465 54.1791 18.4921 54.9182 18.158 56.4167C18.5714 56.3461 18.9472 56.1336 19.2207 55.8157C19.4943 55.4978 19.6484 55.0945 19.6565 54.6752ZM17.9555 59.5048C16.943 59.5048 16.4266 58.9075 16.4266 57.7228C16.4502 56.6799 16.8493 55.6805 17.5505 54.9081C17.8107 54.5621 18.139 54.2732 18.5151 54.059C18.8912 53.8448 19.3072 53.7099 19.7375 53.6627C19.8841 53.6374 20.0345 53.6447 20.178 53.6841C20.3215 53.7235 20.4545 53.7941 20.5676 53.8908C20.6807 53.9874 20.7711 54.1079 20.8324 54.2434C20.8937 54.379 20.9243 54.5264 20.9221 54.6752C20.9221 55.6371 19.9096 56.2648 18.0061 56.761C17.9644 56.9915 17.944 57.2253 17.9454 57.4596C17.9454 58.219 18.2896 58.624 18.9579 58.624C19.492 58.5672 20.0001 58.3639 20.426 58.0367L20.6083 58.2696C19.8694 58.9473 18.9324 59.3697 17.9353 59.4745" fill="white"></path><path d="M27.9995 54.5028H27.8982C27.2267 54.577 26.61 54.9085 26.1777 55.4276C25.7454 55.9468 25.531 56.6133 25.5796 57.2872C25.5796 57.8339 25.8428 58.1782 26.1162 58.1782C26.3896 58.1782 26.582 57.9858 26.8857 57.7124L27.4122 57.2467L27.9995 54.5028ZM26.6225 58.492C25.9745 59.0894 25.5391 59.4134 25.1645 59.4134C24.7898 59.4134 24.3241 58.9679 24.3241 58.1174C24.3447 57.392 24.5394 56.6822 24.8918 56.0478C25.2443 55.4135 25.7441 54.8731 26.3491 54.4724C27.1324 53.9195 28.0738 53.6353 29.0322 53.6624H29.6802L28.7285 58.0061C28.7168 58.107 28.7168 58.2089 28.7285 58.3098C28.7285 58.4009 28.7285 58.4515 28.8297 58.4515C28.931 58.4515 29.2246 58.249 29.6802 57.8035L29.9232 58.0364C28.9107 58.9274 28.3538 59.4539 27.8982 59.4539C27.4426 59.4539 27.2705 59.1907 27.2705 58.6135C27.2755 58.3691 27.2991 58.1254 27.3413 57.8845L26.6225 58.492Z" fill="white"></path><path d="M34.5808 55.1709C34.5808 55.0089 34.5201 54.9279 34.3884 54.9279C34.0948 54.9279 33.5886 55.5759 32.6571 56.7909L32.2824 58.5627C32.1407 59.2411 32.1306 59.3626 31.5939 59.3626H31.0978C30.8244 59.3626 30.6827 59.2715 30.6827 59.1702C30.6824 59.003 30.7028 58.8363 30.7434 58.6741L32.1913 51.8094C32.2008 51.7185 32.2008 51.6269 32.1913 51.536C32.1913 51.374 32.1407 51.2829 32.0496 51.2829C31.8974 51.2913 31.7473 51.322 31.6041 51.374L31.4927 51.0399C32.2468 50.7073 33.0253 50.4331 33.8214 50.2197C33.8653 50.2248 33.9055 50.2466 33.9338 50.2805C33.962 50.3144 33.9762 50.3579 33.9733 50.402C33.9733 50.402 33.9733 50.4931 33.9733 50.6146L32.8393 55.9201C33.9733 54.4317 34.9251 53.6622 35.6237 53.6622C36.0388 53.6622 36.2616 53.9356 36.2616 54.4722C36.2538 54.6841 36.2232 54.8946 36.1704 55.1L35.4009 58.0362C35.3902 58.127 35.3902 58.2188 35.4009 58.3096C35.4009 58.4109 35.4516 58.4716 35.5123 58.4716C35.5731 58.4716 35.9578 58.2084 36.3932 57.6414L36.6666 57.8742C35.8768 58.8867 35.1984 59.474 34.4694 59.474C34.0341 59.474 33.8518 59.2715 33.8518 58.7855C33.8714 58.4434 33.9257 58.1041 34.0138 57.773L34.5504 55.5354C34.5647 55.4109 34.5647 55.2852 34.5504 55.1607" fill="white"></path><path d="M39.461 58.9377C40.0078 58.9377 40.7975 57.7126 40.7975 56.0217C40.7975 54.8877 40.514 54.2802 40.0483 54.2802C39.5825 54.2802 38.7523 55.475 38.7523 57.3177C38.7523 58.3302 39.0256 58.9276 39.461 58.9276M38.5194 54.6751C39.1474 54.0789 39.9639 53.7208 40.8279 53.6626C41.8404 53.6626 42.3568 54.341 42.3568 55.5762C42.3717 56.4268 42.0928 57.2565 41.567 57.9252C41.2374 58.3918 40.8067 58.7779 40.307 59.0549C39.8074 59.3319 39.2517 59.4926 38.6814 59.525C37.6689 59.525 37.1829 58.8466 37.1829 57.5708C37.181 57.0199 37.2996 56.4752 37.5305 55.975C37.7613 55.4747 38.0989 55.0311 38.5194 54.6751Z" fill="white"></path><path d="M43.025 55.4037C43.8856 54.1988 44.6045 53.6318 45.05 53.6318C45.4955 53.6318 45.4246 53.7938 45.4246 54.1887C45.3599 55.0336 45.2347 55.8727 45.05 56.6997H45.1006C45.8904 54.6747 46.427 53.6622 47.2067 53.6622C47.5307 53.6622 47.6926 53.8546 47.6926 54.1988C47.6926 54.8975 47.4395 55.2822 46.9636 55.2822H46.6295C45.9107 55.2822 45.3841 56.4668 44.888 58.8361L44.8171 59.1601C44.8171 59.3423 44.6653 59.4132 44.4223 59.4132H43.7439C43.4503 59.4132 43.3389 59.3525 43.3389 59.1702C43.3389 58.988 43.3389 59.1095 43.3389 59.069L43.8148 56.2542C43.8878 55.886 43.9419 55.5142 43.9768 55.1405C43.9768 54.9987 43.9768 54.9177 43.916 54.9177C43.8553 54.9177 43.5819 55.1506 43.2478 55.5961L43.025 55.4037Z" fill="white"></path><path d="M47.6218 55.4037C48.4824 54.1988 49.2114 53.6318 49.6468 53.6318C50.0821 53.6318 50.0214 53.7938 50.0214 54.1887C49.9677 55.033 49.8527 55.8722 49.6771 56.6997C50.4669 54.6747 51.0035 53.6622 51.7831 53.6622C52.1071 53.6622 52.2691 53.8546 52.2691 54.1988C52.2691 54.8975 52.016 55.2822 51.5401 55.2822H51.206C50.4871 55.2822 49.9708 56.4668 49.4645 58.8361L49.3936 59.1601C49.3936 59.3423 49.2418 59.4132 48.9988 59.4132H48.3204C48.0268 59.4132 47.9154 59.3525 47.9154 59.1702C47.9154 58.988 47.9154 59.1095 47.9154 59.069L48.3913 56.2542C48.4651 55.8861 48.5192 55.5143 48.5533 55.1405C48.5533 54.9987 48.5533 54.9177 48.4925 54.9177C48.4318 54.9177 48.1584 55.1506 47.8344 55.5961L47.6218 55.4037Z" fill="white"></path><path d="M53.8588 58.9377C54.4055 58.9377 55.1953 57.7126 55.1953 56.0217C55.1953 54.8877 54.9118 54.2802 54.446 54.2802C53.9803 54.2802 53.15 55.475 53.15 57.3278C53.15 58.3403 53.4234 58.9377 53.8486 58.9377M52.9172 54.6751C53.5452 54.0789 54.3617 53.7208 55.2256 53.6626C56.2381 53.6626 56.7545 54.341 56.7545 55.5762C56.7695 56.4268 56.4905 57.2565 55.9648 57.9252C55.6351 58.3918 55.2044 58.7779 54.7048 59.0549C54.2052 59.3319 53.6495 59.4926 53.0792 59.525C52.0667 59.525 51.5807 58.8466 51.5807 57.5708C51.5787 57.0199 51.6974 56.4752 51.9282 55.975C52.1591 55.4747 52.4966 55.0311 52.9172 54.6751Z" fill="white"></path><path d="M9.61249 71.0774C10.3111 70.9964 10.625 70.9154 10.9287 70.4496C11.2443 69.889 11.4956 69.2946 11.678 68.6777C11.84 68.1052 11.9084 67.5103 11.8805 66.916C11.8805 64.891 11.5869 63.7772 11.2426 63.7772C11.0705 63.7772 10.868 63.9696 10.6351 64.2734L10.3111 64.1316C10.8579 63.1191 11.5767 62.6331 12.1437 62.6331C12.893 62.6331 13.3587 63.7975 13.3587 65.9946C13.3587 66.43 13.3587 67.078 13.2676 67.969C13.9203 66.8475 14.3951 65.6315 14.675 64.3645C14.675 63.9291 14.4117 63.7975 14.4117 63.4836C14.4087 63.3672 14.4299 63.2514 14.474 63.1436C14.5182 63.0357 14.5842 62.9383 14.668 62.8574C14.7518 62.7764 14.8515 62.7138 14.9607 62.6735C15.07 62.6331 15.1865 62.6159 15.3027 62.623C15.4093 62.6146 15.5164 62.6283 15.6174 62.6631C15.7184 62.6979 15.8112 62.7531 15.89 62.8252C15.9688 62.8974 16.032 62.985 16.0755 63.0826C16.119 63.1801 16.1421 63.2856 16.1431 63.3925C16.1431 64.2329 15.2521 65.3365 14.1181 67.24C13.4127 68.3166 12.867 69.4898 12.4981 70.723C12.4981 70.9559 12.7006 70.9862 13.1664 71.0774L13.1056 71.4317H9.61249V71.0774Z" fill="white"></path><path d="M18.8768 66.8253C19.2717 66.8253 19.535 67.119 19.8893 67.4531C20.088 67.6414 20.3454 67.7558 20.6183 67.7771C20.6689 67.7851 20.7207 67.7814 20.7696 67.7663C20.8186 67.7511 20.8634 67.7249 20.9005 67.6897C20.9377 67.6544 20.9663 67.6111 20.9841 67.5631C21.0019 67.515 21.0084 67.4635 21.0031 67.4126C21.0031 67.119 20.7196 66.8355 20.2842 66.4001C19.616 65.7015 19.1502 65.1952 19.1502 64.4966C19.2184 63.9768 19.4807 63.5021 19.8846 63.1678C20.2884 62.8334 20.8037 62.6643 21.3271 62.6943C22.0156 62.6943 22.451 63.0487 22.451 63.5752C22.4595 63.6741 22.4471 63.7737 22.4147 63.8675C22.3823 63.9614 22.3305 64.0474 22.2627 64.1199C22.195 64.1925 22.1127 64.25 22.0213 64.2887C21.9299 64.3274 21.8313 64.3465 21.7321 64.3447C21.5862 64.3467 21.4429 64.3055 21.3204 64.2262C21.1979 64.1469 21.1016 64.0331 21.0436 63.8992C20.8917 63.6258 20.8512 63.3221 20.5373 63.3221C20.2235 63.3221 20.2133 63.4638 20.2133 63.7068C20.2133 64.1321 20.6082 64.4966 21.155 65.1243C21.3757 65.3066 21.5576 65.5314 21.6898 65.7853C21.822 66.0393 21.9018 66.3172 21.9245 66.6026C21.9245 67.6151 20.912 68.5162 19.4438 68.5162C18.5832 68.5162 18.1276 68.1821 18.1276 67.6455C18.1177 67.5453 18.1289 67.4441 18.1605 67.3485C18.1922 67.253 18.2436 67.1651 18.3113 67.0907C18.3791 67.0162 18.4618 66.9568 18.5539 66.9164C18.6461 66.8759 18.7458 66.8552 18.8465 66.8557" fill="white"></path><path d="M25.6707 63.666C25.6707 63.342 25.529 63.1699 25.286 63.1699C24.8506 63.1699 24.4962 63.909 24.1621 65.4075C24.5773 65.3391 24.9555 65.1274 25.2311 64.8094C25.5066 64.4913 25.6621 64.0868 25.6707 63.666ZM23.9697 68.4957C22.9572 68.4957 22.4307 67.8983 22.4307 66.7137C22.4552 65.6709 22.8542 64.6718 23.5546 63.8989C23.8241 63.5479 24.1644 63.2575 24.5534 63.0465C24.9423 62.8354 25.3713 62.7085 25.8125 62.6738C25.9598 62.6468 26.1113 62.6529 26.2561 62.6915C26.4008 62.7302 26.5352 62.8004 26.6495 62.8973C26.7638 62.9941 26.8551 63.1152 26.917 63.2516C26.9789 63.388 27.0097 63.5365 27.0072 63.6863C27.0072 64.6482 25.9947 65.2658 24.0912 65.772C24.0499 66.0026 24.0295 66.2364 24.0305 66.4707C24.0305 67.23 24.3747 67.635 25.043 67.635C25.5767 67.5767 26.0844 67.3737 26.5111 67.0478L26.6832 67.2807C25.9452 67.9596 25.0077 68.3822 24.0102 68.4855" fill="white"></path><path d="M26.7238 70.1158C26.7238 70.6423 27.3819 71.0574 28.4855 71.0574C29.4272 71.0574 29.9435 70.8448 29.9435 70.5815C29.9435 70.1664 28.9918 70.0044 27.8578 68.9514C27.1187 69.1742 26.7238 69.6399 26.7238 70.1158ZM29.2955 66.896C29.5385 66.896 29.6904 66.7138 29.8625 66.3696C30.1838 65.6777 30.3529 64.9251 30.3587 64.1623C30.3587 63.4333 30.1967 63.089 29.8018 63.089C29.4069 63.089 28.6374 64.1623 28.6374 65.7216C28.6374 66.4911 28.9108 66.896 29.2955 66.896ZM27.0984 65.519C27.1261 65.1041 27.2448 64.7003 27.4461 64.3364C27.6473 63.9724 27.9261 63.6572 28.2628 63.413C28.9242 62.8859 29.7457 62.6001 30.5915 62.603C31.146 62.6143 31.6983 62.6753 32.2419 62.7853V63.575C32.0689 63.5381 31.8923 63.5211 31.7154 63.5244H31.5534C31.725 63.8599 31.8152 64.231 31.8167 64.6078C31.7816 65.1732 31.5762 65.7148 31.2274 66.1612C30.8786 66.6076 30.4027 66.938 29.8625 67.1087C29.1842 67.4023 28.6982 67.4023 28.6982 67.6757C28.6982 67.949 29.0323 68.1212 29.7107 68.5262C30.632 69.0932 31.3104 69.407 31.3104 70.0854C31.3104 70.7638 30.1359 71.4523 28.2729 71.4523C26.4099 71.4523 25.3164 70.9663 25.3164 70.4398C25.3164 69.9133 26.1062 69.3058 27.6755 68.6375C27.6246 68.5334 27.597 68.4194 27.5945 68.3034C27.5945 67.9085 27.878 67.5845 28.4248 67.3922C28.0444 67.2522 27.7167 66.9981 27.4865 66.6645C27.2563 66.331 27.1349 65.9344 27.1389 65.5292" fill="white"></path><path d="M33.0519 68.5367C32.6976 68.5367 32.5254 68.3342 32.5254 67.9292C32.5421 67.6322 32.5861 67.3373 32.6571 67.0483L33.1633 64.507C33.1981 64.3502 33.2218 64.1912 33.2342 64.0311C33.2342 63.9096 33.2342 63.8691 33.1228 63.8691C33.0114 63.8691 32.8292 64.1121 32.4849 64.5778L32.2318 64.3855C33.0114 63.292 33.5481 62.7148 34.2568 62.7148C34.6517 62.7148 34.8744 62.9376 34.8744 63.3628C34.8361 63.7314 34.7719 64.0968 34.6821 64.4563L34.2467 66.4813C34.2174 66.6042 34.2004 66.7297 34.1961 66.856C34.1961 67.0078 34.2568 67.099 34.3479 67.099C34.4391 67.099 35.3604 66.2991 36.1401 64.6082L36.3729 63.5957C36.5248 62.9275 36.5248 62.7857 37.0716 62.7857H37.5272C37.8006 62.7857 37.9423 62.8667 37.9423 62.968C37.9289 63.1453 37.9019 63.3213 37.8613 63.4945L37.2133 66.8155C37.2133 66.9673 37.1627 67.0686 37.1627 67.1192C37.1627 67.1698 37.2133 67.3116 37.2741 67.3116C37.3348 67.3116 37.6892 67.0686 38.0638 66.6028L38.3068 66.8357C37.3854 68.0001 36.5653 68.557 36.0186 68.557C35.6946 68.557 35.5326 68.3646 35.5326 68.0102C35.5374 67.792 35.5645 67.5749 35.6136 67.3622L35.9376 65.8131C34.7023 67.6457 33.6392 68.5063 33.0722 68.5063" fill="white"></path><path d="M38.5093 64.4154C39.3598 63.2106 40.0888 62.6436 40.5343 62.6436C40.9798 62.6436 40.9089 62.8056 40.9089 63.2106C40.8593 64.044 40.751 64.8729 40.5849 65.6912C41.3747 63.6662 41.9113 62.6537 42.6909 62.6537C43.0149 62.6537 43.1769 62.8461 43.1769 63.1903C43.1769 63.8889 42.9238 64.2737 42.4479 64.2737H42.1138C41.3949 64.2737 40.8785 65.4583 40.3723 67.8276L40.2913 68.1516C40.2913 68.3338 40.1394 68.4047 39.8964 68.4047H39.218C38.9244 68.4047 38.813 68.3439 38.813 68.1617C38.813 67.9794 38.813 68.1009 38.813 68.0604L39.2889 65.2457C39.3657 64.8777 39.4231 64.5059 39.461 64.1319C39.461 63.9902 39.461 63.9092 39.4003 63.9092C39.3395 63.9092 39.0661 64.1421 38.732 64.5876L38.5093 64.4154Z" fill="white"></path><path d="M44.7462 67.9589C45.293 67.9589 46.0929 66.7337 46.0929 65.0428C46.0929 63.9088 45.8094 63.3013 45.3335 63.3013C44.8576 63.3013 44.0375 64.4961 44.0375 66.349C44.0375 67.3615 44.3109 67.9589 44.7462 67.9589ZM43.8046 63.7063C44.4331 63.1109 45.2493 62.7529 46.1131 62.6938C47.1256 62.6938 47.6521 63.3722 47.6521 64.6075C47.6646 65.4576 47.3859 66.2865 46.8624 66.9565C46.5311 67.4238 46.0987 67.8104 45.5973 68.0873C45.096 68.3643 44.5385 68.5246 43.9666 68.5562C42.9541 68.5562 42.4681 67.8778 42.4681 66.6021C42.4642 66.0518 42.581 65.5074 42.8101 65.0071C43.0393 64.5068 43.3753 64.0628 43.7945 63.7063" fill="white"></path></g><defs><clipPath id="clip0_1679_12762"><rect width="81" height="81" fill="white" transform="translate(0.5)"></rect></clipPath></defs></svg>