<svg xmlns="http://www.w3.org/2000/svg" width="51" height="36" viewBox="0 0 51 36" fill="none"><path d="M21.3088 4.31675C22.9228 2.63592 25.1648 1.59527 27.6494 1.59527C30.9502 1.59527 33.8293 3.43386 35.3614 6.16748C36.6962 5.56978 38.1707 5.24211 39.7209 5.24211C45.6732 5.24211 50.5 10.1086 50.5 16.1159C50.5 22.1232 45.6732 26.9897 39.7209 26.9897C38.9958 26.9897 38.2829 26.9169 37.5973 26.7803C36.2472 29.1893 33.6746 30.8155 30.7196 30.8155C29.4819 30.8155 28.3138 30.5303 27.2733 30.0206C25.905 33.2397 22.7135 35.5 18.9971 35.5C15.2807 35.5 11.8252 33.0485 10.5601 29.6141C10.0049 29.7324 9.4315 29.7931 8.84597 29.7931C4.23764 29.7931 0.5 26.0188 0.5 21.3617C0.5 18.2397 2.17769 15.5152 4.6745 14.0558C4.15876 12.8726 3.87358 11.571 3.87358 10.1996C3.87358 4.84163 8.22101 0.5 13.5848 0.5C16.7338 0.5 19.534 1.99879 21.3058 4.31675" fill="#0F9BD7"></path><path d="M7.74184 18.6495C7.71151 18.7315 7.75398 18.7497 7.76308 18.7618C7.85713 18.8316 7.95118 18.8801 8.04826 18.9347C8.55794 19.2048 9.04031 19.2836 9.54392 19.2836C10.5693 19.2836 11.2064 18.7375 11.2064 17.8607V17.8425C11.2064 17.0294 10.4874 16.7351 9.81393 16.5227L9.72595 16.4924C9.21931 16.3285 8.7794 16.1829 8.7794 15.8492V15.831C8.7794 15.5458 9.03728 15.3334 9.4347 15.3334C9.8746 15.3334 10.3995 15.479 10.7392 15.6671C10.7392 15.6671 10.8394 15.7308 10.8727 15.6368C10.894 15.5852 11.0639 15.1271 11.0821 15.0755C11.1003 15.0209 11.0669 14.9814 11.0305 14.9602C10.6452 14.7266 10.1112 14.5658 9.56212 14.5658H9.46201C8.52153 14.5658 7.86623 15.1331 7.86623 15.9463V15.9645C7.86623 16.82 8.58827 17.0992 9.26481 17.2933L9.37403 17.3267C9.8655 17.4784 10.2933 17.6089 10.2933 17.9578V17.976C10.2933 18.2915 10.0172 18.5282 9.57122 18.5282C9.3983 18.5282 8.84615 18.5282 8.24849 18.1489C8.17568 18.1065 8.13624 18.0761 8.0786 18.0427C8.04826 18.0245 7.97545 17.9912 7.94511 18.0882L7.74184 18.6495Z" fill="white"></path><path d="M22.7592 18.6497C22.7288 18.7316 22.7713 18.7498 22.7804 18.7619C22.8745 18.8317 22.9685 18.8802 23.0656 18.9349C23.5753 19.2049 24.0576 19.2838 24.5582 19.2838C25.5867 19.2838 26.2207 18.7376 26.2207 17.8608V17.8426C26.2207 17.0295 25.5017 16.7352 24.8282 16.5228L24.7402 16.4925C24.2306 16.3287 23.7937 16.183 23.7937 15.8493V15.8311C23.7937 15.5459 24.0485 15.3335 24.449 15.3335C24.8889 15.3335 25.4138 15.4791 25.7505 15.6673C25.7505 15.6673 25.8506 15.731 25.887 15.6369C25.9083 15.5853 26.0782 15.1272 26.0964 15.0756C26.1146 15.021 26.0812 14.9816 26.0478 14.9603C25.6595 14.7267 25.1286 14.5659 24.5764 14.5659H24.4763C23.5358 14.5659 22.8805 15.1333 22.8805 15.9464V15.9646C22.8805 16.8202 23.6026 17.0993 24.2791 17.2935L24.3883 17.3268C24.8798 17.4785 25.3076 17.609 25.3076 17.9579V17.9761C25.3076 18.2916 25.0315 18.5283 24.5855 18.5283C24.4126 18.5283 23.8604 18.5283 23.2628 18.149C23.19 18.1066 23.1505 18.0762 23.0929 18.0429C23.0747 18.0307 22.9867 17.9974 22.9594 18.0884L22.7561 18.6497H22.7592Z" fill="white"></path><path d="M33.866 16.01C33.781 15.7248 33.6506 15.4729 33.4746 15.2666C33.2987 15.0573 33.0772 14.8874 32.8163 14.7691C32.5554 14.6477 32.2459 14.584 31.9001 14.584C31.5542 14.584 31.2448 14.6477 30.9808 14.7691C30.7199 14.8904 30.4985 15.0603 30.3255 15.2666C30.1496 15.476 30.0191 15.7278 29.9342 16.01C29.8523 16.2921 29.8068 16.6016 29.8068 16.9293C29.8068 17.2569 29.8492 17.5664 29.9342 17.8485C30.0191 18.1337 30.1496 18.3856 30.3255 18.5919C30.5015 18.8012 30.723 18.9681 30.9839 19.0864C31.2448 19.2047 31.5542 19.2654 31.9031 19.2654C32.252 19.2654 32.5584 19.2047 32.8193 19.0864C33.0802 18.9681 33.3017 18.8012 33.4777 18.5919C33.6506 18.3825 33.781 18.1307 33.869 17.8485C33.9509 17.5664 33.9964 17.2569 33.9964 16.9293C33.9964 16.6016 33.954 16.2921 33.869 16.01M33.0135 16.9293C33.0135 17.4268 32.9194 17.8182 32.7404 18.0943C32.5584 18.3674 32.2854 18.5009 31.9061 18.5009C31.5269 18.5009 31.2539 18.3674 31.0749 18.0943C30.8959 17.8182 30.8049 17.4268 30.8049 16.9293C30.8049 16.4317 30.8959 16.0433 31.0749 15.7703C31.2539 15.5002 31.5239 15.3668 31.9061 15.3668C32.2884 15.3668 32.5584 15.5002 32.7404 15.7703C32.9225 16.0433 33.0135 16.4347 33.0135 16.9293Z" fill="white"></path><path fill-rule="evenodd" clip-rule="evenodd" d="M40.8954 18.3677C40.8681 18.2858 40.7862 18.3161 40.7862 18.3161C40.6618 18.3646 40.5283 18.4071 40.3888 18.4283C40.2462 18.4496 40.0884 18.4617 39.9185 18.4617C39.5059 18.4617 39.1753 18.3373 38.9417 18.0946C38.705 17.8519 38.5715 17.4575 38.5746 16.9235C38.5746 16.4381 38.6929 16.074 38.9022 15.7949C39.1115 15.5188 39.4301 15.3792 39.8518 15.3792C40.2067 15.3792 40.4767 15.4186 40.7589 15.5097C40.7589 15.5097 40.8256 15.54 40.856 15.449C40.9318 15.2396 40.9895 15.094 41.0683 14.8634C41.0926 14.7967 41.035 14.7694 41.0137 14.7633C40.9045 14.7178 40.6406 14.648 40.4434 14.6177C40.2583 14.5904 40.0429 14.5752 39.8002 14.5752C39.4422 14.5752 39.1206 14.6389 38.8446 14.7572C38.5715 14.8786 38.341 15.0485 38.1559 15.2548C37.9708 15.4642 37.8313 15.716 37.7403 15.9981C37.6462 16.2803 37.6007 16.5898 37.6007 16.9205C37.6007 17.6304 37.7918 18.2038 38.168 18.6256C38.5473 19.0473 39.1176 19.2627 39.8579 19.2627C40.2947 19.2627 40.7468 19.1747 41.0714 19.0473C41.0714 19.0473 41.1351 19.0169 41.1047 18.9472L40.8954 18.3677Z" fill="white"></path><path fill-rule="evenodd" clip-rule="evenodd" d="M45.276 15.8462C45.2032 15.5732 45.0242 15.294 44.9029 15.1696C44.7178 14.9694 44.5358 14.8268 44.3537 14.7479C44.1171 14.6478 43.835 14.5811 43.5255 14.5811C43.1645 14.5811 42.8338 14.6417 42.5668 14.7661C42.2999 14.8905 42.0754 15.0635 41.8994 15.2758C41.7234 15.4882 41.5899 15.74 41.508 16.0283C41.4231 16.3135 41.3806 16.626 41.3806 16.9536C41.3806 17.2813 41.4261 17.5999 41.5111 17.879C41.5991 18.1612 41.7416 18.4069 41.9328 18.6163C42.1239 18.8226 42.3696 18.9864 42.6609 19.0987C42.9521 19.2109 43.3071 19.2686 43.7136 19.2686C44.5509 19.2686 44.9908 19.0804 45.1729 18.9773C45.2032 18.9591 45.2366 18.9288 45.1971 18.8377L45.009 18.3068C44.9817 18.2279 44.8998 18.2552 44.8998 18.2552C44.6905 18.3341 44.3962 18.4706 43.7106 18.4706C43.2616 18.4706 42.9279 18.3371 42.7185 18.1308C42.5031 17.9184 42.4 17.609 42.3818 17.166H45.279C45.279 17.166 45.3549 17.166 45.364 17.0932C45.367 17.0629 45.4641 16.4985 45.279 15.8462M42.3969 16.453C42.4394 16.1769 42.5153 15.9494 42.6305 15.7704C42.8065 15.5004 43.0765 15.3487 43.4588 15.3487C43.841 15.3487 44.0898 15.4973 44.2718 15.7704C44.3901 15.9494 44.4417 16.186 44.463 16.453H42.3969Z" fill="white"></path><path fill-rule="evenodd" clip-rule="evenodd" d="M22.0646 15.8462C21.9918 15.5732 21.8128 15.294 21.6945 15.1696C21.5094 14.9694 21.3274 14.8268 21.1453 14.7479C20.9087 14.6478 20.6266 14.5811 20.3141 14.5811C19.9531 14.5811 19.6254 14.6417 19.3554 14.7661C19.0884 14.8905 18.8639 15.0635 18.688 15.2758C18.512 15.4882 18.3785 15.74 18.2966 16.0283C18.2117 16.3135 18.1692 16.626 18.1692 16.9536C18.1692 17.2813 18.2117 17.5999 18.2996 17.879C18.3876 18.1612 18.5302 18.4069 18.7213 18.6163C18.9125 18.8226 19.1552 18.9864 19.4495 19.0987C19.7407 19.2109 20.0957 19.2686 20.5022 19.2686C21.3395 19.2686 21.7824 19.0804 21.9614 18.9773C21.9948 18.9591 22.0251 18.9288 21.9857 18.8377L21.7976 18.3068C21.7673 18.2279 21.6884 18.2552 21.6884 18.2552C21.4791 18.3341 21.1848 18.4706 20.4991 18.4706C20.0501 18.4706 19.7164 18.3371 19.5071 18.1308C19.2917 17.9184 19.1885 17.609 19.1703 17.166H22.0676C22.0676 17.166 22.1435 17.166 22.1526 17.0932C22.1556 17.0629 22.2527 16.4985 22.0646 15.8462ZM19.1825 16.453C19.225 16.1769 19.2978 15.9494 19.4161 15.7704C19.5951 15.5004 19.8651 15.3487 20.2473 15.3487C20.6296 15.3487 20.8784 15.4973 21.0604 15.7704C21.1787 15.9494 21.2303 16.186 21.2515 16.453H19.1855H19.1825Z" fill="white"></path><path d="M14.0703 16.3136C13.952 16.3045 13.8003 16.3014 13.6183 16.3014C13.3695 16.3014 13.1299 16.3318 12.9054 16.3924C12.6778 16.4531 12.4746 16.5472 12.3016 16.6746C12.1257 16.802 11.9831 16.9628 11.8799 17.154C11.7768 17.3451 11.7252 17.5696 11.7252 17.8214C11.7252 18.0733 11.7707 18.3008 11.8587 18.4829C11.9467 18.6649 12.0741 18.8196 12.2379 18.938C12.3987 19.0563 12.5959 19.1412 12.8295 19.1928C13.0571 19.2444 13.3149 19.2717 13.5971 19.2717C13.8944 19.2717 14.1917 19.2474 14.4769 19.1989C14.7621 19.1503 15.1109 19.0806 15.208 19.0563C15.3051 19.035 15.4113 19.0047 15.4113 19.0047C15.4811 18.9865 15.475 18.9106 15.475 18.9106V16.259C15.475 15.6795 15.3172 15.2486 15.0139 14.9786C14.7105 14.7116 14.2615 14.5781 13.682 14.5781C13.4636 14.5781 13.1147 14.6085 12.9054 14.6509C12.9054 14.6509 12.2743 14.7723 12.0134 14.9756C12.0134 14.9756 11.9558 15.012 11.9892 15.0909L12.1924 15.6431C12.2167 15.7128 12.2865 15.6916 12.2865 15.6916C12.2865 15.6916 12.3077 15.6825 12.335 15.6673C12.8932 15.3639 13.5971 15.373 13.5971 15.373C13.9096 15.373 14.1523 15.4367 14.313 15.5611C14.4708 15.6825 14.5527 15.8645 14.5527 16.2529V16.3742C14.3039 16.3378 14.0734 16.3166 14.0734 16.3166M12.9205 18.3524C12.8083 18.2614 12.7901 18.2401 12.7537 18.1795C12.696 18.0915 12.6657 17.964 12.6657 17.8032C12.6657 17.5484 12.7506 17.3664 12.9236 17.242C12.9236 17.242 13.1723 17.0235 13.7639 17.0326C14.1796 17.0387 14.5527 17.0994 14.5527 17.0994V18.4161C14.5527 18.4161 14.1856 18.495 13.77 18.5193C13.1814 18.5557 12.9205 18.3494 12.9205 18.3494" fill="white"></path><path fill-rule="evenodd" clip-rule="evenodd" d="M37.4457 14.8207C37.467 14.757 37.4215 14.7236 37.4033 14.7175C37.3517 14.6993 37.1059 14.6477 36.9178 14.6356C36.5538 14.6113 36.3505 14.675 36.1715 14.757C35.9925 14.8389 35.7923 14.9693 35.6801 15.118V14.7661C35.6801 14.7175 35.6467 14.6781 35.5981 14.6781H34.8549C34.8063 14.6781 34.7729 14.7175 34.7729 14.7661V19.0895C34.7729 19.138 34.8094 19.1775 34.8609 19.1775H35.6224C35.671 19.1775 35.7104 19.138 35.7104 19.0895V16.9293C35.7104 16.638 35.7407 16.3498 35.8044 16.1678C35.8681 15.9887 35.9531 15.8462 36.0593 15.743C36.1655 15.6398 36.2868 15.567 36.4173 15.5276C36.5508 15.4851 36.6994 15.473 36.8056 15.473C36.9573 15.473 37.1241 15.5124 37.1241 15.5124C37.1818 15.5185 37.2121 15.4851 37.2303 15.4335C37.2789 15.3 37.4215 14.9026 37.4488 14.8237" fill="white"></path><path fill-rule="evenodd" clip-rule="evenodd" d="M30.2981 12.8184C30.204 12.7911 30.1221 12.7698 30.0129 12.7486C29.9006 12.7304 29.7702 12.7183 29.6185 12.7183C29.0967 12.7183 28.6811 12.8669 28.3928 13.1582C28.1046 13.4495 27.9074 13.8894 27.8104 14.4719L27.7739 14.6661H27.1186C27.1186 14.6661 27.0367 14.6661 27.0216 14.751L26.9154 15.3548C26.9063 15.4124 26.9306 15.4488 27.0094 15.4488H27.6496L27.0003 19.0775C26.9488 19.3687 26.8911 19.6084 26.8274 19.7905C26.7637 19.9695 26.703 20.103 26.6241 20.2031C26.5513 20.2971 26.4816 20.3669 26.3602 20.4094C26.2601 20.4397 26.1448 20.4579 26.0204 20.4579C25.9506 20.4579 25.8566 20.4458 25.7868 20.4337C25.717 20.4215 25.6806 20.4064 25.6291 20.3821C25.6291 20.3821 25.5532 20.3548 25.5259 20.4276C25.5016 20.4913 25.3317 20.9586 25.3105 21.0162C25.2893 21.0738 25.3166 21.1194 25.356 21.1315C25.441 21.1618 25.5047 21.1831 25.62 21.2104C25.7807 21.2468 25.9173 21.2498 26.0447 21.2498C26.3117 21.2498 26.5544 21.2134 26.7576 21.1376C26.9579 21.0647 27.1369 20.9373 27.2946 20.7644C27.4645 20.5763 27.5707 20.3821 27.6708 20.1151C27.7709 19.8512 27.8589 19.5235 27.9256 19.1442L28.5779 15.4488H29.5336C29.5336 15.4488 29.6155 15.4488 29.6306 15.3639L29.7399 14.7601C29.7459 14.7025 29.7216 14.6661 29.6458 14.6661H28.7205C28.7266 14.6448 28.766 14.3202 28.8722 14.0138C28.9177 13.8803 29.0026 13.7771 29.0754 13.7043C29.1452 13.6315 29.2271 13.5829 29.3182 13.5526C29.4122 13.5223 29.5153 13.5101 29.6276 13.5101C29.7156 13.5101 29.8005 13.5192 29.8673 13.5344C29.9553 13.5526 29.9917 13.5647 30.0159 13.5708C30.11 13.6012 30.1221 13.5708 30.1403 13.5253L30.3618 12.9185C30.383 12.8518 30.3284 12.8245 30.3072 12.8184" fill="white"></path><path fill-rule="evenodd" clip-rule="evenodd" d="M17.3529 19.0868C17.3529 19.1353 17.3195 19.1748 17.271 19.1748H16.5034C16.4549 19.1748 16.4215 19.1353 16.4215 19.0868V12.9005C16.4215 12.8519 16.4549 12.8125 16.5034 12.8125H17.271C17.3195 12.8125 17.3529 12.8519 17.3529 12.9005V19.0868Z" fill="white"></path></svg>