<svg xmlns="http://www.w3.org/2000/svg" width="324" height="34" viewBox="0 0 324 34" fill="none"><path d="M32.4433 30.7513C29.2792 30.7513 27.5151 27.4617 27.5151 21.5098C27.5151 15.5578 29.2792 12.2683 32.4433 12.2683C35.6074 12.2683 37.3714 15.5148 37.3714 21.5098C37.3714 27.5047 35.6074 30.7513 32.4433 30.7513ZM32.4433 9.79038C25.9975 9.79038 22.4246 15.066 22.4246 21.5098C22.4246 27.9536 25.9975 33.2292 32.4433 33.2292C38.889 33.2292 42.4619 27.9536 42.4619 21.5098C42.4619 15.066 38.889 9.79038 32.4433 9.79038ZM77.2389 9.79038C74.198 9.79038 72.518 11.2353 71.5715 13.0799H71.3251V10.2392H66.481V32.7803H71.3251V18.2202C71.3251 14.8876 72.8876 12.9447 75.3908 12.9447C77.8941 12.9447 78.8797 14.7032 78.8797 17.3656V32.7803H83.7239V17.3164C83.7239 12.6741 81.5062 9.79038 77.2389 9.79038ZM94.7282 9.79038C90.2536 9.79038 86.8879 11.8625 86.8879 16.2834C86.8879 20.0279 89.2288 22.057 91.8553 22.7764L95.9602 23.9016C98.1387 24.4857 99.1243 25.3466 99.1243 27.2404C99.1243 29.54 97.6458 30.8496 95.0586 30.8496C92.2641 30.8496 90.8305 29.3616 90.3768 25.6232L86.0255 26.976C86.2719 30.8558 89.5592 33.2415 94.5266 33.2415C100.071 33.2415 103.067 30.4008 103.067 25.8938C103.067 21.6573 100.396 19.8988 97.6066 19.1302L93.6641 18.0481C91.6929 17.507 90.8305 16.517 90.8305 15.0721C90.8305 13.2705 92.2249 12.1884 94.3193 12.1884C96.7834 12.1884 98.301 13.6763 98.5083 16.517L102.613 15.1643C102.12 12.0101 99.2867 9.80267 94.7282 9.80267M115.09 30.7635C111.926 30.7635 110.162 27.474 110.162 21.5221C110.162 15.5701 111.926 12.2806 115.09 12.2806C118.254 12.2806 120.018 15.5271 120.018 21.5221C120.018 27.517 118.254 30.7635 115.09 30.7635ZM115.09 9.80267C108.645 9.80267 105.072 15.0782 105.072 21.5221C105.072 27.9659 108.645 33.2415 115.09 33.2415C121.536 33.2415 125.109 27.9659 125.109 21.5221C125.109 15.0782 121.536 9.80267 115.09 9.80267ZM138.74 9.80267C135.699 9.80267 134.019 11.2476 133.072 13.0922H132.826V10.2515H127.982V32.7926H132.826V18.2325C132.826 14.8999 134.388 12.957 136.892 12.957C139.395 12.957 140.381 14.7155 140.381 17.3779V32.7926H145.225V17.3287C145.225 12.6864 143.007 9.80267 138.74 9.80267ZM210.713 30.7635C207.549 30.7635 205.785 27.474 205.785 21.5221C205.785 15.5701 207.549 12.2806 210.713 12.2806C213.877 12.2806 215.641 15.5271 215.641 21.5221C215.641 27.517 213.877 30.7635 210.713 30.7635ZM210.713 9.80267C204.267 9.80267 200.694 15.0782 200.694 21.5221C200.694 27.9659 204.267 33.2415 210.713 33.2415C217.159 33.2415 220.732 27.9659 220.732 21.5221C220.732 15.0782 217.159 9.80267 210.713 9.80267ZM255.509 9.80267C252.468 9.80267 250.788 11.2476 249.841 13.0922H249.595V10.2515H244.751V32.7926H249.595V18.2325C249.595 14.8999 251.157 12.957 253.66 12.957C256.164 12.957 257.149 14.7155 257.149 17.3779V32.7926H261.993V17.3287C261.993 12.6864 259.776 9.80267 255.509 9.80267ZM272.998 9.80267C268.523 9.80267 265.158 11.8748 265.158 16.2957C265.158 20.0402 267.498 22.0693 270.125 22.7887L274.23 23.9139C276.408 24.498 277.394 25.3589 277.394 27.2526C277.394 29.5523 275.915 30.8619 273.328 30.8619C270.534 30.8619 269.1 29.3739 268.646 25.6355L264.295 26.9883C264.542 30.8681 267.829 33.2538 272.796 33.2538C278.34 33.2538 281.336 30.4131 281.336 25.9061C281.336 21.6696 278.665 19.9111 275.876 19.1425L271.934 18.0604C269.963 17.5193 269.1 16.5293 269.1 15.0844C269.1 13.2828 270.495 12.2007 272.589 12.2007C275.053 12.2007 276.571 13.6886 276.778 16.5293L280.883 15.1766C280.39 12.0224 277.556 9.81497 272.998 9.81497M293.36 30.7758C290.196 30.7758 288.432 27.4863 288.432 21.5344C288.432 15.5824 290.196 12.2929 293.36 12.2929C296.524 12.2929 298.288 15.5394 298.288 21.5344C298.288 27.5293 296.524 30.7758 293.36 30.7758ZM293.36 9.81497C286.914 9.81497 283.341 15.0905 283.341 21.5344C283.341 27.9782 286.914 33.2538 293.36 33.2538C299.806 33.2538 303.379 27.9782 303.379 21.5344C303.379 15.0905 299.806 9.81497 293.36 9.81497ZM317.009 9.81497C313.969 9.81497 312.288 11.2599 311.342 13.1045H311.096V10.2638H306.251V32.8049H311.096V18.2448C311.096 14.9122 312.658 12.9692 315.161 12.9692C317.665 12.9692 318.65 14.7278 318.65 17.3902V32.8049H323.494V17.341C323.494 12.6987 321.277 9.81497 317.009 9.81497ZM19.5517 1.21911H14.4612V24.5226C14.4612 28.3102 13.1451 30.5606 10.0259 30.5606C6.90657 30.5606 5.59054 28.1688 5.59054 24.0676V19.739L0.5 21.1347V23.0715C0.5 28.9743 3.17127 33.4874 10.0259 33.4874C16.8804 33.4874 19.5517 28.9804 19.5517 23.0715V1.21911ZM50.1789 1.21911H45.3348V32.7742H50.1789V18.2141C50.1789 14.8815 51.7414 12.9385 54.2447 12.9385C56.7479 12.9385 57.7336 14.697 57.7336 17.3594V32.7742H62.5777V17.3102C62.5777 12.668 60.36 9.78423 56.0927 9.78423C53.0518 9.78423 51.3718 11.2292 50.4254 13.0738H50.1789V1.21911ZM197.821 1.21911H192.731V24.5226C192.731 28.3102 191.415 30.5606 188.296 30.5606C185.176 30.5606 183.86 28.1688 183.86 24.0676V19.739L178.77 21.1347V23.0715C178.77 28.9743 181.441 33.4874 188.296 33.4874C195.15 33.4874 197.821 28.9804 197.821 23.0715V1.21911ZM228.449 1.21911H223.604V32.7742H228.449V18.2141C228.449 14.8815 230.011 12.9385 232.514 12.9385C235.018 12.9385 236.003 14.697 236.003 17.3594V32.7742H240.847V17.3102C240.847 12.668 238.63 9.78423 234.362 9.78423C231.321 9.78423 229.641 11.2292 228.695 13.0738H228.449V1.21911ZM161.196 30.204C157.254 30.204 154.835 26.687 154.835 22.9486C154.835 20.6059 155.781 18.4416 157.338 17.2241L166.617 28.3594C164.892 29.4846 162.96 30.2102 161.196 30.2102M170.229 24.6641L162.182 14.9245C163.621 14.2912 165.016 14.0699 166.164 14.0699C169.49 14.0699 171.54 16.1912 171.54 19.8435C171.54 21.4667 171.131 23.133 170.224 24.6641M161.068 13.621L159.304 11.4567C157.741 9.56287 157.293 8.38848 157.293 6.99272C157.293 4.37953 158.811 2.89155 161.191 2.89155C163.571 2.89155 165.049 4.42257 165.049 7.22023C165.049 9.79038 163.901 12.2253 161.068 13.621ZM161.314 0.505859C155.647 0.505859 152.858 3.97987 152.858 8.30239C152.858 10.645 153.759 12.9938 156.145 15.8284L156.184 15.9206C152.163 18.0419 150.315 21.4667 150.315 24.9838C150.315 29.626 153.558 33.5059 158.57 33.5059C161.443 33.5059 164.808 32.1962 167.849 29.8535L170.313 32.7865H176.759V32.559L171.506 26.2012C173.724 23.3175 174.995 20.1632 174.995 17.4086C174.995 13.9838 172.901 11.6842 169.619 11.6842C167.894 11.6842 165.962 12.2253 164.691 12.7663L164.607 12.588C167.726 10.7373 169.042 9.02794 169.042 6.6361C169.042 3.21128 166.248 0.505859 161.325 0.505859" fill="#E91600"></path></svg>