<svg xmlns="http://www.w3.org/2000/svg" width="116" height="37" viewBox="0 0 116 37" fill="none"><g clip-path="url(#clip0_1617_40428)"><path d="M21.9666 1.29028H15.0778V8.12566H21.9666V1.29028ZM15.0778 21.7939H21.9666V14.9585H15.0778V21.7939ZM1.30273 21.7939H8.18899V14.9585H1.30273V21.7939ZM8.19153 28.6267H15.0778V21.7939H8.19153V28.6267ZM15.0778 8.12566H8.19153V14.961H15.0778V8.12566ZM28.8528 21.7939H35.7416V14.9585H28.8528V21.7939ZM28.8528 8.12566H21.9666V14.961H28.8528V8.12566ZM21.9666 28.6267H28.8528V21.7939H21.9666V28.6267ZM15.0778 35.4621H21.9666V28.6293H15.0778V35.4621Z" fill="#003DA5"></path><mask id="mask0_1617_40428" style="mask-type:luminance" maskUnits="userSpaceOnUse" x="-13" y="-13" width="142" height="63"><path d="M128.724 -12.3779H-12.4697V49.1253H128.724V-12.3779Z" fill="white"></path></mask><g mask="url(#mask0_1617_40428)"><path d="M50.8298 20.2007H56.492C56.492 25.1473 54.0821 27.3239 50.4252 27.3239C46.4706 27.3239 44.0301 24.2333 44.0301 19.0973C44.0301 13.9638 46.5495 10.7645 50.695 10.7645C53.8378 10.7645 55.8711 12.3503 56.3292 15.1203H58.1716C57.8459 11.4917 54.9193 9.12573 50.6924 9.12573C45.6537 9.12573 42.1597 12.9689 42.1597 19.0998C42.1597 25.2029 45.2491 28.9375 50.2343 28.9375C53.0514 28.9375 55.5174 27.6472 56.492 25.6852H56.5455V28.6168H58.1971V18.615H50.8298V20.2007ZM72.8526 19.6654C72.8526 16.3575 71.0382 14.6102 67.7045 14.6102C64.4547 14.6102 62.5309 16.4106 62.34 19.072H64.101C64.2104 17.2161 65.4548 16.0343 67.7045 16.0343C69.8726 16.0343 71.2265 17.1908 71.2265 19.6351V20.2815C69.7352 20.4153 68.3279 20.5492 66.9995 20.7386C63.1798 21.2511 61.77 22.6753 61.77 25.0135C61.77 27.2987 63.5844 28.8844 66.4295 28.8844C68.786 28.8844 70.4121 28.0512 71.3054 26.3568H71.3868C71.3868 27.0815 71.4402 27.834 71.5751 28.6143H73.1478C72.9595 27.6724 72.8501 26.5437 72.8501 25.2534V19.6654H72.8526ZM71.2265 22.299C71.2265 24.0994 70.9287 25.1751 69.9515 26.17C69.1932 27.0033 67.9997 27.4881 66.5644 27.4881C64.8314 27.4881 63.5564 26.521 63.5564 24.9075C63.5564 23.3747 64.5056 22.4354 67.2133 22.14C68.702 21.9253 70.0584 21.7637 71.2239 21.6829V22.299H71.2265ZM86.5589 16.7616H86.5055C85.7751 15.552 84.2024 14.6102 82.1717 14.6102C78.6217 14.6102 76.3746 17.4055 76.3746 21.7612C76.2397 26.0614 78.6497 28.9652 82.0903 28.9122C84.149 28.9122 85.7751 27.9704 86.5055 26.5462H86.5589V28.6168H88.2385V9.47672H86.5589V16.7616ZM82.36 27.5133C79.8406 27.5133 78.1331 25.2812 78.1331 21.7612C78.1331 18.2387 79.8127 16.0091 82.4389 16.0091C85.0142 16.0091 86.6378 18.2943 86.6378 21.7612C86.6404 25.2281 85.0422 27.5133 82.36 27.5133ZM98.1785 14.6102C94.2773 14.6102 91.8929 17.3524 91.8929 21.789C91.8929 26.2255 94.2773 28.9653 98.1785 28.9653C102.08 28.9653 104.464 26.223 104.464 21.789C104.464 17.3524 102.08 14.6102 98.1785 14.6102ZM98.1785 27.5133C95.3614 27.5133 93.6539 25.3367 93.6539 21.7865C93.6539 18.2362 95.3614 16.0596 98.1785 16.0596C101.024 16.0596 102.731 18.2362 102.731 21.7865C102.731 25.3367 101.024 27.5133 98.1785 27.5133ZM114.028 14.8526C112.211 14.8526 110.722 15.6329 109.829 17.11H109.775V14.9587H108.121V28.6143H109.801V21.4127C109.801 18.2665 111.345 16.4661 114.081 16.4661C114.379 16.4661 114.649 16.4914 114.949 16.5192V14.9334C114.677 14.8804 114.379 14.8526 114.028 14.8526Z" fill="black"></path></g></g><defs><clipPath id="clip0_1617_40428"><rect width="116" height="36" fill="white" transform="translate(0 0.5)"></rect></clipPath></defs></svg>