<svg xmlns="http://www.w3.org/2000/svg" width="40" height="40" viewBox="0 0 40 40" fill="none"><path d="M5 35V28.3333C5 26.4923 6.49238 25 8.33333 25H18.3333M26.6667 11.6667C26.6667 15.3486 23.6818 18.3333 20 18.3333C16.3181 18.3333 13.3333 15.3486 13.3333 11.6667C13.3333 7.98477 16.3181 5 20 5C23.6818 5 26.6667 7.98477 26.6667 11.6667ZM30 21.6667C30 25.3485 27.0152 28.3333 23.3333 28.3333C27.0152 28.3333 30 31.3182 30 35C30 31.3182 32.9848 28.3333 36.6667 28.3333C32.9848 28.3333 30 25.3485 30 21.6667Z" stroke="#FF83A9" stroke-width="3" stroke-linecap="round" stroke-linejoin="round"></path></svg>