<svg xmlns="http://www.w3.org/2000/svg" width="40" height="40" viewBox="0 0 40 40" fill="none"><path d="M26.6667 13.3337C26.6667 12.4132 27.4129 11.667 28.3334 11.667H33.3334C34.2539 11.667 35.0001 12.4132 35.0001 13.3337V18.3337C35.0001 19.2542 34.2539 20.0003 33.3334 20.0003H28.3334C27.4129 20.0003 26.6667 19.2542 26.6667 18.3337V13.3337Z" stroke="#FF83A9" stroke-width="3" stroke-linecap="round" stroke-linejoin="round"></path><path d="M26.6667 28.3337C26.6667 27.4132 27.4129 26.667 28.3334 26.667H33.3334C34.2539 26.667 35.0001 27.4132 35.0001 28.3337V33.3337C35.0001 34.2542 34.2539 35.0003 33.3334 35.0003H28.3334C27.4129 35.0003 26.6667 34.2542 26.6667 33.3337V28.3337Z" stroke="#FF83A9" stroke-width="3" stroke-linecap="round" stroke-linejoin="round"></path><path d="M11.6667 28.3337C11.6667 27.4132 12.4129 26.667 13.3334 26.667H18.3334C19.2539 26.667 20.0001 27.4132 20.0001 28.3337V33.3337C20.0001 34.2542 19.2539 35.0003 18.3334 35.0003H13.3334C12.4129 35.0003 11.6667 34.2542 11.6667 33.3337V28.3337Z" stroke="#FF83A9" stroke-width="3" stroke-linecap="round" stroke-linejoin="round"></path><path d="M5 7.5C5 6.11928 6.11928 5 7.5 5H17.5C18.8807 5 20 6.11928 20 7.5V17.5C20 18.8807 18.8807 20 17.5 20H7.5C6.11928 20 5 18.8807 5 17.5V7.5Z" stroke="#FF83A9" stroke-width="3" stroke-linecap="round" stroke-linejoin="round"></path></svg>