<svg xmlns="http://www.w3.org/2000/svg" width="131" height="25" viewBox="0 0 131 25" fill="none"><g id="App"><g clip-path="url(#clip0_898_3758)"><g id="Group"><path id="Vector" d="M14.9636 2.72605C16.1229 1.52664 17.7371 0.781806 19.5237 0.781806C21.8974 0.781806 23.9679 2.09623 25.0707 4.04732C26.0288 3.6215 27.0902 3.386 28.2068 3.386C32.4884 3.386 35.9595 6.86374 35.9595 11.1534C35.9595 15.4431 32.4884 18.9208 28.2068 18.9208C27.6844 18.9208 27.173 18.8688 26.6795 18.7702C25.709 20.4899 23.8577 21.6537 21.7334 21.6537C20.8443 21.6537 20.0034 21.4497 19.2549 21.0869C18.2706 23.3871 15.9768 25 13.3039 25C10.631 25 8.14692 23.2502 7.23574 20.7966C6.83735 20.8801 6.42518 20.9239 6.00198 20.9239C2.68669 20.9239 0 18.2266 0 14.9009C0 12.6705 1.20619 10.7248 3.00099 9.6829C2.63155 8.83811 2.42616 7.90706 2.42616 6.92809C2.42616 3.10121 5.55397 0 9.41101 0C11.6759 0 13.6885 1.06934 14.965 2.72605" fill="#0F9BD7"></path><path id="Vector_2" d="M5.20786 12.9649C5.18581 13.0237 5.21614 13.0361 5.22303 13.0456C5.29057 13.0949 5.3595 13.1292 5.42842 13.1689C5.7951 13.3619 6.14249 13.4181 6.50365 13.4181C7.24115 13.4181 7.70019 13.0292 7.70019 12.4008V12.3884C7.70019 11.8079 7.18325 11.597 6.69802 11.4451L6.63461 11.4245C6.26931 11.3068 5.95363 11.2041 5.95363 10.9658V10.9535C5.95363 10.7481 6.13835 10.5975 6.4237 10.5975C6.74075 10.5975 7.11846 10.703 7.36108 10.8358C7.36108 10.8358 7.43276 10.881 7.45895 10.8125C7.47274 10.7755 7.59542 10.4469 7.60921 10.4113C7.62299 10.373 7.59818 10.3442 7.57337 10.3292C7.29629 10.1621 6.91307 10.0471 6.51606 10.0471H6.443C5.76753 10.0471 5.29609 10.4524 5.29609 11.0329V11.0453C5.29609 11.6573 5.81578 11.8558 6.30377 11.9941L6.38234 12.0187C6.738 12.1269 7.04402 12.22 7.04402 12.4678V12.4802C7.04402 12.7075 6.84414 12.8759 6.52433 12.8759C6.40027 12.8759 6.00326 12.8731 5.57454 12.6048C5.52216 12.5746 5.49321 12.5527 5.45324 12.5281C5.43256 12.5144 5.3788 12.4925 5.35536 12.5609L5.21062 12.9621L5.20786 12.9649Z" fill="white"></path><path id="Vector_3" d="M16.0072 12.9649C15.9851 13.0237 16.0155 13.0361 16.0223 13.0456C16.0899 13.0949 16.1588 13.1292 16.2277 13.1689C16.5944 13.3619 16.9418 13.4181 17.303 13.4181C18.0405 13.4181 18.4995 13.0292 18.4995 12.4008V12.3884C18.4995 11.8079 17.9826 11.597 17.4973 11.4451L17.4339 11.4245C17.0686 11.3068 16.7529 11.2041 16.7529 10.9658V10.9535C16.7529 10.7481 16.9377 10.5975 17.223 10.5975C17.5401 10.5975 17.9178 10.703 18.1604 10.8358C18.1604 10.8358 18.2321 10.881 18.2583 10.8125C18.2721 10.7755 18.3947 10.4469 18.4085 10.4113C18.4223 10.373 18.3975 10.3442 18.3727 10.3292C18.0956 10.1621 17.7124 10.0471 17.3154 10.0471H17.2423C16.5669 10.0471 16.0954 10.4524 16.0954 11.0329V11.0453C16.0954 11.6573 16.6165 11.8558 17.1031 11.9941L17.1817 12.0187C17.5373 12.1269 17.8433 12.22 17.8433 12.4678V12.4802C17.8433 12.7075 17.6435 12.8759 17.3236 12.8759C17.1996 12.8759 16.8026 12.8731 16.3739 12.6048C16.3215 12.5746 16.2912 12.5541 16.2526 12.5281C16.2388 12.5199 16.1767 12.4952 16.1561 12.5609L16.0099 12.9621L16.0072 12.9649Z" fill="white"></path><path id="Vector_4" d="M23.9941 11.0782C23.9335 10.8755 23.8397 10.6961 23.7143 10.5469C23.5889 10.3977 23.4303 10.2772 23.2415 10.1895C23.054 10.1019 22.8307 10.0581 22.5826 10.0581C22.3344 10.0581 22.1097 10.1033 21.9223 10.1895C21.7348 10.2772 21.5749 10.3963 21.4494 10.5469C21.324 10.6961 21.2302 10.8755 21.1696 11.0782C21.1089 11.2808 21.0786 11.5012 21.0786 11.7354C21.0786 11.9695 21.1089 12.1913 21.1696 12.3926C21.2302 12.5952 21.324 12.7746 21.4494 12.9238C21.5749 13.0731 21.7348 13.1935 21.9223 13.2784C22.1097 13.3633 22.333 13.4071 22.5826 13.4071C22.8321 13.4071 23.054 13.3647 23.2415 13.2784C23.429 13.1935 23.5889 13.0731 23.7143 12.9238C23.8397 12.7746 23.9335 12.5952 23.9941 12.3926C24.0548 12.1899 24.0851 11.9695 24.0851 11.7354C24.0851 11.5012 24.0548 11.2808 23.9941 11.0782ZM23.3779 11.7354C23.3779 12.09 23.3118 12.3693 23.1808 12.5665C23.0512 12.7623 22.8541 12.8567 22.5812 12.8567C22.3082 12.8567 22.1125 12.7609 21.9843 12.5665C21.8547 12.3693 21.7899 12.09 21.7899 11.7354C21.7899 11.3807 21.8561 11.1028 21.9843 10.907C22.1125 10.7139 22.3082 10.6195 22.5812 10.6195C22.8541 10.6195 23.0499 10.7139 23.1808 10.907C23.3118 11.1028 23.3779 11.3821 23.3779 11.7354Z" fill="white"></path><path id="Vector_5" fill-rule="evenodd" clip-rule="evenodd" d="M29.0504 12.7622C29.0297 12.7033 28.9718 12.7252 28.9718 12.7252C28.8822 12.7595 28.7871 12.791 28.6851 12.806C28.5831 12.8225 28.47 12.8307 28.3473 12.8307C28.0496 12.8307 27.8125 12.743 27.6429 12.5692C27.4734 12.3953 27.3783 12.1132 27.3783 11.7326C27.3783 11.3862 27.4637 11.126 27.614 10.9275C27.7642 10.7303 27.9931 10.629 28.2977 10.629C28.5514 10.629 28.7457 10.6578 28.9484 10.7207C28.9484 10.7207 28.9966 10.7413 29.02 10.6783C29.0738 10.5291 29.1138 10.4236 29.1717 10.2607C29.1882 10.2142 29.1482 10.195 29.1331 10.1881C29.0531 10.1566 28.8657 10.106 28.7223 10.0841C28.59 10.0635 28.4342 10.054 28.2605 10.054C28.0027 10.054 27.7711 10.0978 27.574 10.1854C27.3769 10.2717 27.2101 10.3921 27.0777 10.5414C26.9454 10.6906 26.8448 10.87 26.7786 11.0726C26.7111 11.2753 26.678 11.4957 26.678 11.7312C26.678 12.2378 26.8158 12.6486 27.0874 12.9484C27.3603 13.2496 27.7698 13.403 28.3032 13.403C28.6189 13.403 28.9429 13.34 29.1758 13.2483C29.1758 13.2483 29.2199 13.2264 29.2006 13.1757L29.049 12.7608L29.0504 12.7622Z" fill="white"></path><path id="Vector_6" fill-rule="evenodd" clip-rule="evenodd" d="M32.2004 10.9631C32.148 10.7673 32.0184 10.5688 31.9343 10.4784C31.8006 10.3347 31.6683 10.2347 31.5387 10.1786C31.3691 10.106 31.1651 10.0581 30.9418 10.0581C30.6813 10.0581 30.4455 10.1019 30.2539 10.1909C30.0623 10.2799 29.901 10.4018 29.7742 10.5551C29.6474 10.7071 29.5523 10.8878 29.4916 11.0932C29.431 11.2972 29.4006 11.519 29.4006 11.7532C29.4006 11.9873 29.4323 12.2146 29.4958 12.4145C29.5592 12.6171 29.6612 12.7937 29.7976 12.9416C29.9355 13.0895 30.1106 13.2045 30.3215 13.2867C30.531 13.3674 30.786 13.4085 31.0783 13.4085C31.6807 13.4071 31.9977 13.273 32.1273 13.2018C32.1507 13.1881 32.1728 13.1662 32.1452 13.1032L32.0088 12.7239C31.9881 12.6678 31.9302 12.6883 31.9302 12.6883C31.7799 12.7431 31.569 12.8417 31.0741 12.8417C30.7502 12.8417 30.5117 12.7472 30.3614 12.5979C30.2071 12.4473 30.1312 12.2242 30.1188 11.9092H32.2031C32.2031 11.9092 32.2583 11.9092 32.2638 11.8572C32.2665 11.8353 32.3355 11.4314 32.2017 10.9659M30.1285 11.3985C30.1574 11.2014 30.2126 11.0384 30.2967 10.9097C30.4235 10.7167 30.6178 10.6085 30.8922 10.6085C31.1665 10.6085 31.3457 10.7153 31.4767 10.9097C31.5621 11.0384 31.6007 11.2082 31.6145 11.3985H30.1285Z" fill="white"></path><path id="Vector_7" fill-rule="evenodd" clip-rule="evenodd" d="M15.5081 10.9631C15.4558 10.7673 15.3262 10.5688 15.2421 10.4784C15.1084 10.3347 14.9774 10.2347 14.8465 10.1786C14.6769 10.106 14.4729 10.0581 14.2496 10.0581C13.989 10.0581 13.7533 10.1019 13.5603 10.1909C13.3687 10.2799 13.2074 10.4018 13.0806 10.5551C12.9538 10.7071 12.8587 10.8878 12.798 11.0932C12.7374 11.2972 12.707 11.519 12.707 11.7532C12.707 11.9873 12.7387 12.2146 12.8021 12.4145C12.8656 12.6171 12.9676 12.7937 13.104 12.9416C13.2419 13.0895 13.417 13.2045 13.6279 13.2867C13.8374 13.3674 14.0924 13.4085 14.3847 13.4085C14.9871 13.4071 15.3041 13.273 15.4337 13.2018C15.4571 13.1881 15.4792 13.1662 15.4516 13.1032L15.3151 12.7239C15.2945 12.6678 15.2366 12.6883 15.2366 12.6883C15.0877 12.7431 14.8754 12.8417 14.3805 12.8417C14.058 12.8417 13.8181 12.7472 13.6678 12.5979C13.5135 12.4473 13.4376 12.2242 13.4252 11.9092H15.5095C15.5095 11.9092 15.5647 11.9092 15.5702 11.8572C15.5729 11.8353 15.6419 11.4314 15.5081 10.9659M13.4349 11.3985C13.4638 11.2014 13.519 11.0384 13.6031 10.9097C13.7313 10.7167 13.9256 10.6085 14.1986 10.6085C14.4715 10.6085 14.6535 10.7153 14.783 10.9097C14.8685 11.0384 14.9057 11.2082 14.9209 11.3985H13.4349Z" fill="white"></path><path id="Vector_8" d="M9.75971 11.2973C9.67562 11.2904 9.56534 11.2877 9.43438 11.2877C9.25518 11.2877 9.08286 11.3096 8.9202 11.3534C8.75754 11.3972 8.61142 11.4643 8.48459 11.5533C8.35777 11.6437 8.25576 11.7587 8.1827 11.8956C8.10964 12.0325 8.07104 12.1927 8.07104 12.3721C8.07104 12.5514 8.10275 12.7144 8.16616 12.8445C8.22957 12.9745 8.32055 13.0841 8.43773 13.169C8.55352 13.2525 8.69688 13.3141 8.8623 13.3511C9.02634 13.388 9.21106 13.4072 9.41508 13.4072C9.62875 13.4072 9.84104 13.3894 10.0478 13.3552C10.2518 13.3209 10.5027 13.2703 10.573 13.2538C10.6419 13.2374 10.7191 13.2169 10.7191 13.2169C10.7715 13.2032 10.7674 13.1498 10.7674 13.1498V11.2562C10.7674 10.84 10.6544 10.5333 10.4352 10.3416C10.216 10.1513 9.89342 10.0554 9.47711 10.0554C9.32134 10.0554 9.06908 10.076 8.91882 10.1061C8.91882 10.1061 8.46392 10.1937 8.27644 10.3402C8.27644 10.3402 8.23509 10.3649 8.25714 10.4224L8.40464 10.8167C8.42256 10.8673 8.47357 10.8509 8.47357 10.8509C8.47357 10.8509 8.49011 10.8441 8.50803 10.8331C8.90917 10.6168 9.41646 10.6236 9.41646 10.6236C9.64115 10.6236 9.81485 10.6688 9.93202 10.7578C10.0451 10.8454 10.103 10.9755 10.103 11.2507V11.3383C9.92375 11.3123 9.75971 11.2973 9.75971 11.2973ZM8.92985 12.7514C8.84852 12.687 8.83749 12.6706 8.80992 12.6281C8.76857 12.5651 8.74651 12.4748 8.74651 12.3584C8.74651 12.1763 8.80716 12.0448 8.93261 11.9572C8.93261 11.9572 9.11181 11.8025 9.53777 11.808C9.8369 11.8121 10.1043 11.8559 10.1043 11.8559V12.7965C10.1043 12.7965 9.83966 12.8527 9.5419 12.8705C9.1187 12.8965 8.92985 12.7486 8.93123 12.75" fill="white"></path><path id="Vector_9" fill-rule="evenodd" clip-rule="evenodd" d="M26.5706 10.2293C26.5872 10.1828 26.5527 10.1595 26.5389 10.1554C26.5031 10.1417 26.3253 10.1047 26.1902 10.0965C25.9282 10.0801 25.7821 10.1239 25.6525 10.1828C25.523 10.2403 25.3796 10.3347 25.301 10.4415V10.1896C25.301 10.1554 25.2762 10.1266 25.2404 10.1266H24.7055C24.6711 10.1266 24.6462 10.154 24.6462 10.1896V13.2771C24.6462 13.3114 24.6738 13.3401 24.7097 13.3401H25.2569C25.2914 13.3401 25.3203 13.3127 25.3203 13.2771V11.7341C25.3203 11.5273 25.3438 11.3206 25.3893 11.1905C25.4347 11.0618 25.4954 10.9591 25.5712 10.8865C25.647 10.8126 25.7339 10.7619 25.829 10.7332C25.9255 10.7044 26.033 10.6935 26.1074 10.6935C26.2164 10.6935 26.3363 10.7222 26.3363 10.7222C26.3776 10.7263 26.3997 10.7017 26.4135 10.6661C26.4493 10.5716 26.5513 10.2882 26.5692 10.2321" fill="white"></path><path id="Vector_10" fill-rule="evenodd" clip-rule="evenodd" d="M21.4302 8.79834C21.364 8.77781 21.3034 8.76411 21.2234 8.75042C21.1435 8.73536 21.0484 8.72852 20.9408 8.72852C20.5645 8.72852 20.2668 8.83394 20.0586 9.04343C19.8518 9.25018 19.7098 9.56646 19.6395 9.98269L19.6147 10.1223H19.1419C19.1419 10.1223 19.084 10.1196 19.0716 10.1826L18.9944 10.6125C18.9889 10.6536 19.0068 10.6796 19.0619 10.6796H19.5224L19.0551 13.2701C19.0192 13.4782 18.9765 13.6507 18.931 13.7808C18.8855 13.9095 18.84 14.0054 18.7862 14.0752C18.7325 14.1423 18.6829 14.1929 18.596 14.2217C18.5243 14.245 18.4416 14.2559 18.3506 14.2559C18.301 14.2559 18.2335 14.2477 18.1838 14.2381C18.1342 14.2285 18.108 14.2176 18.0708 14.2025C18.0708 14.2025 18.017 14.182 17.995 14.2354C17.9784 14.2792 17.8558 14.6147 17.8406 14.6557C17.8254 14.6968 17.8461 14.7283 17.8723 14.7379C17.933 14.7598 17.9784 14.7735 18.0625 14.7926C18.1783 14.82 18.2762 14.8214 18.3686 14.8214C18.5602 14.8214 18.7352 14.794 18.88 14.7434C19.0261 14.6913 19.1529 14.5996 19.2646 14.4764C19.3859 14.3436 19.4617 14.2039 19.5348 14.0122C19.6078 13.8233 19.6685 13.5891 19.7181 13.3167L20.1868 10.6782H20.8733C20.8733 10.6782 20.9312 10.681 20.9436 10.618L21.0208 10.1881C21.0263 10.147 21.0084 10.121 20.9532 10.121H20.2874C20.2902 10.1059 20.3205 9.87316 20.3977 9.65409C20.4308 9.55961 20.4914 9.48568 20.5438 9.43365C20.5948 9.38299 20.6541 9.34602 20.7189 9.32548C20.7851 9.30494 20.8595 9.29399 20.9422 9.29399C21.0056 9.29399 21.0663 9.30084 21.1132 9.31042C21.1779 9.32411 21.2028 9.33096 21.2193 9.33644C21.2868 9.35697 21.2965 9.33643 21.3103 9.30494L21.4688 8.87091C21.4853 8.82436 21.4454 8.80382 21.4302 8.79834Z" fill="white"></path><path id="Vector_11" fill-rule="evenodd" clip-rule="evenodd" d="M12.1198 13.2755C12.1198 13.3098 12.095 13.3385 12.0605 13.3385H11.5078C11.4733 13.3385 11.4485 13.3098 11.4485 13.2755V8.85717C11.4485 8.82294 11.4733 8.79419 11.5078 8.79419H12.0605C12.095 8.79419 12.1198 8.82157 12.1198 8.85717V13.2755Z" fill="white"></path></g><g id="Group_2"><path id="Vector_12" d="M45.5442 15.6458L45.0824 14.2807H41.7809L41.2805 15.6458H38.6724L42.488 6.20386H44.4014L48.1785 15.6458H45.5456H45.5442ZM43.4626 9.15172L43.424 9.1394L42.4481 12.3679H44.4386L43.4626 9.15309V9.15172Z" fill="white"></path><path id="Vector_13" d="M49.0635 18.0063V8.56574H51.0678V9.34344H51.1064C51.6716 8.64241 52.456 8.32202 53.341 8.32202C55.3701 8.32202 56.8093 9.96778 56.8093 12.1749C56.8093 14.1904 55.3839 15.8882 53.341 15.8882C52.5056 15.8882 51.7736 15.6335 51.196 15.0078V18.0063H49.0635ZM54.6767 12.1119C54.6767 11.1165 53.9061 10.3005 52.8778 10.3005C51.8494 10.3005 51.105 11.0919 51.105 12.1119C51.105 13.132 51.8756 13.911 52.8902 13.911C53.9048 13.911 54.6753 13.095 54.6753 12.1119H54.6767Z" fill="white"></path><path id="Vector_14" d="M58.0154 18.0063V8.56574H60.0197V9.34344H60.0583C60.6235 8.64241 61.4079 8.32202 62.2929 8.32202C64.322 8.32202 65.7612 9.96778 65.7612 12.1749C65.7612 14.1904 64.3358 15.8882 62.2929 15.8882C61.4575 15.8882 60.7255 15.6335 60.1479 15.0078V18.0063H58.0154ZM63.6286 12.1119C63.6286 11.1165 62.858 10.3005 61.8297 10.3005C60.8013 10.3005 60.0569 11.0919 60.0569 12.1119C60.0569 13.132 60.8275 13.911 61.8421 13.911C62.8567 13.911 63.6272 13.095 63.6272 12.1119H63.6286Z" fill="white"></path><path id="Vector_15" d="M67.0583 15.6459V6.20532H72.338V8.32346H69.3839V9.79123H72.2484V11.9094H69.3839V13.5291H72.338V15.6472H67.0583V15.6459Z" fill="white"></path><path id="Vector_16" d="M78.4394 15.6459L77.014 13.4511L75.5624 15.6459H72.9929L75.703 11.856L73.3017 8.56445H75.8574L77.014 10.4265L78.1568 8.56445H80.6877L78.285 11.856L81.0475 15.6459H78.4394Z" fill="white"></path><path id="Vector_17" d="M86.5573 11.2959C86.2485 10.6318 85.6971 10.3005 84.9637 10.3005C83.9877 10.3005 83.3192 11.1042 83.3192 12.0996C83.3192 13.095 84.0263 13.8987 85.0147 13.8987C85.7343 13.8987 86.2347 13.5674 86.5559 12.954H88.727C88.3024 14.7271 86.7751 15.8758 84.9499 15.8758C82.8436 15.8758 81.1729 14.1794 81.1729 12.0859C81.1729 9.99243 82.856 8.32202 84.9113 8.32202C86.7861 8.32202 88.3149 9.49542 88.7132 11.2945H86.5545L86.5573 11.2959Z" fill="white"></path><path id="Vector_18" d="M94.1748 15.6459V11.7546C94.1748 10.8359 93.815 10.3129 93.032 10.3129C92.2491 10.3129 91.8369 10.7853 91.8369 11.6656V15.6459H89.7043V6.20532H91.8369V9.24218C92.1457 8.66849 92.8391 8.32346 93.6868 8.32346C95.3176 8.32346 96.3074 9.34487 96.3074 11.1946V15.6472H94.1748V15.6459Z" fill="white"></path><path id="Vector_19" d="M103.179 15.6458V14.8804H103.153C102.844 15.5062 101.996 15.8882 101.059 15.8882C98.9526 15.8882 97.4873 14.2424 97.4873 12.0982C97.4873 9.95409 99.0161 8.32202 101.059 8.32202C101.933 8.32202 102.742 8.66706 103.153 9.31742H103.179V8.56437H105.312V15.6458H103.179ZM103.179 12.0982C103.179 11.1028 102.37 10.2991 101.368 10.2991C100.366 10.2991 99.6212 11.1028 99.6212 12.1243C99.6212 13.1457 100.404 13.911 101.394 13.911C102.384 13.911 103.179 13.1197 103.179 12.0996V12.0982Z" fill="white"></path><path id="Vector_20" d="M111.336 15.6458V11.7162C111.336 10.7592 111.002 10.3128 110.218 10.3128C109.358 10.3128 108.998 10.7852 108.998 11.7423V15.6458H106.865V8.56437H108.856V9.31742H108.882C109.331 8.59038 109.961 8.32202 110.822 8.32202C112.106 8.32202 113.468 9.03674 113.468 11.1289V15.6458H111.336Z" fill="white"></path><path id="Vector_21" d="M120.224 14.8174C119.903 15.4938 119.106 15.8758 118.234 15.8758C116.152 15.8758 114.65 14.2807 114.65 12.1503C114.65 10.0198 116.178 8.33569 118.234 8.33569C119.159 8.33569 119.865 8.68073 120.212 9.2284H120.238V8.56435H122.371V14.8927C122.371 15.8498 122.242 16.5768 121.985 17.0615C121.47 18.0446 120.071 18.7963 118.285 18.7963C116.268 18.7963 114.957 17.6612 114.778 16.3085H117.244C117.488 16.8315 117.964 17.0095 118.49 17.0095C119.57 17.0095 120.224 16.3085 120.224 15.0187V14.8147V14.8174ZM120.237 12.1379C120.237 11.1042 119.531 10.3128 118.49 10.3128C117.539 10.3128 116.782 11.1042 116.782 12.0736C116.782 13.043 117.463 13.8987 118.49 13.8987C119.517 13.8987 120.237 13.158 120.237 12.1379Z" fill="white"></path><path id="Vector_22" d="M125.606 12.7499C125.722 13.5536 126.403 14.0889 127.275 14.0889C127.853 14.0889 128.227 13.8726 128.573 13.4249H130.756C130.075 14.9693 128.778 15.8744 127.275 15.8744C125.22 15.8744 123.498 14.2286 123.498 12.1228C123.498 10.017 125.143 8.32056 127.237 8.32056C129.331 8.32056 131 9.99234 131 12.1871C131 12.3912 130.988 12.5568 130.949 12.7485H125.606V12.7499ZM128.869 11.3204C128.702 10.5934 128.06 10.1087 127.238 10.1087C126.468 10.1087 125.799 10.5674 125.632 11.3204H128.869Z" fill="white"></path></g></g></g><defs><clipPath id="clip0_898_3758"><rect width="131" height="25" rx="4" fill="white"></rect></clipPath></defs></svg>