<svg xmlns="http://www.w3.org/2000/svg" width="217" height="219" viewBox="0 0 217 219" fill="none"><path d="M84.3818 38.6939L67.5443 16.2912L72.7128 14.7044L85.8456 32.8061L86.6781 10.4173L91.8119 8.84448L90.3411 36.8635L84.3818 38.6939Z" fill="#FF83A9"></path><path d="M105.77 35.061C103.869 35.1515 102.169 34.8244 100.671 34.0797C99.1723 33.3351 97.9791 32.2494 97.0911 30.8227C96.21 29.396 95.7174 27.7187 95.6272 25.784C95.5301 23.8005 95.8492 22.0328 96.5777 20.4808C97.3061 18.9219 98.3815 17.6761 99.7967 16.7436C101.219 15.811 102.891 15.296 104.813 15.1985C106.686 15.1081 108.344 15.4421 109.787 16.2007C111.23 16.9593 112.368 18.0241 113.207 19.3882C114.046 20.7522 114.511 22.332 114.601 24.1067C114.615 24.3573 114.629 24.6426 114.643 24.9558C114.657 25.269 114.643 25.5891 114.615 25.9162L99.2764 26.6539L99.1307 23.5708L109.44 23.0698C109.308 21.8449 108.829 20.8984 108.011 20.2372C107.192 19.5761 106.193 19.2699 105.014 19.3255C104.16 19.3673 103.383 19.597 102.683 20.0215C101.975 20.446 101.434 21.0654 101.059 21.8936C100.685 22.7148 100.525 23.7448 100.588 24.9697L100.636 26.0624C100.685 27.0924 100.921 27.9762 101.344 28.7209C101.767 29.4656 102.343 30.0293 103.057 30.4121C103.779 30.7948 104.598 30.9619 105.527 30.9131C106.45 30.8714 107.213 30.6278 107.803 30.2033C108.399 29.7718 108.829 29.2359 109.1 28.5956L114.275 28.3451C113.984 29.5421 113.443 30.6348 112.666 31.63C111.889 32.6252 110.911 33.4255 109.738 34.031C108.566 34.6434 107.241 34.9845 105.763 35.0541L105.77 35.061Z" fill="#FF83A9"></path><path d="M115.469 34.2467L119.333 15.6648L123.704 16.5835L123.44 19.6804C124.217 18.7687 125.195 18.1006 126.368 17.6761C127.54 17.2585 128.851 17.1959 130.294 17.4951C131.834 17.8153 133.069 18.4068 133.992 19.2698C134.915 20.1328 135.518 21.2324 135.817 22.5756C136.115 23.9188 136.073 25.4916 135.699 27.2802L133.465 38.0049L128.539 36.9748L130.669 26.7235C130.974 25.2481 130.898 24.051 130.44 23.1324C129.975 22.2137 129.101 21.6221 127.804 21.3507C126.971 21.1767 126.187 21.2185 125.459 21.476C124.73 21.7335 124.106 22.1859 123.586 22.8331C123.065 23.4803 122.698 24.3224 122.483 25.3524L120.422 35.2698L115.462 34.2328L115.469 34.2467Z" fill="#FF83A9"></path><path d="M142.234 42.2641C141.027 41.7143 140.055 41.0532 139.32 40.2667C138.585 39.4803 138.168 38.5338 138.064 37.4272C137.96 36.3207 138.252 34.9984 138.939 33.4673L142.241 26.118L139.299 24.7888L141.041 20.9123L143.982 22.2416L146.611 17.7666L150.718 19.6248L148.603 24.3294L153.154 26.3894L151.412 30.2729L146.861 28.2128L143.531 35.6317C143.184 36.4112 143.108 37.0236 143.323 37.476C143.531 37.9283 144.045 38.3389 144.87 38.7148L147.132 39.7378L145.356 43.6839L142.241 42.278L142.234 42.2641Z" fill="#FF83A9"></path><path d="M151.53 48.3815C150.302 47.4698 149.449 46.4259 148.956 45.2637C148.464 44.1014 148.353 42.8418 148.63 41.5055C148.908 40.1623 149.595 38.7565 150.684 37.2881L157.247 28.4355L161.312 31.4699L155.061 39.8979C154.153 41.1297 153.722 42.2432 153.771 43.2524C153.82 44.2615 154.375 45.1593 155.443 45.9527C156.123 46.4607 156.844 46.753 157.601 46.8296C158.357 46.9061 159.106 46.7669 159.855 46.405C160.605 46.0431 161.305 45.4307 161.943 44.5608L167.972 36.432L172.01 39.4455L160.716 54.6729L157.163 52.0214L158.669 49.2932C157.587 49.8291 156.421 50.0309 155.179 49.9057C153.938 49.7734 152.723 49.2654 151.537 48.3815H151.53Z" fill="#FF83A9"></path><path d="M161.472 55.9186L175.673 43.3706L178.649 46.7599L176.353 49.4393C177.268 49.2305 178.17 49.1957 179.058 49.328C179.946 49.4671 180.807 49.7594 181.632 50.2118C182.465 50.6642 183.235 51.2975 183.949 52.1048L179.919 55.6611L178.774 54.3597C178.274 53.796 177.754 53.3297 177.199 52.9678C176.644 52.6059 176.068 52.3693 175.458 52.2718C174.854 52.1744 174.216 52.251 173.543 52.5085C172.87 52.766 172.149 53.2392 171.378 53.9212L164.816 59.7185L161.465 55.9047L161.472 55.9186Z" fill="#FF83A9"></path><path d="M173.425 72.6007C172.482 70.9443 172.003 69.274 171.982 67.5968C171.961 65.9195 172.384 64.3606 173.252 62.92C174.119 61.4793 175.388 60.2823 177.06 59.3219C178.774 58.3406 180.494 57.8186 182.201 57.763C183.915 57.7073 185.51 58.104 186.981 58.9461C188.459 59.7882 189.673 61.0548 190.63 62.7321C191.56 64.3675 192.018 66.003 191.997 67.6316C191.976 69.2601 191.546 70.7633 190.713 72.1413C189.881 73.5124 188.695 74.6467 187.155 75.5306C186.939 75.6559 186.69 75.7951 186.419 75.9482C186.149 76.1013 185.857 76.2405 185.552 76.3588L177.934 62.9826L180.605 61.4515L185.725 70.4432C186.752 69.7681 187.377 68.9121 187.592 67.8751C187.807 66.8382 187.626 65.8082 187.043 64.7851C186.62 64.0404 186.058 63.4558 185.365 63.0174C184.664 62.5789 183.866 62.3771 182.971 62.4189C182.069 62.4606 181.091 62.7808 180.023 63.3932L179.079 63.9361C178.191 64.4441 177.504 65.0635 177.04 65.7803C176.568 66.4972 176.332 67.2627 176.318 68.0839C176.304 68.8982 176.533 69.7125 176.991 70.5198C177.449 71.3271 178.004 71.8977 178.656 72.2318C179.308 72.5659 179.981 72.712 180.675 72.6563L183.249 77.1661C182.055 77.4445 180.834 77.4654 179.6 77.2148C178.365 76.9712 177.206 76.4632 176.138 75.6907C175.062 74.9182 174.16 73.8882 173.425 72.6007Z" fill="#FF83A9"></path><path d="M178.843 83.7847C178.517 82.887 178.524 82.0727 178.857 81.335C179.19 80.5973 179.745 80.0892 180.522 79.8109C181.299 79.5255 182.048 79.5603 182.777 79.9153C183.505 80.2632 184.026 80.8896 184.352 81.7874C184.657 82.6364 184.643 83.4298 184.31 84.1675C183.977 84.9052 183.422 85.4133 182.645 85.6917C181.868 85.977 181.119 85.9422 180.39 85.5873C179.662 85.2393 179.148 84.6338 178.843 83.7847Z" fill="#FF83A9"></path><path d="M181.91 93.7922L207.801 89.2964L208.668 94.3072L182.777 98.8031L181.91 93.7922Z" fill="#FF83A9"></path><path d="M183.582 100.348L202.501 100.655L202.431 105.137L199.344 105.464C200.385 106.055 201.224 106.89 201.855 107.969C202.487 109.048 202.792 110.328 202.771 111.804C202.743 113.384 202.396 114.713 201.73 115.778C201.064 116.849 200.1 117.65 198.837 118.2C197.575 118.742 196.035 119 194.21 118.972L183.29 118.791L183.374 113.745L193.808 113.913C195.306 113.933 196.465 113.634 197.277 113.008C198.088 112.381 198.504 111.4 198.525 110.071C198.539 109.215 198.352 108.456 197.963 107.781C197.575 107.106 197.013 106.577 196.278 106.187C195.542 105.798 194.654 105.596 193.6 105.582L183.505 105.415L183.589 100.334L183.582 100.348Z" fill="#FF83A9"></path><path d="M180.397 128.59C180.89 126.746 181.743 125.222 182.944 124.011C184.151 122.8 185.573 121.986 187.21 121.575C188.847 121.157 190.589 121.199 192.427 121.693C194.314 122.201 195.868 123.05 197.089 124.233C198.31 125.424 199.15 126.843 199.601 128.5C200.052 130.156 200.031 131.903 199.538 133.747C198.907 136.099 197.762 137.909 196.104 139.176C194.446 140.442 192.476 141.006 190.207 140.867L191.602 135.668C192.504 135.675 193.294 135.403 193.96 134.84C194.626 134.276 195.091 133.524 195.341 132.578C195.57 131.729 195.556 130.915 195.313 130.135C195.07 129.356 194.592 128.667 193.884 128.075C193.176 127.484 192.261 127.031 191.151 126.732C190.304 126.502 189.52 126.412 188.799 126.447C188.077 126.488 187.425 126.634 186.849 126.899C186.274 127.156 185.795 127.532 185.406 128.012C185.018 128.493 184.74 129.049 184.574 129.676C184.407 130.309 184.359 130.908 184.435 131.492C184.511 132.07 184.706 132.599 185.004 133.072C185.302 133.545 185.726 133.928 186.267 134.234L184.872 139.433C182.888 138.431 181.487 136.955 180.675 135.007C179.863 133.058 179.766 130.922 180.391 128.59H180.397Z" fill="#FF83A9"></path><path d="M177.511 138.417L201.98 149.935L199.83 154.535L175.361 143.017L177.511 138.417Z" fill="#FF83A9"></path><path d="M170.609 150.206C171.49 148.954 172.509 148.07 173.654 147.548C174.806 147.026 176.054 146.887 177.393 147.137C178.739 147.381 180.155 148.035 181.646 149.1L190.623 155.475L187.696 159.623L179.149 153.547C177.9 152.663 176.776 152.252 175.777 152.329C174.778 152.399 173.89 152.983 173.127 154.069C172.634 154.765 172.357 155.489 172.301 156.247C172.239 157.006 172.398 157.757 172.78 158.502C173.155 159.247 173.786 159.936 174.667 160.555L182.909 166.408L180.002 170.528L164.559 159.56L167.119 155.934L169.866 157.382C169.304 156.31 169.075 155.141 169.179 153.895C169.283 152.642 169.755 151.417 170.609 150.206Z" fill="#FF83A9"></path><path d="M157.094 165.448C158.426 164.348 159.89 163.694 161.486 163.485C163.081 163.276 164.656 163.506 166.203 164.174C167.757 164.842 169.131 165.907 170.324 167.361C171.545 168.858 172.329 170.431 172.669 172.087C173.009 173.743 172.912 175.351 172.392 176.903C171.864 178.455 170.942 179.784 169.603 180.884C168.562 181.747 167.48 182.31 166.37 182.575C165.26 182.839 164.171 182.812 163.095 182.498L169.797 190.669L165.884 193.898L148.714 172.957L152.196 170.09L154.278 171.739C154.236 171.092 154.278 170.403 154.409 169.679C154.541 168.948 154.819 168.231 155.242 167.528C155.665 166.819 156.283 166.13 157.094 165.461V165.448ZM158.981 169.644C158.211 170.284 157.677 171.022 157.379 171.871C157.08 172.713 157.032 173.597 157.233 174.509C157.427 175.421 157.871 176.29 158.551 177.126C159.238 177.961 160.001 178.559 160.854 178.928C161.708 179.297 162.575 179.415 163.463 179.29C164.344 179.165 165.177 178.782 165.947 178.142C166.682 177.536 167.202 176.805 167.508 175.956C167.813 175.1 167.875 174.217 167.688 173.298C167.501 172.379 167.077 171.509 166.405 170.695C165.704 169.839 164.927 169.234 164.06 168.872C163.199 168.51 162.325 168.391 161.437 168.524C160.556 168.649 159.738 169.025 158.981 169.651V169.644Z" fill="#FF83A9"></path><path d="M139.237 176.771C140.971 175.984 142.671 175.664 144.343 175.803C146.015 175.943 147.52 176.513 148.859 177.515C150.205 178.518 151.273 179.902 152.064 181.663C152.876 183.473 153.23 185.233 153.126 186.946C153.022 188.658 152.473 190.217 151.495 191.608C150.517 193 149.15 194.1 147.395 194.893C145.682 195.666 144.024 195.965 142.4 195.791C140.784 195.617 139.334 195.046 138.05 194.086C136.767 193.126 135.761 191.831 135.026 190.21C134.921 189.98 134.804 189.722 134.679 189.437C134.547 189.152 134.443 188.845 134.353 188.532L148.346 182.192L149.615 185.004L140.208 189.263C140.784 190.356 141.568 191.059 142.581 191.372C143.586 191.685 144.627 191.601 145.702 191.114C146.479 190.766 147.118 190.258 147.617 189.604C148.117 188.95 148.394 188.17 148.443 187.266C148.491 186.361 148.262 185.352 147.756 184.231L147.305 183.236C146.882 182.297 146.341 181.559 145.668 181.023C145.002 180.487 144.259 180.174 143.455 180.083C142.643 179.993 141.817 180.139 140.978 180.522C140.132 180.905 139.514 181.406 139.119 182.025C138.723 182.645 138.522 183.299 138.501 183.995L133.777 186.131C133.61 184.913 133.707 183.695 134.075 182.484C134.436 181.274 135.053 180.167 135.92 179.172C136.788 178.17 137.898 177.369 139.244 176.757L139.237 176.771Z" fill="#FF83A9"></path><path d="M127.637 181.114C128.56 180.877 129.365 180.96 130.065 181.364C130.766 181.768 131.217 182.366 131.418 183.174C131.626 183.974 131.522 184.726 131.099 185.415C130.683 186.104 130.017 186.57 129.094 186.806C128.22 187.029 127.436 186.946 126.735 186.542C126.035 186.138 125.584 185.54 125.382 184.733C125.174 183.932 125.285 183.181 125.702 182.492C126.118 181.803 126.763 181.343 127.637 181.114Z" fill="#FF83A9"></path><path d="M117.932 183.793L117.509 210.149L106.735 209.975C104.91 209.947 103.377 209.634 102.135 209.035C100.893 208.437 99.9635 207.622 99.3391 206.599C98.7147 205.569 98.4164 204.393 98.4372 203.064C98.458 201.735 98.7633 200.621 99.353 199.723C99.9427 198.826 100.713 198.144 101.656 197.67C102.6 197.197 103.64 196.933 104.764 196.877L104.154 197.281C102.954 197.211 101.892 196.87 100.962 196.271C100.033 195.666 99.3114 194.873 98.7841 193.884C98.2638 192.896 98.0071 191.824 98.0279 190.669C98.0487 189.263 98.4095 188.024 99.1032 186.96C99.797 185.888 100.789 185.06 102.073 184.468C103.356 183.877 104.931 183.591 106.776 183.619L117.925 183.8L117.932 183.793ZM112.798 187.85L107.539 187.767C106.166 187.746 105.097 188.038 104.334 188.658C103.571 189.27 103.183 190.168 103.162 191.351C103.141 192.534 103.516 193.46 104.279 194.135C105.042 194.81 106.117 195.165 107.491 195.186L112.673 195.269L112.791 187.85H112.798ZM112.618 199.069L107.74 198.993C106.415 198.972 105.403 199.257 104.702 199.849C104.001 200.44 103.647 201.289 103.627 202.396C103.613 203.475 103.939 204.331 104.619 204.957C105.298 205.583 106.311 205.91 107.664 205.931L112.507 206.008L112.618 199.076V199.069Z" fill="#FF83A9"></path><path d="M89.3005 180.494C91.132 180.995 92.6513 181.837 93.8515 183.014C95.0517 184.19 95.8496 185.596 96.245 187.224C96.6404 188.86 96.5849 190.606 96.0785 192.472C95.5582 194.385 94.7118 195.965 93.5394 197.218C92.3669 198.471 90.9586 199.32 89.3213 199.765C87.684 200.211 85.9288 200.183 84.0765 199.668C82.2658 199.174 80.7951 198.338 79.6573 197.169C78.5265 196 77.7703 194.629 77.3887 193.07C77.0141 191.511 77.0557 189.869 77.5275 188.15C77.5968 187.906 77.6662 187.635 77.7495 187.335C77.8327 187.029 77.9437 186.73 78.0755 186.431L92.8872 190.502L92.0755 193.481L82.1201 190.746C81.8704 191.95 82.0299 193.001 82.6058 193.884C83.1816 194.768 84.0349 195.374 85.1726 195.68C85.9913 195.903 86.803 195.924 87.6077 195.743C88.4125 195.562 89.1132 195.137 89.7237 194.469C90.3342 193.801 90.799 192.875 91.1251 191.692L91.4095 190.641C91.6801 189.646 91.7286 188.734 91.5552 187.892C91.3818 187.05 91.0141 186.34 90.4452 185.749C89.8763 185.164 89.1479 184.747 88.2529 184.503C87.358 184.259 86.5671 184.245 85.8664 184.475C85.1726 184.698 84.5899 185.074 84.139 185.603L79.1439 184.232C79.796 183.188 80.6424 182.311 81.69 181.615C82.7376 180.912 83.917 180.452 85.2212 180.244C86.5255 180.028 87.8922 180.118 89.3144 180.508L89.3005 180.494Z" fill="#FF83A9"></path><path d="M79.6223 177.585L68.0435 202.09L63.4647 199.911L75.0366 175.407L79.6154 177.585H79.6223Z" fill="#FF83A9"></path><path d="M59.8434 191.553C60.6135 192.019 61.113 192.631 61.3419 193.397C61.5709 194.163 61.4668 194.9 61.0436 195.61C60.6204 196.32 60.0168 196.758 59.2329 196.912C58.449 197.072 57.6719 196.912 56.9019 196.452C56.111 195.972 55.5976 195.353 55.3687 194.587C55.1397 193.822 55.2369 193.084 55.667 192.374C56.0902 191.664 56.6937 191.226 57.4777 191.073C58.2616 190.912 59.0456 191.073 59.8434 191.553ZM73.108 174.37L63.3677 190.641L59.0248 188.024L68.7651 171.753L73.108 174.37Z" fill="#FF83A9"></path><path d="M60.4677 164.842C61.9037 166.095 62.9028 167.508 63.4786 169.087C64.0475 170.667 64.1585 172.282 63.8116 173.924C63.4647 175.567 62.6599 177.119 61.3904 178.58C60.093 180.076 58.6431 181.134 57.0475 181.754C55.4518 182.373 53.8146 182.526 52.1426 182.213C50.4706 181.9 48.9097 181.113 47.4528 179.847C46.0375 178.608 45.0732 177.216 44.5529 175.671C44.0395 174.126 43.9493 172.56 44.2823 170.994C44.6153 169.421 45.3646 167.967 46.5301 166.617C46.6966 166.429 46.877 166.213 47.0851 165.977C47.2932 165.74 47.5222 165.517 47.7719 165.301L59.3577 175.414L57.3388 177.745L49.5479 170.946C48.7987 171.92 48.4934 172.936 48.6253 173.987C48.764 175.038 49.2704 175.949 50.1585 176.722C50.8037 177.286 51.5252 177.655 52.323 177.836C53.1277 178.016 53.9464 177.947 54.7789 177.613C55.6183 177.279 56.437 176.645 57.2417 175.72L57.9563 174.899C58.6292 174.119 59.0732 173.319 59.2813 172.484C59.4895 171.649 59.4687 170.848 59.205 170.076C58.9483 169.303 58.4697 168.607 57.769 168.002C57.0683 167.389 56.3606 167.034 55.6322 166.937C54.9037 166.839 54.2239 166.923 53.5856 167.201L49.6798 163.791C50.7135 163.13 51.8582 162.712 53.1069 162.538C54.3557 162.365 55.6114 162.462 56.881 162.838C58.1505 163.214 59.3368 163.889 60.4538 164.856L60.4677 164.842Z" fill="#FF83A9"></path><path d="M50.4567 154.967L39.1276 171.69L36.0196 167.341L44.7887 155.245L30.5528 159.692L27.4725 155.377L46.8769 149.949L50.4636 154.967H50.4567Z" fill="#FF83A9"></path><path d="M40.6403 136.921C41.3618 138.688 41.6255 140.4 41.4243 142.071C41.23 143.741 40.6056 145.23 39.5581 146.539C38.5105 147.854 37.0952 148.87 35.3123 149.608C33.4808 150.359 31.7186 150.652 30.012 150.485C28.3053 150.318 26.7791 149.719 25.4263 148.689C24.0734 147.659 23.0328 146.246 22.2974 144.458C21.5829 142.718 21.347 141.034 21.5829 139.419C21.8187 137.804 22.4362 136.371 23.4352 135.118C24.4411 133.865 25.7593 132.898 27.4035 132.223C27.6324 132.125 27.896 132.021 28.1874 131.903C28.4788 131.784 28.784 131.687 29.1032 131.61L34.9238 145.864L32.0724 147.033L28.1597 137.449C27.0566 137.985 26.3281 138.751 25.9743 139.753C25.6275 140.748 25.676 141.799 26.12 142.892C26.4461 143.685 26.9178 144.339 27.5561 144.868C28.1944 145.397 28.9575 145.696 29.8524 145.773C30.7474 145.85 31.7672 145.655 32.898 145.188L33.904 144.771C34.8544 144.381 35.6106 143.859 36.1656 143.212C36.7276 142.565 37.0606 141.834 37.1785 141.027C37.2964 140.219 37.1785 139.384 36.8247 138.528C36.4709 137.672 35.9991 137.032 35.3955 136.614C34.792 136.197 34.1468 135.967 33.453 135.925L31.4897 131.116C32.7107 130.991 33.9178 131.137 35.1111 131.541C36.3044 131.944 37.3866 132.599 38.3509 133.503C39.3153 134.408 40.0784 135.55 40.6403 136.921Z" fill="#FF83A9"></path><path d="M36.7204 125.138C36.9285 126.071 36.8175 126.878 36.3874 127.567C35.9642 128.256 35.3467 128.687 34.542 128.861C33.7372 129.042 32.9949 128.91 32.322 128.465C31.649 128.019 31.212 127.337 31.0038 126.405C30.8096 125.521 30.9275 124.741 31.3507 124.052C31.7739 123.37 32.3913 122.932 33.1961 122.758C34.0009 122.577 34.7432 122.709 35.4161 123.155C36.0891 123.6 36.5261 124.261 36.7204 125.145V125.138Z" fill="#FF83A9"></path><path d="M34.5907 115.256L8.32507 114.49L8.82458 97.1748L12.9177 97.2931L12.5639 109.528L19.4321 109.73L19.7512 98.6224L23.6918 98.7407L23.3657 109.848L30.6432 110.064L30.997 97.829L35.0902 97.9473L34.5907 115.263V115.256Z" fill="#FF83A9"></path><path d="M35.1735 97.2025L16.9901 91.955L18.225 87.6471L21.2845 88.1412C20.4311 87.2922 19.8415 86.2691 19.5084 85.0651C19.1754 83.8611 19.2171 82.5458 19.6264 81.1191C20.0635 79.6019 20.7433 78.4118 21.666 77.5558C22.5887 76.6998 23.7265 76.1708 25.0862 75.976C26.446 75.7811 28 75.9342 29.7552 76.4423L40.2518 79.4697L38.8573 84.3204L28.8256 81.4253C27.3826 81.0077 26.1893 80.9938 25.2389 81.3905C24.2954 81.7872 23.6363 82.6223 23.2686 83.8959C23.0327 84.7171 23.0189 85.5036 23.22 86.2552C23.4212 87.0068 23.8236 87.661 24.4341 88.2317C25.0377 88.7954 25.8494 89.2269 26.8553 89.5192L36.561 92.3239L35.1596 97.2095L35.1735 97.2025Z" fill="#FF83A9"></path><path d="M23.2684 66.351C22.8591 67.1862 22.2832 67.736 21.5479 68.0143C20.8125 68.2927 20.0702 68.244 19.3278 67.8752C18.5855 67.5063 18.1068 66.9426 17.8779 66.184C17.6489 65.4254 17.7461 64.632 18.1554 63.7969C18.5647 62.9617 19.1405 62.4119 19.8759 62.1336C20.6113 61.8552 21.3536 61.9039 22.0959 62.2727C22.8382 62.6416 23.3169 63.2053 23.5459 63.9639C23.7748 64.7225 23.6777 65.5159 23.2684 66.351ZM47.1336 85.2879L43.2694 83.3601L43.9562 81.9751C44.31 81.2583 44.421 80.6737 44.2753 80.2213C44.1366 79.7759 43.7411 79.3862 43.089 79.0661L24.4547 69.796L26.7094 65.2445L45.309 74.5006C46.6965 75.1896 47.6955 75.99 48.2991 76.8877C48.9027 77.7925 49.1732 78.7738 49.1247 79.8386C49.0692 80.9034 48.75 82.0378 48.1603 83.2279L47.1405 85.2879H47.1336Z" fill="#FF83A9"></path><path d="M49.7356 65.0147C48.6602 66.4692 47.3629 67.5201 45.8297 68.1813C44.2965 68.8424 42.687 69.0651 40.9873 68.8494C39.2945 68.6336 37.6711 67.9516 36.1241 66.8033C34.5354 65.6202 33.3907 64.2491 32.6969 62.6833C32.0031 61.1174 31.7465 59.5028 31.9407 57.8325C32.135 56.1622 32.7663 54.6033 33.8347 53.1487C34.9239 51.6803 36.2351 50.6085 37.7613 49.9543C39.2945 49.2931 40.904 49.0774 42.6037 49.2862C44.2965 49.5019 45.9338 50.1909 47.5017 51.3601C49.0695 52.5293 50.2004 53.8934 50.9011 55.4593C51.5948 57.0252 51.8515 58.6398 51.6573 60.3101C51.463 61.9803 50.8248 63.5532 49.7356 65.0217V65.0147ZM46.2043 62.391C46.7108 61.7089 47.0022 60.9782 47.0785 60.1987C47.1548 59.4262 46.9744 58.6328 46.5373 57.8325C46.1072 57.0252 45.3996 56.2596 44.4144 55.5219C43.4293 54.7912 42.4927 54.3388 41.6117 54.1648C40.7306 53.9908 39.9189 54.0465 39.1974 54.3388C38.469 54.6241 37.8584 55.1043 37.3659 55.7655C36.8872 56.4127 36.6166 57.1296 36.5403 57.9229C36.4709 58.7163 36.6444 59.5097 37.0676 60.3101C37.4908 61.1104 38.1914 61.8759 39.1766 62.6067C40.1617 63.3374 41.0983 63.7968 41.9932 63.9777C42.8882 64.1587 43.6929 64.103 44.4075 63.8037C45.1221 63.5114 45.7187 63.0382 46.1974 62.391H46.2043Z" fill="#FF83A9"></path><path d="M61.6057 62.5998L58.4213 51.6943L57.5611 52.425L40.9178 44.4355L45.1359 40.8652L57.1379 46.7182L52.9961 34.205L57.0962 30.7322L65.7058 59.1201L61.6057 62.5929V62.5998Z" fill="#FF83A9"></path><path d="M69.4797 46.2378C68.6749 46.7458 67.884 46.9198 67.0931 46.7528C66.3023 46.5858 65.6918 46.1543 65.2478 45.4514C64.8038 44.7485 64.6789 44.0108 64.8592 43.2243C65.0466 42.4379 65.5391 41.7907 66.337 41.2757C67.1001 40.7885 67.8702 40.6354 68.661 40.8024C69.4519 40.9694 70.0624 41.4009 70.5064 42.1038C70.9504 42.8068 71.0753 43.5445 70.8949 44.3309C70.7076 45.1173 70.2359 45.7506 69.4797 46.2378Z" fill="#FF83A9"></path></svg>