<svg xmlns="http://www.w3.org/2000/svg" width="40" height="29" viewBox="0 0 40 29" fill="none"><g clip-path="url(#clip0_975_1823)"><path d="M1.48148 7.06411H21.8518M21.8518 7.06411C21.8518 10.1441 24.3393 12.641 27.4074 12.641C30.4755 12.641 32.963 10.1441 32.963 7.06411M21.8518 7.06411C21.8518 3.98416 24.3393 1.48718 27.4074 1.48718C30.4755 1.48718 32.963 3.98416 32.963 7.06411M32.963 7.06411H38.5185M38.5185 21.9359H18.1481M18.1481 21.9359C18.1481 25.0158 15.6607 27.5128 12.5926 27.5128C9.52444 27.5128 7.03703 25.0158 7.03703 21.9359M18.1481 21.9359C18.1481 18.856 15.6607 16.359 12.5926 16.359C9.52444 16.359 7.03703 18.856 7.03703 21.9359M7.03703 21.9359H1.48148" stroke="#FF83A9" stroke-width="3" stroke-linecap="round" stroke-linejoin="round"></path></g><defs><clipPath id="clip0_975_1823"><rect width="40" height="29" fill="white"></rect></clipPath></defs></svg>