<svg xmlns="http://www.w3.org/2000/svg" width="40" height="40" viewBox="0 0 40 40" fill="none"><g clip-path="url(#clip0_975_1814)"><path d="M16.437 3.63552C16.5481 2.41552 17.5704 1.48145 18.7956 1.48145H21.2044C22.4289 1.48145 23.4518 2.41552 23.563 3.63552C23.6541 4.637 24.3748 5.45478 25.3163 5.80737C25.5585 5.89774 25.7978 5.99478 26.0333 6.09774C26.9652 6.50293 28.0607 6.42515 28.8415 5.77478C29.8059 4.97107 31.2244 5.03552 32.1118 5.92293L33.8118 7.62293C34.6578 8.46959 34.7193 9.82145 33.9533 10.7407C33.3148 11.5066 33.2555 12.5881 33.6844 13.4881C33.8704 13.8777 34.04 14.277 34.1926 14.6837C34.5459 15.6251 35.363 16.3459 36.3644 16.437C37.5844 16.5481 38.5185 17.5703 38.5185 18.7955V21.2044C38.5185 22.4289 37.5844 23.4518 36.3644 23.5629C35.363 23.654 34.5452 24.3748 34.1926 25.3163C34.0556 25.6822 33.9052 26.0407 33.7415 26.3926C33.3437 27.2466 33.4081 28.2666 34.0111 28.9903C34.7452 29.8703 34.6859 31.1652 33.8756 31.9755L31.9756 33.8755C31.1652 34.6859 29.8704 34.7444 28.9904 34.0111C28.2667 33.4081 27.2467 33.3437 26.3926 33.7414C26.0407 33.9051 25.6822 34.0555 25.3163 34.1926C24.3748 34.5459 23.6541 35.3629 23.563 36.3644C23.4518 37.5844 22.4296 38.5185 21.2044 38.5185H18.7956C17.5711 38.5185 16.5481 37.5844 16.437 36.3644C16.3459 35.3629 15.6252 34.5451 14.6837 34.1926C14.2763 34.04 13.8778 33.8703 13.4881 33.6844C12.5881 33.2555 11.5067 33.3148 10.7407 33.9533C9.82148 34.7192 8.46888 34.6585 7.62296 33.8118L5.92296 32.1118C5.03555 31.2244 4.97111 29.8059 5.77481 28.8414C6.42518 28.0607 6.50296 26.9652 6.09777 26.0333C5.99555 25.797 5.89851 25.5585 5.8074 25.3163C5.45481 24.3748 4.63703 23.654 3.63555 23.5629C2.41555 23.4518 1.48148 22.4296 1.48148 21.2044V18.7955C1.48148 17.5711 2.41555 16.5481 3.63555 16.437C4.63703 16.3459 5.45481 15.6251 5.8074 14.6837C5.91407 14.3992 6.02888 14.1185 6.15185 13.8422C6.5874 12.8651 6.51481 11.7081 5.82962 10.8866C4.99481 9.88441 5.06148 8.41107 5.9837 7.48811L7.4874 5.98441C8.40962 5.06219 9.8837 4.99478 10.8859 5.83033C11.7074 6.51552 12.8644 6.58737 13.8415 6.15256C14.1178 6.02959 14.3985 5.91478 14.683 5.80811C15.6244 5.45552 16.3452 4.63774 16.4363 3.63626L16.437 3.63552Z" stroke="#FF83A9" stroke-width="3" stroke-linecap="round" stroke-linejoin="round"></path><path d="M16.3341 20.2111L14.7341 16.3636L10.8867 17.9636L14.7333 16.3636C13.9222 17.1318 13.323 18.1422 13.063 19.3155C12.3682 22.4429 14.34 25.5422 17.4682 26.237C18.1333 26.3851 18.7978 26.4118 19.4378 26.3325" stroke="#FF83A9" stroke-width="3" stroke-linecap="round" stroke-linejoin="round"></path><path d="M23.3674 17.334L25.4082 20.9666M25.4082 20.9666L29.0407 18.9259M25.4082 20.9666C26.1237 20.1081 26.5993 19.0348 26.72 17.8392C27.0422 14.6518 24.7193 11.8059 21.5319 11.4837C20.8533 11.4148 20.1904 11.4666 19.5645 11.62" stroke="#FF83A9" stroke-width="3" stroke-linecap="round" stroke-linejoin="round"></path></g><defs><clipPath id="clip0_975_1814"><rect width="40" height="40" fill="white"></rect></clipPath></defs></svg>