<svg xmlns="http://www.w3.org/2000/svg" width="217" height="219" viewBox="0 0 217 219" fill="none"><path d="M108.497 180.348C147.501 180.348 179.121 148.628 179.121 109.5C179.121 70.3718 147.501 38.6521 108.497 38.6521C69.4918 38.6521 37.8722 70.3718 37.8722 109.5C37.8722 148.628 69.4918 180.348 108.497 180.348Z" fill="#008093"></path><path d="M68.1338 112.444L63.3608 97.5923H54.0991L58.5322 109.827L61.0089 116.675C62.4311 117.295 64.221 117.844 66.8018 117.844C67.0446 117.844 67.2944 117.844 67.551 117.831C68.3697 117.796 69.112 117.719 69.7849 117.601L68.1338 112.451V112.444Z" fill="#FFC000"></path><path d="M86.2061 97.5854L82.3419 108.324L80.4272 113.641L75.5431 127.205H64.8176L61.002 116.668C62.4242 117.288 64.2141 117.838 66.7948 117.838C67.0377 117.838 67.2874 117.838 67.5441 117.824C68.3627 117.789 69.1051 117.712 69.778 117.594L70.2081 118.923L70.6938 117.406L72.8652 110.642L77.0624 97.5854H86.1992H86.2061Z" fill="#FFC000"></path><path d="M130.655 106.584C128.463 107.078 127.027 107.948 125.806 108.686C124.723 109.34 123.808 109.897 122.372 110.189C122.545 110.899 122.628 111.657 122.628 112.458C122.628 113.62 122.448 114.671 122.087 115.617C125.223 115.263 127.048 114.156 128.546 113.251C129.524 112.66 130.371 112.152 131.585 111.838C131.529 109.952 131.224 108.199 130.655 106.584Z" fill="#FFC000"></path><path d="M131.592 112.458C131.592 115.395 130.967 118.039 129.712 120.392C128.463 122.744 126.784 124.581 124.675 125.918C122.566 127.247 120.166 127.915 117.474 127.915C116.031 127.915 114.726 127.734 113.575 127.386C112.423 127.031 111.403 126.53 110.529 125.89C109.655 125.243 108.899 124.512 108.275 123.684L107.282 127.212H99.4846V84.8982H108.275V101.469C109.211 100.14 110.425 99.0399 111.91 98.177C113.394 97.314 115.233 96.8825 117.418 96.8825C120.11 96.8825 122.524 97.5576 124.654 98.9077C126.784 100.258 128.47 102.102 129.719 104.434C130.086 105.123 130.405 105.839 130.662 106.584C128.47 107.078 127.034 107.948 125.813 108.686C124.73 109.34 123.815 109.897 122.379 110.189C122.219 109.549 121.997 108.943 121.699 108.373C121.074 107.176 120.207 106.25 119.09 105.582C117.973 104.914 116.718 104.58 115.309 104.58C113.901 104.58 112.583 104.921 111.473 105.61C110.717 106.076 110.071 106.647 109.551 107.329C109.294 107.649 109.072 107.997 108.871 108.373C108.247 109.528 107.935 110.892 107.935 112.458V112.576C107.955 114.024 108.261 115.325 108.871 116.487C109.496 117.684 110.363 118.603 111.48 119.25C112.597 119.898 113.873 120.225 115.316 120.225C116.759 120.225 117.98 119.891 119.097 119.223C120.207 118.554 121.074 117.643 121.706 116.487C121.851 116.209 121.983 115.924 122.101 115.624C125.237 115.27 127.061 114.163 128.56 113.258C129.538 112.667 130.385 112.159 131.599 111.845C131.599 112.047 131.606 112.256 131.606 112.465L131.592 112.458Z" fill="#FFC000"></path><path d="M97.3548 106.403V127.205H88.5718V97.5854L97.3548 106.403Z" fill="#FFC000"></path><path d="M97.3548 90.1736H88.5649V97.5855H97.3548V90.1736Z" fill="#F9F9F9"></path><path d="M161.18 104.079C159.911 101.865 158.163 100.112 155.936 98.8172C153.709 97.5227 151.114 96.8755 148.145 96.8755C145.175 96.8755 142.421 97.5645 140.118 98.9355C137.815 100.307 136.018 102.186 134.727 104.58C134.443 105.102 134.2 105.644 133.978 106.201C133.867 106.201 133.756 106.201 133.638 106.201C132.5 106.243 131.515 106.382 130.648 106.577C128.456 107.071 127.02 107.941 125.799 108.679C124.717 109.333 123.801 109.89 122.365 110.182C121.831 110.293 121.22 110.363 120.499 110.398C117.855 110.502 116.627 109.883 115.073 109.103C113.693 108.414 112.062 107.593 109.537 107.329C109.28 107.649 109.058 107.997 108.857 108.373C108.233 109.528 107.921 110.892 107.921 112.458V112.576C110.12 112.59 111.278 113.168 112.701 113.878C114.484 114.768 116.704 115.882 120.707 115.729C121.192 115.708 121.65 115.673 122.087 115.624C125.223 115.27 127.048 114.163 128.546 113.258C129.524 112.667 130.371 112.159 131.585 111.845C131.959 111.748 132.369 111.678 132.827 111.623C132.806 111.999 132.799 112.374 132.799 112.757C132.799 115.736 133.451 118.366 134.762 120.663C136.073 122.953 137.877 124.741 140.18 126.008C142.484 127.282 145.162 127.915 148.207 127.915C150.51 127.915 152.619 127.476 154.534 126.593C156.449 125.709 158.065 124.519 159.397 123.008C160.722 121.498 161.659 119.807 162.207 117.928H153.244C152.772 118.749 152.12 119.424 151.28 119.953C150.441 120.482 149.38 120.747 148.089 120.747C146.722 120.747 145.543 120.454 144.544 119.863C143.545 119.278 142.789 118.45 142.262 117.392C141.741 116.355 141.485 115.165 141.471 113.822C142.907 114.365 144.718 114.775 147.229 114.678H162.894V114.574H162.915C162.991 114.066 163.04 113.564 163.06 113.077C163.081 112.59 163.088 112.145 163.088 111.755C163.088 108.853 162.45 106.299 161.187 104.086L161.18 104.079ZM142.054 108.254C142.151 107.997 142.255 107.746 142.373 107.517C142.976 106.34 143.788 105.457 144.801 104.872C145.814 104.287 146.951 103.988 148.2 103.988C149.837 103.988 151.218 104.489 152.328 105.484C153.417 106.459 154.007 107.746 154.104 109.34H147.062C144.655 109.437 143.42 108.929 142.04 108.247L142.054 108.254Z" fill="#F9F9F9"></path><path d="M68.1338 112.444C67.884 112.472 67.6204 112.486 67.3429 112.5C64.6997 112.604 63.4717 111.985 61.9177 111.212C60.9742 110.739 59.9128 110.203 58.5322 109.834C57.2904 109.5 55.7988 109.291 53.9118 109.361L54.1199 114.685C56.7631 114.58 57.9911 115.2 59.5451 115.979C60.003 116.209 60.4747 116.446 61.0089 116.675C62.4311 117.295 64.221 117.844 66.8018 117.844C67.0446 117.844 67.2943 117.844 67.551 117.831C68.3697 117.796 69.112 117.719 69.7849 117.601C70.1041 117.545 70.4093 117.483 70.7007 117.413L72.8721 110.648C72.7958 110.697 72.7195 110.739 72.6501 110.787C71.3181 111.595 70.2359 112.249 68.1338 112.451V112.444Z" fill="#F9F9F9"></path><path d="M93.9207 111.449C91.2775 111.56 90.0496 110.934 88.4955 110.161C87.0109 109.416 85.221 108.519 82.3419 108.331L80.4272 113.648C80.5173 113.648 80.6075 113.634 80.6977 113.634C83.3409 113.53 84.5689 114.149 86.1229 114.921C87.9058 115.812 90.1328 116.926 94.1288 116.773C96.446 116.682 98.1387 116.216 99.4846 115.631V109.577C99.4014 109.625 99.3112 109.681 99.2279 109.73C97.7433 110.627 96.5639 111.337 93.9276 111.442L93.9207 111.449Z" fill="#F9F9F9"></path></svg>