<svg xmlns="http://www.w3.org/2000/svg" width="136" height="31" viewBox="0 0 136 31" fill="none"><g clip-path="url(#clip0_1163_28920)"><path d="M4.16776 23.56C2.80199 22.8575 1.76573 21.8276 1.05898 20.4702C0.352237 19.1127 0 17.5023 0 15.6366C0 13.771 0.38178 12.1786 1.14534 10.7873C1.9089 9.39598 2.9747 8.30731 4.34047 7.52582C5.70625 6.74432 7.23564 6.35132 8.9241 6.35132C11.0784 6.35132 12.8192 6.83467 14.1509 7.80137C15.4825 8.76808 16.3802 10.2181 16.8415 12.1515L12.3601 13.0482C12.1988 11.9663 11.8511 11.1622 11.3193 10.6315C10.7853 10.1029 10.0922 9.83642 9.23544 9.83642C8.51733 9.83642 7.89921 10.0442 7.37653 10.4575C6.85613 10.8709 6.46072 11.4988 6.19483 12.339C5.92895 13.1792 5.79487 14.2205 5.79487 15.4627C5.79487 16.775 5.92213 17.8456 6.17665 18.6723C6.43117 19.5012 6.83568 20.111 7.39244 20.5018C7.9492 20.8925 8.60823 21.089 9.37179 21.089C10.2285 21.089 10.9171 20.8654 11.4375 20.4159C11.9579 19.9665 12.3465 19.203 12.601 18.1212L16.7688 19.054C16.3052 20.9174 15.4075 22.311 14.0781 23.2302C12.7464 24.1518 11.0512 24.6103 8.99001 24.6103C7.13792 24.6103 5.52899 24.2602 4.16322 23.5577L4.16776 23.56Z" fill="#008093"></path><path d="M17.4346 0H22.8886V24.1631H17.4346V0Z" fill="#008093"></path><path d="M28.0608 23.5781C26.6951 22.8869 25.6179 21.8637 24.8316 20.5063C24.043 19.1488 23.6499 17.5023 23.6499 15.5689C23.6499 13.6355 24.0499 11.9731 24.8475 10.5818C25.6474 9.19045 26.7519 8.13114 28.1654 7.40611C29.5766 6.68109 31.1401 6.3197 32.8535 6.3197C34.567 6.3197 36.2236 6.6585 37.6121 7.33835C39.0006 8.01821 40.0846 9.04815 40.8595 10.4282C41.6345 11.8082 42.0231 13.4661 42.0231 15.3995C42.0231 17.3329 41.6117 18.9614 40.7891 20.3527C39.9664 21.7463 38.862 22.8033 37.4712 23.5284C36.0827 24.2534 34.5193 24.6148 32.7831 24.6148C31.0469 24.6148 29.4266 24.2692 28.0586 23.5781H28.0608ZM34.6079 20.5221C35.0828 20.1201 35.4692 19.4922 35.7714 18.6406C36.0714 17.7891 36.2236 16.7411 36.2236 15.4989C36.2236 14.2566 36.0737 13.1453 35.7714 12.3051C35.4692 11.4649 35.0828 10.8325 34.6079 10.4056C34.1329 9.98098 33.5375 9.76641 32.8194 9.76641C32.1013 9.76641 31.465 9.97872 30.9787 10.4056C30.4924 10.8325 30.1152 11.4649 29.8493 12.3051C29.5834 13.1453 29.4493 14.1979 29.4493 15.4627C29.4493 16.7276 29.5834 17.753 29.8493 18.6045C30.1152 19.456 30.4924 20.0884 30.9787 20.504C31.465 20.9174 32.0786 21.1252 32.8194 21.1252C33.5603 21.1252 34.1329 20.9241 34.6079 20.5221Z" fill="#008093"></path><path d="M45.3046 23.9394C44.4819 23.49 43.857 22.8304 43.4297 21.9541C43.0002 21.08 42.7866 20.0433 42.7866 18.8462V6.90469H48.2747V17.7778C48.2747 18.6745 48.4588 19.3363 48.8315 19.7632C49.2019 20.1901 49.7814 20.4024 50.5677 20.4024C51.1926 20.4024 51.7834 20.1946 52.3379 19.7813C52.8947 19.3679 53.4151 18.7445 53.9014 17.9179L54.5968 20.5063C53.856 21.8863 52.9401 22.9163 51.8539 23.5961C50.7654 24.2737 49.5837 24.6148 48.3111 24.6148C47.1294 24.6148 46.1295 24.3912 45.3068 23.9417L45.3046 23.9394ZM54.0059 20.7118L53.7628 20.1246V6.90469H59.3554V24.1631H54.0059V20.7118Z" fill="#008093"></path><path d="M63.2437 23.5419C62.2006 22.8282 61.403 21.7937 60.8462 20.434C60.2895 19.0766 60.0122 17.5 60.0122 15.7044C60.0122 13.9088 60.3076 12.2351 60.8985 10.8189C61.4893 9.40277 62.3233 8.29829 63.3982 7.5055C64.4754 6.71046 65.7435 6.31519 67.2024 6.31519C68.4068 6.31519 69.4817 6.58623 70.4316 7.12605C71.3815 7.66812 72.1905 8.49027 72.8632 9.59475L72.2723 12.4949C71.9247 11.9415 71.5838 11.4875 71.2474 11.1306C70.9111 10.7738 70.5634 10.5095 70.2044 10.3356C69.8453 10.1639 69.4454 10.0758 69.0068 10.0758C68.2887 10.0758 67.7046 10.2836 67.2524 10.697C66.8002 11.1103 66.4479 11.7269 66.1934 12.5446C65.9389 13.3622 65.8116 14.356 65.8116 15.5305C65.8116 16.705 65.9275 17.6875 66.1593 18.4826C66.3911 19.2776 66.7502 19.8761 67.2365 20.2782C67.7228 20.6802 68.3137 20.8812 69.0068 20.8812C69.6544 20.8812 70.2407 20.6915 70.7611 20.3121C71.2815 19.9326 71.786 19.3273 72.2723 18.5006L73.1064 20.8835C72.2496 22.2409 71.3406 23.2031 70.3794 23.7655C69.4181 24.3302 68.3 24.6103 67.0274 24.6103C65.5457 24.6103 64.2845 24.2534 63.2414 23.5397L63.2437 23.5419ZM72.5519 20.5379L72.0996 19.9846V0H77.6218V24.1631H72.5519V20.5379Z" fill="#008093"></path><path d="M81.4418 30.6025C80.2146 30.3382 79.3102 29.9407 78.733 29.4122C78.1535 28.8836 77.8649 28.1699 77.8649 27.271C77.8649 26.5346 78.0785 25.8909 78.508 25.3376C78.9352 24.7842 79.5851 24.3641 80.4532 24.0772C81.3213 23.7904 82.3803 23.6571 83.6302 23.6797L84.5324 24.8542C84.0688 24.8068 83.6688 24.8474 83.3348 24.9739C82.9984 25.1004 82.7439 25.2901 82.5712 25.5431C82.3985 25.7961 82.3099 26.0829 82.3099 26.4059C82.3099 26.7966 82.4485 27.1309 82.7257 27.4065C83.003 27.682 83.4484 27.8785 84.062 27.9937C84.6755 28.1089 85.48 28.1654 86.4754 28.1654C87.773 28.1654 88.791 28.0954 89.5319 27.9576C90.2727 27.8198 90.8113 27.612 91.1476 27.3365C91.484 27.0609 91.6521 26.7153 91.6521 26.2997C91.6521 25.8164 91.4726 25.455 91.1135 25.2133C90.7545 24.9717 90.1818 24.8519 89.3933 24.8519H84.5301C82.5848 24.8519 81.0509 24.5177 79.9283 23.8514C78.8057 23.1851 78.2444 22.2522 78.2444 21.0552C78.2444 20.2962 78.4284 19.6345 78.8011 19.0698C79.1716 18.5051 79.7147 18.0466 80.4328 17.6898C81.1509 17.3329 82.019 17.0754 83.0371 16.9128L86.5094 18.3628C85.6754 18.3628 84.9982 18.3967 84.4778 18.4667C83.9574 18.5368 83.5802 18.6678 83.3484 18.8643C83.1166 19.0608 83.0007 19.307 83.0007 19.6074C83.0007 19.9078 83.1212 20.1427 83.3643 20.3143C83.6075 20.486 83.9711 20.5741 84.4574 20.5741H89.4251C91.7407 20.5741 93.4724 20.9648 94.6177 21.7486C95.7631 22.5301 96.3494 23.7384 96.3721 25.3737C96.3721 26.6385 96.0017 27.6911 95.2608 28.5313C94.52 29.3715 93.4088 29.9926 91.9271 30.3947C90.4454 30.7967 88.5706 30.9977 86.3004 30.9977C84.287 30.9977 82.6644 30.8645 81.4372 30.6002L81.4418 30.6025ZM85.3664 18.2273C85.0187 18.1347 84.6937 17.9856 84.3938 17.7779C82.4712 17.6627 80.9896 17.1341 79.9487 16.19C78.9057 15.2459 78.3853 13.9923 78.3853 12.4271C78.3853 11.2074 78.7102 10.1368 79.3579 9.21756C80.0056 8.29829 80.9668 7.58907 82.2417 7.09443C83.5143 6.59978 84.9619 6.35133 86.5822 6.35133C89.1751 6.35133 91.1953 6.86856 92.6429 7.90528C94.0905 8.942 94.8132 10.3898 94.8132 12.2554C94.8132 13.4977 94.4768 14.5751 93.8064 15.4831C93.1338 16.3933 92.1793 17.1003 90.9408 17.6062C89.7023 18.1121 88.2252 18.3651 86.5117 18.3651C86.0959 18.3651 85.7118 18.3199 85.3664 18.2273ZM88.1093 14.6722C88.5252 14.4418 88.8501 14.1437 89.0819 13.7755C89.3137 13.4074 89.4296 12.9353 89.4296 12.3593C89.4296 11.4627 89.1796 10.7783 88.682 10.3062C88.1843 9.83417 87.4844 9.59927 86.5799 9.59927C86.0004 9.59927 85.4914 9.70769 85.0528 9.92678C84.6119 10.1459 84.2824 10.4576 84.062 10.8596C83.8415 11.2616 83.7325 11.7631 83.7325 12.3616C83.7325 13.1905 83.9802 13.841 84.4801 14.3131C84.9778 14.7851 85.6777 15.02 86.5822 15.02C87.1844 15.02 87.6934 14.9048 88.1093 14.6745V14.6722ZM91.7726 6.09384C92.1089 5.52918 92.5838 5.09326 93.1974 4.78157C93.811 4.46987 94.5336 4.31628 95.3677 4.31628C96.063 4.31628 96.6993 4.44277 97.2788 4.69574L96.3403 8.56255C95.9471 8.35475 95.5176 8.25086 95.0563 8.25086C94.5223 8.25086 94.1064 8.34346 93.8064 8.52641C93.5042 8.71162 93.3088 8.97588 93.2156 9.32146L91.3044 7.80364C91.2817 7.22769 91.4385 6.65851 91.7726 6.09384Z" fill="#008093"></path><path d="M96.9652 23.3364C95.9472 22.4623 95.4381 21.2539 95.4381 19.7113C95.4381 18.3538 95.8494 17.22 96.6721 16.312C97.4947 15.404 98.7378 14.7129 100.406 14.2408C102.074 13.7687 104.237 13.5451 106.901 13.5677L107.005 16.3639C105.617 16.3413 104.48 16.4452 103.601 16.6756C102.721 16.906 102.056 17.2177 101.603 17.6084C101.151 17.9992 100.926 18.5187 100.926 19.1624C100.926 19.7609 101.11 20.233 101.483 20.5786C101.853 20.9241 102.385 21.0958 103.081 21.0958C103.983 21.0958 104.787 20.8022 105.494 20.2149C106.201 19.6277 106.796 18.7717 107.282 17.6423L108.428 19.8852C107.571 21.4956 106.539 22.6927 105.337 23.4742C104.133 24.2557 102.719 24.6487 101.099 24.6487C99.3627 24.6487 97.9833 24.2105 96.9652 23.3364ZM106.655 21.0235L106.482 20.4363V12.8766C106.482 11.8647 106.251 11.1058 105.787 10.5976C105.323 10.0917 104.605 9.83868 103.633 9.83868C102.66 9.83868 102.001 10.0691 101.515 10.5298C101.028 10.9906 100.703 11.7043 100.542 12.671L95.8176 11.876C96.1426 10.1504 97.0107 8.79293 98.4219 7.80364C99.8331 6.81435 101.71 6.3197 104.049 6.3197C105.739 6.3197 107.187 6.57267 108.389 7.07861C109.594 7.58455 110.496 8.34345 111.098 9.35759C111.7 10.3695 112 11.5778 112 12.9827V20.818C112.023 21.4866 112.057 22.0828 112.105 22.6136C112.15 23.1421 112.243 23.6142 112.382 24.0298V24.1676H107.032C106.778 23.3861 106.651 22.3381 106.651 21.0258L106.655 21.0235Z" fill="#008093"></path><path d="M120.579 23.3364C119.561 22.4623 119.052 21.2539 119.052 19.7113C119.052 18.3538 119.463 17.22 120.286 16.312C121.108 15.404 122.351 14.7129 124.019 14.2408C125.687 13.7687 127.851 13.5451 130.514 13.5677L130.619 16.3639C129.23 16.3413 128.094 16.4452 127.215 16.6756C126.335 16.906 125.669 17.2177 125.217 17.6084C124.765 17.9992 124.54 18.5187 124.54 19.1624C124.54 19.7609 124.724 20.233 125.097 20.5786C125.467 20.9241 125.999 21.0958 126.694 21.0958C127.596 21.0958 128.401 20.8022 129.108 20.2149C129.814 19.6277 130.41 18.7717 130.896 17.6423L132.041 19.8852C131.185 21.4956 130.153 22.6927 128.951 23.4742C127.746 24.2557 126.333 24.6487 124.713 24.6487C122.976 24.6487 121.597 24.2105 120.579 23.3364ZM130.269 21.0235L130.096 20.4363V12.8766C130.096 11.8647 129.864 11.1058 129.401 10.5976C128.937 10.0917 128.219 9.83868 127.246 9.83868C126.274 9.83868 125.615 10.0691 125.128 10.5298C124.642 10.9906 124.317 11.7043 124.156 12.671L119.431 11.876C119.756 10.1504 120.624 8.79293 122.036 7.80364C123.447 6.81435 125.324 6.3197 127.662 6.3197C129.353 6.3197 130.801 6.57267 132.003 7.07861C133.207 7.58455 134.109 8.34345 134.712 9.35759C135.314 10.3695 135.614 11.5778 135.614 12.9827V20.818C135.636 21.4866 135.671 22.0828 135.718 22.6136C135.764 23.1421 135.857 23.6142 135.996 24.0298V24.1676H130.646C130.392 23.3861 130.264 22.3381 130.264 21.0258L130.269 21.0235Z" fill="#008093"></path><path d="M118.393 9.97646V24.1653H112.941V4.55795L118.393 9.97646Z" fill="#008093"></path><path d="M118.395 0H112.941V4.5557H118.395V0Z" fill="#FCC000"></path></g><defs><clipPath id="clip0_1163_28920"><rect width="136" height="31" fill="white"></rect></clipPath></defs></svg>